M48
;Layer_Color=9474304
;FILE_FORMAT=4:3
METRIC,TZ
;TYPE=PLATED
T1F00S00C0.400
T2F00S00C0.740
T3F00S00C0.900
T4F00S00C0.950
T5F00S00C1.000
T6F00S00C1.100
T7F00S00C1.500
%
T01
X28000Y32000
X32000
X36000
X30000Y36000
X26000
X40000Y32000
X42000Y28000
X48000Y32000
X46000Y36000
X58000
X62000
X66000
X64000Y32000
X60000
X56000
X76000
X78000Y28000
Y36000
X74000
X82000
X86000
X90000
X91368Y34100
X91000Y31900
X91422Y30300
X96000Y32000
X97771Y34200
X99200Y30700
X100700Y31459
X104000Y32000
X101919Y35000
X106000Y36000
X110000
X114000
X118000
X116000Y32000
X112000
X109100Y30300
X108000Y24000
X104000
X100000
X96000
X92000
X88000
X84000
X80000
X82000Y28000
X98000
X112000Y24000
X116000
X118000Y28000
X120000Y32000
Y40000
Y48000
Y56000
Y64000
Y72000
X116000
X112000
X108000
X110000Y68000
X106000
X108000Y64000
X112000
X116000
X118000Y60000
X114000
X110000
X106000
X108000Y56000
X112000
X116000
X118000Y52000
X114000
X110000
X106000
X108000Y48000
X112000
X116000
X118000Y44000
X114000
X110000
X106000
X102000
X98000
X94000
X92005Y45665
Y46665
Y47665
X92505Y48665
X93505
X94000Y52000
X90000
X86000
X82000
X80000Y48000
X84000
X88000
X90000Y44000
X86000
X82000
X80000Y40000
X84000
X88000
X92000
X96000
X100000
X104000
X108000
X112000
X116000
X118000Y68000
X114000
Y76000
X110000
X106000
X118000
X92665Y78275
X87100Y77200
X85940Y78360
X86900Y74900
X85260Y73800
X85300Y70400
X82741Y70366
X83152Y68634
X81725Y67332
X81412Y71400
X82000Y76000
X80020Y77375
X88000Y72000
X88000Y68800
X88100Y67500
X86000Y68000
X84000Y64000
X88000
X92000
X94000Y60000
X90000
X86000
X82000
X80000Y56000
X84000
X88000
X92000
X91705Y71640
X78100Y70400
X74000Y68000
X70000
X66000
X64000Y64000
X60000
X56000
X52000
X51135Y60900
X47900
X46950Y61650
Y60150
X47050Y58650
X45900Y57400
X47020Y56200
X45700Y54867
X44000Y56000
X44367Y51980
X50000Y52000
X54000
X52000Y56000
X54000Y60000
X62000
X66000
X66000Y56925
X67150Y57000
X68916Y56500
X70727Y56402
X71700Y52100
X72816Y50300
X69865Y49032
X67696Y49465
Y48565
X66696
Y49465
X65696
Y48565
Y47665
Y46765
Y45865
Y44965
X64696
Y45865
Y46765
Y47665
Y48565
Y49465
X63696
Y48565
Y47665
Y46765
Y45865
Y44965
X62000Y44000
X58000
X56000Y40000
X60000
X64000
X66000Y44000
X70000
X74000
X78000
X76000Y40000
Y48000
X78000Y52000
X76000Y56000
X78000Y60000
X72000Y64000
X68000
X68300Y60900
X64000Y56000
X66300Y50900
X60000Y48000
X56000
X49545Y44465
X46295Y43715
X45355
X44445
Y42765
X46045Y42165
Y41265
X47045
Y42165
X47060Y63150
X46960Y64650
X46951Y66177
Y68400
X47165Y71000
X42960Y70950
X41310Y71075
X40100Y70974
X40000Y72000
X42460Y69450
Y67950
X42534Y65184
Y62387
X42000Y60000
Y76000
X43310Y79000
X47795Y78895
X48658Y76800
X51135Y76478
X51900Y79332
X56736Y79075
X57700Y79150
X58743Y79055
X58800Y74684
X57700Y74900
X56566Y74715
X54829Y73500
X52000Y72000
X56100Y68400
X57700Y68300
X65224Y74700
X69692Y72550
X73075Y73400
X71000Y77247
X68974Y79185
X38205Y77200
X32884Y75600
X35249Y72900
X36000Y72000
X35249Y70974
X39609Y68210
X30150Y65850
X29250Y64950
X28350Y64050
X27450Y63150
X26000Y68000
X24000Y72000
X26000Y76000
X28000Y56000
X32000
X34000Y52000
X38000
X35249Y60000
X26000Y52000
X28000Y48000
X26000Y44000
X28000Y40000
X32000
X38545Y40765
Y41665
X39545
Y40765
X39635Y80950
X35992Y81223
X35890Y83843
X36054Y86700
X36000Y88000
Y91150
X38000Y92000
X35890Y93957
X36000Y96000
X32000
X31900Y94000
X31200Y88225
X31900Y83800
X31425Y81165
X26000Y84000
X24000Y80000
Y88000
X26000Y92000
X24000Y96000
X26000Y100000
X28000Y104000
X31600Y101850
X38000Y100000
X38830Y88687
X39900Y87175
X42104Y87641
X44000Y88000
X43836Y85850
X44500Y85000
X45300Y84200
X42300
X41000Y85000
X41600Y81991
X44400Y79990
X47795Y81491
X49545Y81600
X49540Y85200
X48500Y85149
X50647Y85198
X52000Y88000
X48595Y87400
X45845Y87525
X46000Y92000
X42000
X40950Y89550
X40000Y96000
X44000
X48000
X52000
X56000
X60000
X64000
X67680Y93900
X72760Y93905
X72000Y96000
X76000
X74000Y100000
X78545Y103400
X66000
X66000Y100000
X62000
X58000
X54000
X46000
X42000
X54000Y92000
X55183Y89654
X58650Y89214
X58000Y92000
X61200Y90800
X61383Y88154
X62000Y84000
X66000
X70200Y84450
X71133Y88129
X70923Y90750
X68400Y89189
X64933Y89629
X75400Y90350
X76800Y89600
X75800Y86900
X76974Y84936
X73840Y83000
X58900
X57700Y82950
X56520Y83000
X54000Y84000
X79686Y83000
X80000Y84800
X81975Y83700
X82753Y86900
X84000Y88000
X87578Y87419
X88160Y83100
X90000Y84000
X90500Y85100
X92000Y88000
X96000
X100000
X104000
X108000
X112000
X116000
X118000Y84000
X114000
X110000
X106000
X104600Y81900
X102000Y84000
X98000
X94000
X93795Y79576
X89685Y79650
X88415
X87145
X85982Y80900
X84996Y80025
X81300Y80200
X81475Y90084
X82000Y92000
X86156Y91353
X88000Y96000
X84000
X80000
Y104000
X84000
X88000
X92000
X96000
X100000
X104000
X105420Y106400
X108000Y104000
X112000
X116000
X117643Y106400
X116000Y96000
X112000
X108000
X110000Y92000
X106000
Y100000
X102000
X94000
X90000
X86000
X90180Y106400
X92045Y94070
X110000Y100000
X114000Y92000
X112000Y80000
X108000
X116000
X120000Y88000
Y96000
T02
X110860Y86400
X113400
X115940
T03
X35620Y61725
Y64265
Y66805
Y69345
X38160Y68075
Y65535
Y62995
Y60455
T04
X48895Y72808
Y75450
Y78092
T05
X110050Y73550
Y78050
X116550
Y73550
T06
X59620Y53470
X62160
X64700
X67240
X69780
X72320
X74860
X77400
Y76330
X74860
X72320
X69780
X67240
X64700
X62160
X59620
T07
X29225Y27925
X34305
X39385
X44465
X49545
X54625
X59705
X64785
X69865
X74940Y27925
X80020
X85100
X90180
X95260
X100340
X105420
X110500
X115580
X39380Y101850
X34300
X29220
X44460
X49540
X54620
X59700
X64780
X69860
X74940
X80020
X85100
X90180
X95260
X100340
X105420
X110500
X115580
M30
