G04 Layer_Color=65535*
%FSLAX43Y43*%
%MOMM*%
G71*
G01*
G75*
%ADD31C,0.300*%
%ADD34C,0.600*%
%ADD66C,0.203*%
%ADD67C,0.200*%
%ADD68C,0.150*%
%ADD69C,0.250*%
%ADD70C,0.254*%
%ADD71C,0.100*%
%ADD72C,0.127*%
%ADD73C,0.180*%
G36*
X35593Y82146D02*
X35609Y82144D01*
X35626Y82142D01*
X35646Y82139D01*
X35667Y82133D01*
X35713Y82120D01*
X35737Y82111D01*
X35763Y82098D01*
X35787Y82085D01*
X35809Y82070D01*
X35833Y82052D01*
X35854Y82031D01*
X35855Y82029D01*
X35857Y82028D01*
X35863Y82022D01*
X35868Y82015D01*
X35883Y81996D01*
X35900Y81970D01*
X35917Y81939D01*
X35930Y81902D01*
X35941Y81861D01*
X35943Y81841D01*
X35944Y81818D01*
Y81816D01*
Y81811D01*
X35943Y81802D01*
X35941Y81791D01*
X35939Y81776D01*
X35935Y81759D01*
X35930Y81741D01*
X35922Y81720D01*
X35911Y81700D01*
X35900Y81678D01*
X35885Y81655D01*
X35867Y81633D01*
X35844Y81611D01*
X35820Y81589D01*
X35793Y81568D01*
X35759Y81548D01*
X35761D01*
X35765Y81546D01*
X35770D01*
X35778Y81542D01*
X35798Y81537D01*
X35822Y81526D01*
X35850Y81511D01*
X35880Y81492D01*
X35909Y81468D01*
X35935Y81441D01*
X35939Y81437D01*
X35946Y81426D01*
X35955Y81409D01*
X35968Y81385D01*
X35981Y81357D01*
X35991Y81322D01*
X35998Y81285D01*
X36002Y81242D01*
Y81241D01*
Y81235D01*
Y81226D01*
X36000Y81215D01*
X35998Y81200D01*
X35994Y81183D01*
X35991Y81163D01*
X35987Y81142D01*
X35972Y81098D01*
X35961Y81074D01*
X35950Y81048D01*
X35935Y81024D01*
X35918Y81000D01*
X35900Y80976D01*
X35878Y80954D01*
X35876Y80952D01*
X35872Y80948D01*
X35865Y80942D01*
X35855Y80935D01*
X35843Y80926D01*
X35830Y80917D01*
X35811Y80905D01*
X35793Y80894D01*
X35772Y80883D01*
X35748Y80872D01*
X35722Y80863D01*
X35696Y80854D01*
X35667Y80846D01*
X35637Y80841D01*
X35604Y80837D01*
X35570Y80835D01*
X35554D01*
X35541Y80837D01*
X35526Y80839D01*
X35509Y80841D01*
X35491Y80844D01*
X35468Y80848D01*
X35424Y80859D01*
X35376Y80878D01*
X35350Y80889D01*
X35328Y80902D01*
X35304Y80918D01*
X35281Y80935D01*
X35280Y80937D01*
X35276Y80941D01*
X35270Y80946D01*
X35263Y80954D01*
X35254Y80963D01*
X35244Y80976D01*
X35233Y80989D01*
X35222Y81005D01*
X35211Y81024D01*
X35198Y81042D01*
X35178Y81087D01*
X35161Y81139D01*
X35154Y81167D01*
X35150Y81196D01*
X35387Y81226D01*
Y81224D01*
Y81222D01*
X35389Y81211D01*
X35393Y81194D01*
X35398Y81174D01*
X35407Y81152D01*
X35417Y81128D01*
X35431Y81105D01*
X35448Y81085D01*
X35450Y81083D01*
X35457Y81078D01*
X35468Y81070D01*
X35481Y81063D01*
X35500Y81054D01*
X35520Y81046D01*
X35543Y81041D01*
X35568Y81039D01*
X35572D01*
X35581Y81041D01*
X35594Y81042D01*
X35613Y81046D01*
X35633Y81054D01*
X35654Y81063D01*
X35676Y81078D01*
X35696Y81096D01*
X35698Y81098D01*
X35706Y81107D01*
X35713Y81120D01*
X35724Y81137D01*
X35733Y81159D01*
X35743Y81187D01*
X35748Y81218D01*
X35750Y81254D01*
Y81255D01*
Y81257D01*
Y81268D01*
X35748Y81285D01*
X35744Y81307D01*
X35737Y81331D01*
X35728Y81355D01*
X35715Y81379D01*
X35698Y81402D01*
X35696Y81404D01*
X35689Y81411D01*
X35678Y81420D01*
X35665Y81429D01*
X35646Y81441D01*
X35626Y81448D01*
X35604Y81455D01*
X35578Y81457D01*
X35559D01*
X35546Y81455D01*
X35530Y81454D01*
X35509Y81450D01*
X35489Y81444D01*
X35465Y81439D01*
X35491Y81637D01*
X35507D01*
X35526Y81639D01*
X35548Y81641D01*
X35572Y81646D01*
X35598Y81654D01*
X35622Y81665D01*
X35644Y81679D01*
X35646Y81681D01*
X35654Y81689D01*
X35661Y81698D01*
X35672Y81713D01*
X35681Y81729D01*
X35691Y81750D01*
X35696Y81774D01*
X35698Y81802D01*
Y81805D01*
Y81813D01*
X35696Y81824D01*
X35693Y81839D01*
X35689Y81855D01*
X35681Y81872D01*
X35672Y81891D01*
X35659Y81905D01*
X35657Y81907D01*
X35652Y81911D01*
X35644Y81918D01*
X35631Y81926D01*
X35617Y81931D01*
X35600Y81939D01*
X35578Y81942D01*
X35556Y81944D01*
X35544D01*
X35533Y81942D01*
X35518Y81939D01*
X35502Y81933D01*
X35483Y81926D01*
X35465Y81915D01*
X35448Y81900D01*
X35446Y81898D01*
X35441Y81892D01*
X35433Y81881D01*
X35424Y81866D01*
X35415Y81850D01*
X35407Y81828D01*
X35400Y81802D01*
X35394Y81772D01*
X35169Y81809D01*
Y81811D01*
X35170Y81815D01*
Y81820D01*
X35172Y81829D01*
X35178Y81850D01*
X35185Y81878D01*
X35196Y81907D01*
X35207Y81939D01*
X35222Y81968D01*
X35239Y81996D01*
X35241Y82000D01*
X35248Y82007D01*
X35259Y82020D01*
X35274Y82037D01*
X35293Y82053D01*
X35315Y82072D01*
X35343Y82091D01*
X35372Y82107D01*
X35374D01*
X35376Y82109D01*
X35387Y82113D01*
X35406Y82120D01*
X35428Y82128D01*
X35456Y82135D01*
X35489Y82142D01*
X35524Y82146D01*
X35563Y82148D01*
X35580D01*
X35593Y82146D01*
D02*
G37*
G36*
X37783D02*
X37800Y82144D01*
X37816Y82142D01*
X37837Y82139D01*
X37857Y82133D01*
X37903Y82120D01*
X37927Y82111D01*
X37953Y82098D01*
X37977Y82085D01*
X38000Y82070D01*
X38024Y82052D01*
X38044Y82031D01*
X38046Y82029D01*
X38048Y82028D01*
X38053Y82022D01*
X38059Y82015D01*
X38074Y81996D01*
X38090Y81970D01*
X38107Y81939D01*
X38120Y81902D01*
X38131Y81861D01*
X38133Y81841D01*
X38135Y81818D01*
Y81816D01*
Y81811D01*
X38133Y81802D01*
X38131Y81791D01*
X38129Y81776D01*
X38126Y81759D01*
X38120Y81741D01*
X38113Y81720D01*
X38102Y81700D01*
X38090Y81678D01*
X38076Y81655D01*
X38057Y81633D01*
X38035Y81611D01*
X38011Y81589D01*
X37983Y81568D01*
X37950Y81548D01*
X37952D01*
X37955Y81546D01*
X37961D01*
X37968Y81542D01*
X37989Y81537D01*
X38013Y81526D01*
X38040Y81511D01*
X38070Y81492D01*
X38100Y81468D01*
X38126Y81441D01*
X38129Y81437D01*
X38137Y81426D01*
X38146Y81409D01*
X38159Y81385D01*
X38172Y81357D01*
X38181Y81322D01*
X38189Y81285D01*
X38192Y81242D01*
Y81241D01*
Y81235D01*
Y81226D01*
X38190Y81215D01*
X38189Y81200D01*
X38185Y81183D01*
X38181Y81163D01*
X38177Y81142D01*
X38163Y81098D01*
X38152Y81074D01*
X38140Y81048D01*
X38126Y81024D01*
X38109Y81000D01*
X38090Y80976D01*
X38068Y80954D01*
X38066Y80952D01*
X38063Y80948D01*
X38055Y80942D01*
X38046Y80935D01*
X38033Y80926D01*
X38020Y80917D01*
X38002Y80905D01*
X37983Y80894D01*
X37963Y80883D01*
X37939Y80872D01*
X37913Y80863D01*
X37887Y80854D01*
X37857Y80846D01*
X37827Y80841D01*
X37794Y80837D01*
X37761Y80835D01*
X37744D01*
X37731Y80837D01*
X37716Y80839D01*
X37700Y80841D01*
X37681Y80844D01*
X37659Y80848D01*
X37615Y80859D01*
X37566Y80878D01*
X37540Y80889D01*
X37518Y80902D01*
X37494Y80918D01*
X37472Y80935D01*
X37470Y80937D01*
X37466Y80941D01*
X37461Y80946D01*
X37453Y80954D01*
X37444Y80963D01*
X37435Y80976D01*
X37424Y80989D01*
X37413Y81005D01*
X37402Y81024D01*
X37389Y81042D01*
X37368Y81087D01*
X37352Y81139D01*
X37344Y81167D01*
X37341Y81196D01*
X37578Y81226D01*
Y81224D01*
Y81222D01*
X37579Y81211D01*
X37583Y81194D01*
X37589Y81174D01*
X37598Y81152D01*
X37607Y81128D01*
X37622Y81105D01*
X37639Y81085D01*
X37640Y81083D01*
X37648Y81078D01*
X37659Y81070D01*
X37672Y81063D01*
X37690Y81054D01*
X37711Y81046D01*
X37733Y81041D01*
X37759Y81039D01*
X37763D01*
X37772Y81041D01*
X37785Y81042D01*
X37803Y81046D01*
X37824Y81054D01*
X37844Y81063D01*
X37866Y81078D01*
X37887Y81096D01*
X37889Y81098D01*
X37896Y81107D01*
X37903Y81120D01*
X37915Y81137D01*
X37924Y81159D01*
X37933Y81187D01*
X37939Y81218D01*
X37940Y81254D01*
Y81255D01*
Y81257D01*
Y81268D01*
X37939Y81285D01*
X37935Y81307D01*
X37927Y81331D01*
X37918Y81355D01*
X37905Y81379D01*
X37889Y81402D01*
X37887Y81404D01*
X37879Y81411D01*
X37868Y81420D01*
X37855Y81429D01*
X37837Y81441D01*
X37816Y81448D01*
X37794Y81455D01*
X37768Y81457D01*
X37750D01*
X37737Y81455D01*
X37720Y81454D01*
X37700Y81450D01*
X37679Y81444D01*
X37655Y81439D01*
X37681Y81637D01*
X37698D01*
X37716Y81639D01*
X37739Y81641D01*
X37763Y81646D01*
X37789Y81654D01*
X37813Y81665D01*
X37835Y81679D01*
X37837Y81681D01*
X37844Y81689D01*
X37852Y81698D01*
X37863Y81713D01*
X37872Y81729D01*
X37881Y81750D01*
X37887Y81774D01*
X37889Y81802D01*
Y81805D01*
Y81813D01*
X37887Y81824D01*
X37883Y81839D01*
X37879Y81855D01*
X37872Y81872D01*
X37863Y81891D01*
X37850Y81905D01*
X37848Y81907D01*
X37842Y81911D01*
X37835Y81918D01*
X37822Y81926D01*
X37807Y81931D01*
X37790Y81939D01*
X37768Y81942D01*
X37746Y81944D01*
X37735D01*
X37724Y81942D01*
X37709Y81939D01*
X37692Y81933D01*
X37674Y81926D01*
X37655Y81915D01*
X37639Y81900D01*
X37637Y81898D01*
X37631Y81892D01*
X37624Y81881D01*
X37615Y81866D01*
X37605Y81850D01*
X37598Y81828D01*
X37590Y81802D01*
X37585Y81772D01*
X37359Y81809D01*
Y81811D01*
X37361Y81815D01*
Y81820D01*
X37363Y81829D01*
X37368Y81850D01*
X37376Y81878D01*
X37387Y81907D01*
X37398Y81939D01*
X37413Y81968D01*
X37429Y81996D01*
X37431Y82000D01*
X37439Y82007D01*
X37450Y82020D01*
X37465Y82037D01*
X37483Y82053D01*
X37505Y82072D01*
X37533Y82091D01*
X37563Y82107D01*
X37565D01*
X37566Y82109D01*
X37578Y82113D01*
X37596Y82120D01*
X37618Y82128D01*
X37646Y82135D01*
X37679Y82142D01*
X37715Y82146D01*
X37753Y82148D01*
X37770D01*
X37783Y82146D01*
D02*
G37*
G36*
X36818Y80859D02*
X36539D01*
X36080Y82141D01*
X36359D01*
X36685Y81192D01*
X36998Y82141D01*
X37274D01*
X36818Y80859D01*
D02*
G37*
G36*
X95975Y58885D02*
X96008Y58880D01*
X96049Y58871D01*
X96096Y58862D01*
X96142Y58848D01*
X96198Y58834D01*
X96248Y58811D01*
X96309Y58788D01*
X96364Y58755D01*
X96424Y58718D01*
X96480Y58676D01*
X96535Y58626D01*
X96591Y58570D01*
X96596Y58565D01*
X96605Y58556D01*
X96619Y58538D01*
X96637Y58510D01*
X96656Y58482D01*
X96679Y58440D01*
X96707Y58394D01*
X96734Y58343D01*
X96758Y58283D01*
X96785Y58218D01*
X96808Y58144D01*
X96832Y58066D01*
X96845Y57978D01*
X96859Y57890D01*
X96869Y57788D01*
X96873Y57686D01*
Y57681D01*
Y57663D01*
Y57631D01*
X96869Y57589D01*
X96864Y57543D01*
X96859Y57487D01*
X96850Y57422D01*
X96836Y57357D01*
X96804Y57209D01*
X96781Y57135D01*
X96753Y57061D01*
X96720Y56987D01*
X96679Y56918D01*
X96637Y56848D01*
X96586Y56784D01*
X96582Y56779D01*
X96572Y56770D01*
X96559Y56756D01*
X96535Y56733D01*
X96508Y56710D01*
X96475Y56682D01*
X96438Y56654D01*
X96397Y56626D01*
X96346Y56594D01*
X96295Y56566D01*
X96179Y56515D01*
X96114Y56492D01*
X96045Y56478D01*
X95975Y56469D01*
X95901Y56464D01*
X95869D01*
X95832Y56469D01*
X95786Y56474D01*
X95730Y56483D01*
X95670Y56497D01*
X95610Y56515D01*
X95550Y56538D01*
X95545Y56543D01*
X95522Y56552D01*
X95494Y56575D01*
X95452Y56603D01*
X95402Y56636D01*
X95351Y56682D01*
X95290Y56737D01*
X95226Y56802D01*
Y55627D01*
X94610D01*
Y58838D01*
X95184D01*
Y58496D01*
X95189Y58505D01*
X95203Y58524D01*
X95230Y58556D01*
X95263Y58598D01*
X95304Y58644D01*
X95360Y58690D01*
X95415Y58737D01*
X95485Y58778D01*
X95494Y58783D01*
X95517Y58797D01*
X95559Y58815D01*
X95610Y58834D01*
X95670Y58852D01*
X95744Y58871D01*
X95823Y58885D01*
X95906Y58889D01*
X95943D01*
X95975Y58885D01*
D02*
G37*
G36*
X103806Y59773D02*
X103857Y59769D01*
X103917Y59764D01*
X103977Y59755D01*
X104046Y59745D01*
X104195Y59713D01*
X104269Y59690D01*
X104343Y59667D01*
X104417Y59634D01*
X104486Y59597D01*
X104551Y59556D01*
X104611Y59509D01*
X104616Y59505D01*
X104625Y59496D01*
X104639Y59482D01*
X104657Y59463D01*
X104680Y59435D01*
X104708Y59403D01*
X104736Y59366D01*
X104768Y59324D01*
X104796Y59273D01*
X104824Y59223D01*
X104852Y59162D01*
X104875Y59098D01*
X104898Y59033D01*
X104916Y58959D01*
X104930Y58885D01*
X104935Y58801D01*
X104287Y58778D01*
Y58783D01*
Y58788D01*
X104278Y58820D01*
X104269Y58862D01*
X104250Y58912D01*
X104227Y58973D01*
X104195Y59028D01*
X104153Y59084D01*
X104107Y59130D01*
X104102Y59135D01*
X104083Y59148D01*
X104051Y59167D01*
X104005Y59186D01*
X103949Y59204D01*
X103880Y59223D01*
X103797Y59236D01*
X103699Y59241D01*
X103653D01*
X103602Y59236D01*
X103542Y59227D01*
X103473Y59213D01*
X103399Y59190D01*
X103329Y59162D01*
X103264Y59121D01*
X103260Y59116D01*
X103250Y59107D01*
X103232Y59093D01*
X103213Y59070D01*
X103195Y59042D01*
X103176Y59005D01*
X103167Y58968D01*
X103162Y58922D01*
Y58917D01*
Y58903D01*
X103167Y58880D01*
X103176Y58857D01*
X103186Y58825D01*
X103200Y58792D01*
X103223Y58760D01*
X103255Y58727D01*
X103260Y58723D01*
X103283Y58709D01*
X103297Y58700D01*
X103320Y58690D01*
X103343Y58676D01*
X103375Y58663D01*
X103412Y58649D01*
X103454Y58630D01*
X103505Y58612D01*
X103556Y58593D01*
X103621Y58575D01*
X103690Y58556D01*
X103764Y58538D01*
X103847Y58514D01*
X103852D01*
X103871Y58510D01*
X103894Y58505D01*
X103926Y58496D01*
X103963Y58487D01*
X104009Y58473D01*
X104060Y58459D01*
X104111Y58445D01*
X104222Y58408D01*
X104338Y58371D01*
X104449Y58329D01*
X104495Y58306D01*
X104542Y58283D01*
X104546D01*
X104551Y58278D01*
X104579Y58260D01*
X104620Y58232D01*
X104671Y58195D01*
X104727Y58149D01*
X104787Y58093D01*
X104847Y58029D01*
X104898Y57954D01*
X104903Y57945D01*
X104916Y57917D01*
X104940Y57876D01*
X104963Y57816D01*
X104986Y57742D01*
X105009Y57654D01*
X105023Y57556D01*
X105028Y57445D01*
Y57441D01*
Y57432D01*
Y57418D01*
Y57399D01*
X105023Y57376D01*
X105018Y57344D01*
X105009Y57279D01*
X104991Y57196D01*
X104963Y57108D01*
X104921Y57020D01*
X104870Y56927D01*
Y56922D01*
X104861Y56918D01*
X104842Y56890D01*
X104805Y56844D01*
X104759Y56793D01*
X104699Y56733D01*
X104620Y56677D01*
X104537Y56622D01*
X104435Y56571D01*
X104431D01*
X104421Y56566D01*
X104407Y56562D01*
X104384Y56552D01*
X104356Y56543D01*
X104324Y56534D01*
X104287Y56524D01*
X104245Y56515D01*
X104195Y56501D01*
X104144Y56492D01*
X104023Y56474D01*
X103889Y56460D01*
X103741Y56455D01*
X103681D01*
X103639Y56460D01*
X103588Y56464D01*
X103533Y56469D01*
X103468Y56478D01*
X103399Y56492D01*
X103246Y56524D01*
X103167Y56548D01*
X103093Y56571D01*
X103014Y56603D01*
X102940Y56640D01*
X102871Y56682D01*
X102806Y56733D01*
X102802Y56737D01*
X102792Y56747D01*
X102774Y56761D01*
X102755Y56784D01*
X102727Y56816D01*
X102700Y56853D01*
X102667Y56895D01*
X102635Y56941D01*
X102603Y56997D01*
X102570Y57057D01*
X102538Y57126D01*
X102505Y57200D01*
X102482Y57279D01*
X102454Y57367D01*
X102436Y57459D01*
X102422Y57556D01*
X103051Y57617D01*
Y57612D01*
X103056Y57603D01*
Y57584D01*
X103061Y57566D01*
X103079Y57510D01*
X103102Y57441D01*
X103130Y57362D01*
X103172Y57283D01*
X103218Y57214D01*
X103278Y57149D01*
X103287Y57145D01*
X103311Y57126D01*
X103348Y57103D01*
X103403Y57075D01*
X103473Y57047D01*
X103551Y57024D01*
X103644Y57006D01*
X103750Y57001D01*
X103801D01*
X103857Y57010D01*
X103926Y57020D01*
X104000Y57034D01*
X104079Y57057D01*
X104153Y57089D01*
X104218Y57131D01*
X104227Y57135D01*
X104245Y57154D01*
X104269Y57182D01*
X104301Y57219D01*
X104329Y57265D01*
X104356Y57320D01*
X104375Y57376D01*
X104380Y57441D01*
Y57445D01*
Y57459D01*
X104375Y57482D01*
X104370Y57510D01*
X104361Y57538D01*
X104352Y57570D01*
X104333Y57603D01*
X104310Y57635D01*
X104306Y57640D01*
X104296Y57649D01*
X104282Y57663D01*
X104259Y57681D01*
X104227Y57705D01*
X104185Y57728D01*
X104139Y57751D01*
X104079Y57774D01*
X104074D01*
X104056Y57783D01*
X104023Y57793D01*
X104000Y57802D01*
X103972Y57806D01*
X103940Y57816D01*
X103903Y57830D01*
X103861Y57839D01*
X103815Y57853D01*
X103759Y57867D01*
X103699Y57880D01*
X103635Y57899D01*
X103560Y57917D01*
X103556D01*
X103537Y57922D01*
X103510Y57931D01*
X103477Y57941D01*
X103436Y57954D01*
X103385Y57968D01*
X103334Y57987D01*
X103274Y58005D01*
X103153Y58052D01*
X103038Y58107D01*
X102977Y58135D01*
X102926Y58167D01*
X102876Y58200D01*
X102834Y58232D01*
X102829Y58237D01*
X102820Y58246D01*
X102806Y58260D01*
X102788Y58278D01*
X102764Y58306D01*
X102741Y58339D01*
X102714Y58371D01*
X102690Y58413D01*
X102635Y58510D01*
X102589Y58621D01*
X102570Y58681D01*
X102556Y58741D01*
X102547Y58811D01*
X102542Y58880D01*
Y58885D01*
Y58889D01*
Y58903D01*
Y58922D01*
X102552Y58968D01*
X102561Y59028D01*
X102575Y59098D01*
X102598Y59176D01*
X102630Y59260D01*
X102677Y59338D01*
Y59343D01*
X102681Y59347D01*
X102704Y59375D01*
X102732Y59412D01*
X102778Y59459D01*
X102834Y59509D01*
X102903Y59565D01*
X102982Y59616D01*
X103075Y59662D01*
X103079D01*
X103088Y59667D01*
X103102Y59671D01*
X103121Y59681D01*
X103149Y59690D01*
X103176Y59699D01*
X103213Y59708D01*
X103255Y59722D01*
X103348Y59741D01*
X103454Y59759D01*
X103574Y59773D01*
X103709Y59778D01*
X103764D01*
X103806Y59773D01*
D02*
G37*
G36*
X106920Y58885D02*
X106953Y58880D01*
X106994Y58871D01*
X107041Y58862D01*
X107087Y58848D01*
X107142Y58834D01*
X107193Y58811D01*
X107254Y58788D01*
X107309Y58755D01*
X107369Y58718D01*
X107425Y58676D01*
X107480Y58626D01*
X107536Y58570D01*
X107540Y58565D01*
X107550Y58556D01*
X107564Y58538D01*
X107582Y58510D01*
X107601Y58482D01*
X107624Y58440D01*
X107652Y58394D01*
X107679Y58343D01*
X107702Y58283D01*
X107730Y58218D01*
X107753Y58144D01*
X107776Y58066D01*
X107790Y57978D01*
X107804Y57890D01*
X107814Y57788D01*
X107818Y57686D01*
Y57681D01*
Y57663D01*
Y57631D01*
X107814Y57589D01*
X107809Y57543D01*
X107804Y57487D01*
X107795Y57422D01*
X107781Y57357D01*
X107749Y57209D01*
X107726Y57135D01*
X107698Y57061D01*
X107665Y56987D01*
X107624Y56918D01*
X107582Y56848D01*
X107531Y56784D01*
X107527Y56779D01*
X107517Y56770D01*
X107503Y56756D01*
X107480Y56733D01*
X107453Y56710D01*
X107420Y56682D01*
X107383Y56654D01*
X107341Y56626D01*
X107291Y56594D01*
X107240Y56566D01*
X107124Y56515D01*
X107059Y56492D01*
X106990Y56478D01*
X106920Y56469D01*
X106846Y56464D01*
X106814D01*
X106777Y56469D01*
X106731Y56474D01*
X106675Y56483D01*
X106615Y56497D01*
X106555Y56515D01*
X106495Y56538D01*
X106490Y56543D01*
X106467Y56552D01*
X106439Y56575D01*
X106397Y56603D01*
X106346Y56636D01*
X106296Y56682D01*
X106235Y56737D01*
X106171Y56802D01*
Y55627D01*
X105555D01*
Y58838D01*
X106129D01*
Y58496D01*
X106134Y58505D01*
X106147Y58524D01*
X106175Y58556D01*
X106208Y58598D01*
X106249Y58644D01*
X106305Y58690D01*
X106360Y58737D01*
X106430Y58778D01*
X106439Y58783D01*
X106462Y58797D01*
X106504Y58815D01*
X106555Y58834D01*
X106615Y58852D01*
X106689Y58871D01*
X106768Y58885D01*
X106851Y58889D01*
X106888D01*
X106920Y58885D01*
D02*
G37*
G36*
X101251D02*
X101302Y58880D01*
X101358Y58871D01*
X101418Y58857D01*
X101483Y58838D01*
X101547Y58815D01*
X101557Y58811D01*
X101575Y58801D01*
X101608Y58788D01*
X101645Y58764D01*
X101686Y58737D01*
X101728Y58704D01*
X101770Y58667D01*
X101807Y58626D01*
X101811Y58621D01*
X101820Y58607D01*
X101834Y58584D01*
X101853Y58551D01*
X101876Y58514D01*
X101894Y58468D01*
X101913Y58422D01*
X101927Y58366D01*
Y58362D01*
X101931Y58339D01*
X101941Y58306D01*
X101945Y58260D01*
X101955Y58204D01*
X101959Y58130D01*
X101964Y58052D01*
Y57954D01*
Y56515D01*
X101348D01*
Y57695D01*
Y57700D01*
Y57714D01*
Y57732D01*
Y57755D01*
Y57788D01*
Y57820D01*
X101344Y57899D01*
X101339Y57978D01*
X101330Y58061D01*
X101321Y58130D01*
X101316Y58158D01*
X101307Y58181D01*
Y58186D01*
X101297Y58200D01*
X101288Y58218D01*
X101274Y58246D01*
X101233Y58302D01*
X101210Y58329D01*
X101177Y58352D01*
X101173Y58357D01*
X101163Y58362D01*
X101145Y58371D01*
X101117Y58385D01*
X101085Y58399D01*
X101052Y58408D01*
X101011Y58413D01*
X100964Y58417D01*
X100936D01*
X100909Y58413D01*
X100872Y58408D01*
X100825Y58394D01*
X100779Y58380D01*
X100728Y58357D01*
X100677Y58329D01*
X100673Y58325D01*
X100659Y58315D01*
X100636Y58292D01*
X100608Y58269D01*
X100580Y58232D01*
X100552Y58195D01*
X100525Y58144D01*
X100506Y58093D01*
Y58089D01*
X100497Y58066D01*
X100492Y58029D01*
X100483Y57973D01*
X100478Y57941D01*
X100474Y57899D01*
X100469Y57857D01*
Y57806D01*
X100464Y57755D01*
X100460Y57695D01*
Y57631D01*
Y57561D01*
Y56515D01*
X99844D01*
Y58838D01*
X100414D01*
Y58496D01*
X100418Y58501D01*
X100427Y58514D01*
X100446Y58533D01*
X100469Y58556D01*
X100497Y58589D01*
X100534Y58621D01*
X100576Y58658D01*
X100622Y58695D01*
X100673Y58727D01*
X100733Y58764D01*
X100793Y58797D01*
X100862Y58829D01*
X100936Y58852D01*
X101011Y58871D01*
X101094Y58885D01*
X101177Y58889D01*
X101210D01*
X101251Y58885D01*
D02*
G37*
G36*
X111409Y56515D02*
X110794D01*
Y57131D01*
X111409D01*
Y56515D01*
D02*
G37*
G36*
X92634Y59773D02*
X92680D01*
X92741Y59764D01*
X92810Y59755D01*
X92889Y59741D01*
X92972Y59722D01*
X93060Y59699D01*
X93152Y59671D01*
X93245Y59634D01*
X93342Y59593D01*
X93435Y59542D01*
X93527Y59482D01*
X93615Y59412D01*
X93698Y59334D01*
X93703Y59329D01*
X93717Y59315D01*
X93740Y59287D01*
X93763Y59255D01*
X93796Y59209D01*
X93833Y59153D01*
X93870Y59088D01*
X93911Y59014D01*
X93953Y58936D01*
X93990Y58843D01*
X94027Y58741D01*
X94059Y58635D01*
X94087Y58514D01*
X94106Y58390D01*
X94120Y58255D01*
X94124Y58112D01*
Y58103D01*
Y58079D01*
X94120Y58038D01*
Y57982D01*
X94110Y57917D01*
X94101Y57843D01*
X94087Y57755D01*
X94073Y57668D01*
X94050Y57570D01*
X94022Y57469D01*
X93985Y57367D01*
X93944Y57265D01*
X93897Y57168D01*
X93837Y57071D01*
X93773Y56978D01*
X93698Y56890D01*
X93694Y56885D01*
X93680Y56872D01*
X93657Y56848D01*
X93620Y56821D01*
X93578Y56788D01*
X93527Y56751D01*
X93467Y56714D01*
X93402Y56673D01*
X93324Y56631D01*
X93240Y56594D01*
X93148Y56557D01*
X93046Y56524D01*
X92939Y56497D01*
X92824Y56474D01*
X92703Y56460D01*
X92574Y56455D01*
X92542D01*
X92504Y56460D01*
X92458Y56464D01*
X92398Y56469D01*
X92329Y56478D01*
X92250Y56492D01*
X92167Y56511D01*
X92074Y56534D01*
X91986Y56562D01*
X91889Y56599D01*
X91796Y56640D01*
X91699Y56686D01*
X91611Y56747D01*
X91523Y56811D01*
X91440Y56890D01*
X91435Y56895D01*
X91422Y56909D01*
X91403Y56936D01*
X91375Y56969D01*
X91343Y57015D01*
X91306Y57071D01*
X91269Y57131D01*
X91232Y57205D01*
X91190Y57283D01*
X91153Y57376D01*
X91116Y57473D01*
X91084Y57580D01*
X91056Y57695D01*
X91037Y57820D01*
X91024Y57954D01*
X91019Y58093D01*
Y58098D01*
Y58116D01*
Y58140D01*
X91024Y58177D01*
Y58218D01*
X91028Y58265D01*
X91033Y58320D01*
X91037Y58380D01*
X91056Y58510D01*
X91079Y58649D01*
X91116Y58788D01*
X91162Y58917D01*
Y58922D01*
X91167Y58926D01*
X91176Y58940D01*
X91181Y58959D01*
X91209Y59005D01*
X91241Y59065D01*
X91283Y59135D01*
X91334Y59204D01*
X91394Y59283D01*
X91459Y59357D01*
X91463Y59361D01*
X91468Y59366D01*
X91491Y59389D01*
X91533Y59426D01*
X91584Y59468D01*
X91644Y59514D01*
X91713Y59565D01*
X91792Y59611D01*
X91875Y59648D01*
X91880D01*
X91889Y59653D01*
X91907Y59662D01*
X91931Y59667D01*
X91958Y59681D01*
X91991Y59690D01*
X92032Y59699D01*
X92074Y59713D01*
X92176Y59736D01*
X92292Y59759D01*
X92426Y59773D01*
X92565Y59778D01*
X92597D01*
X92634Y59773D01*
D02*
G37*
G36*
X33080Y80900D02*
X32801D01*
X32342Y82181D01*
X32621D01*
X32947Y81233D01*
X33260Y82181D01*
X33536D01*
X33080Y80900D01*
D02*
G37*
G36*
X32230Y81935D02*
X31766D01*
X31727Y81717D01*
X31729D01*
X31731Y81718D01*
X31742Y81724D01*
X31758Y81730D01*
X31779Y81739D01*
X31805Y81746D01*
X31832Y81752D01*
X31864Y81757D01*
X31895Y81759D01*
X31912D01*
X31923Y81757D01*
X31936Y81755D01*
X31953Y81754D01*
X31971Y81750D01*
X31992Y81744D01*
X32034Y81730D01*
X32058Y81720D01*
X32080Y81709D01*
X32105Y81694D01*
X32129Y81678D01*
X32151Y81659D01*
X32173Y81639D01*
X32175Y81637D01*
X32179Y81633D01*
X32184Y81626D01*
X32192Y81617D01*
X32199Y81605D01*
X32210Y81591D01*
X32219Y81574D01*
X32230Y81555D01*
X32242Y81535D01*
X32251Y81511D01*
X32262Y81485D01*
X32269Y81459D01*
X32277Y81430D01*
X32282Y81398D01*
X32286Y81365D01*
X32288Y81330D01*
Y81328D01*
Y81322D01*
Y81315D01*
X32286Y81304D01*
Y81289D01*
X32282Y81272D01*
X32280Y81254D01*
X32277Y81235D01*
X32266Y81191D01*
X32249Y81143D01*
X32238Y81117D01*
X32227Y81093D01*
X32212Y81068D01*
X32195Y81044D01*
X32193Y81043D01*
X32190Y81037D01*
X32182Y81030D01*
X32173Y81019D01*
X32160Y81006D01*
X32143Y80991D01*
X32125Y80976D01*
X32105Y80961D01*
X32080Y80944D01*
X32055Y80930D01*
X32027Y80915D01*
X31995Y80902D01*
X31962Y80891D01*
X31927Y80883D01*
X31888Y80878D01*
X31847Y80876D01*
X31831D01*
X31818Y80878D01*
X31803Y80880D01*
X31784Y80881D01*
X31766Y80883D01*
X31743Y80887D01*
X31699Y80898D01*
X31649Y80917D01*
X31625Y80926D01*
X31601Y80939D01*
X31579Y80954D01*
X31556Y80970D01*
X31555Y80972D01*
X31551Y80974D01*
X31545Y80980D01*
X31538Y80987D01*
X31531Y80998D01*
X31519Y81009D01*
X31510Y81022D01*
X31499Y81037D01*
X31486Y81056D01*
X31475Y81074D01*
X31455Y81118D01*
X31436Y81168D01*
X31431Y81196D01*
X31425Y81226D01*
X31669Y81252D01*
Y81248D01*
X31671Y81239D01*
X31675Y81222D01*
X31681Y81204D01*
X31688Y81183D01*
X31699Y81161D01*
X31714Y81141D01*
X31731Y81120D01*
X31732Y81118D01*
X31740Y81113D01*
X31751Y81106D01*
X31766Y81096D01*
X31782Y81087D01*
X31803Y81080D01*
X31827Y81074D01*
X31851Y81072D01*
X31855D01*
X31864Y81074D01*
X31879Y81076D01*
X31897Y81080D01*
X31918Y81087D01*
X31940Y81098D01*
X31962Y81115D01*
X31982Y81135D01*
X31984Y81139D01*
X31992Y81146D01*
X31999Y81161D01*
X32010Y81183D01*
X32019Y81209D01*
X32029Y81241D01*
X32034Y81280D01*
X32036Y81324D01*
Y81326D01*
Y81330D01*
Y81335D01*
Y81344D01*
X32034Y81365D01*
X32029Y81391D01*
X32023Y81420D01*
X32014Y81450D01*
X32001Y81478D01*
X31982Y81502D01*
X31980Y81504D01*
X31973Y81511D01*
X31960Y81520D01*
X31945Y81533D01*
X31925Y81544D01*
X31901Y81554D01*
X31873Y81561D01*
X31843Y81563D01*
X31832D01*
X31825Y81561D01*
X31806Y81557D01*
X31781Y81552D01*
X31751Y81541D01*
X31719Y81524D01*
X31703Y81513D01*
X31686Y81500D01*
X31669Y81485D01*
X31653Y81468D01*
X31455Y81496D01*
X31581Y82165D01*
X32230D01*
Y81935D01*
D02*
G37*
G36*
X98331Y58885D02*
X98373Y58880D01*
X98424Y58871D01*
X98479Y58862D01*
X98539Y58848D01*
X98604Y58829D01*
X98669Y58806D01*
X98738Y58778D01*
X98808Y58741D01*
X98872Y58704D01*
X98937Y58658D01*
X99002Y58602D01*
X99058Y58542D01*
X99062Y58538D01*
X99071Y58528D01*
X99085Y58505D01*
X99104Y58477D01*
X99127Y58440D01*
X99150Y58399D01*
X99178Y58343D01*
X99206Y58283D01*
X99233Y58214D01*
X99261Y58135D01*
X99284Y58052D01*
X99307Y57954D01*
X99326Y57853D01*
X99340Y57742D01*
X99349Y57626D01*
Y57496D01*
X97813D01*
Y57492D01*
Y57482D01*
Y57469D01*
X97817Y57450D01*
X97822Y57404D01*
X97831Y57339D01*
X97850Y57274D01*
X97877Y57200D01*
X97910Y57131D01*
X97956Y57071D01*
X97961Y57066D01*
X97984Y57047D01*
X98012Y57024D01*
X98053Y56997D01*
X98104Y56969D01*
X98169Y56946D01*
X98238Y56927D01*
X98312Y56922D01*
X98336D01*
X98363Y56927D01*
X98396Y56932D01*
X98433Y56941D01*
X98474Y56955D01*
X98516Y56973D01*
X98553Y57001D01*
X98558Y57006D01*
X98572Y57015D01*
X98590Y57034D01*
X98609Y57061D01*
X98636Y57098D01*
X98660Y57140D01*
X98683Y57196D01*
X98706Y57256D01*
X99317Y57154D01*
Y57149D01*
X99312Y57140D01*
X99303Y57121D01*
X99294Y57098D01*
X99280Y57071D01*
X99266Y57038D01*
X99224Y56964D01*
X99173Y56881D01*
X99108Y56793D01*
X99030Y56714D01*
X98942Y56640D01*
X98937D01*
X98933Y56631D01*
X98914Y56626D01*
X98896Y56612D01*
X98872Y56599D01*
X98840Y56585D01*
X98808Y56571D01*
X98766Y56552D01*
X98673Y56520D01*
X98567Y56492D01*
X98442Y56474D01*
X98308Y56464D01*
X98280D01*
X98252Y56469D01*
X98211D01*
X98160Y56478D01*
X98100Y56487D01*
X98035Y56497D01*
X97970Y56515D01*
X97896Y56534D01*
X97822Y56562D01*
X97748Y56594D01*
X97674Y56631D01*
X97600Y56677D01*
X97530Y56728D01*
X97470Y56788D01*
X97410Y56858D01*
X97405Y56862D01*
X97401Y56872D01*
X97392Y56890D01*
X97373Y56913D01*
X97359Y56946D01*
X97341Y56983D01*
X97317Y57024D01*
X97299Y57075D01*
X97276Y57131D01*
X97257Y57191D01*
X97234Y57256D01*
X97220Y57330D01*
X97206Y57404D01*
X97193Y57482D01*
X97188Y57570D01*
X97183Y57658D01*
Y57663D01*
Y57681D01*
Y57714D01*
X97188Y57755D01*
X97193Y57802D01*
X97197Y57857D01*
X97206Y57917D01*
X97220Y57987D01*
X97257Y58130D01*
X97280Y58204D01*
X97308Y58283D01*
X97345Y58357D01*
X97387Y58427D01*
X97433Y58496D01*
X97484Y58561D01*
X97489Y58565D01*
X97498Y58575D01*
X97516Y58593D01*
X97540Y58612D01*
X97567Y58635D01*
X97604Y58663D01*
X97646Y58695D01*
X97692Y58727D01*
X97743Y58755D01*
X97803Y58788D01*
X97864Y58815D01*
X97933Y58838D01*
X98002Y58857D01*
X98081Y58875D01*
X98160Y58885D01*
X98243Y58889D01*
X98294D01*
X98331Y58885D01*
D02*
G37*
G36*
X109313D02*
X109350D01*
X109443Y58875D01*
X109540Y58866D01*
X109642Y58848D01*
X109739Y58820D01*
X109780Y58806D01*
X109822Y58788D01*
X109827D01*
X109831Y58783D01*
X109854Y58769D01*
X109891Y58750D01*
X109933Y58723D01*
X109984Y58686D01*
X110030Y58644D01*
X110072Y58593D01*
X110109Y58542D01*
X110114Y58533D01*
X110123Y58514D01*
X110137Y58473D01*
X110141Y58450D01*
X110151Y58417D01*
X110160Y58385D01*
X110164Y58343D01*
X110174Y58297D01*
X110178Y58246D01*
X110183Y58191D01*
X110188Y58130D01*
X110192Y58066D01*
Y57992D01*
X110183Y57274D01*
Y57270D01*
Y57260D01*
Y57246D01*
Y57223D01*
Y57168D01*
X110188Y57103D01*
Y57029D01*
X110197Y56955D01*
X110201Y56881D01*
X110211Y56821D01*
Y56816D01*
X110215Y56798D01*
X110225Y56765D01*
X110234Y56728D01*
X110252Y56682D01*
X110271Y56631D01*
X110294Y56575D01*
X110322Y56515D01*
X109716D01*
Y56520D01*
X109711Y56524D01*
X109706Y56543D01*
X109697Y56562D01*
X109688Y56585D01*
X109679Y56617D01*
X109669Y56654D01*
X109655Y56696D01*
Y56700D01*
X109651Y56705D01*
X109646Y56723D01*
X109637Y56747D01*
X109632Y56765D01*
X109623Y56761D01*
X109604Y56742D01*
X109572Y56714D01*
X109530Y56682D01*
X109480Y56645D01*
X109424Y56603D01*
X109359Y56571D01*
X109294Y56538D01*
X109285Y56534D01*
X109262Y56529D01*
X109225Y56515D01*
X109179Y56501D01*
X109123Y56487D01*
X109058Y56478D01*
X108984Y56469D01*
X108910Y56464D01*
X108878D01*
X108850Y56469D01*
X108822D01*
X108785Y56474D01*
X108707Y56487D01*
X108614Y56511D01*
X108522Y56543D01*
X108429Y56589D01*
X108346Y56654D01*
Y56659D01*
X108336Y56663D01*
X108313Y56691D01*
X108281Y56733D01*
X108244Y56788D01*
X108207Y56858D01*
X108174Y56941D01*
X108151Y57038D01*
X108147Y57089D01*
X108142Y57145D01*
Y57154D01*
Y57177D01*
X108147Y57214D01*
X108156Y57260D01*
X108165Y57316D01*
X108179Y57371D01*
X108202Y57432D01*
X108235Y57492D01*
X108239Y57501D01*
X108253Y57519D01*
X108272Y57547D01*
X108304Y57580D01*
X108336Y57617D01*
X108383Y57658D01*
X108434Y57695D01*
X108494Y57728D01*
X108503Y57732D01*
X108526Y57742D01*
X108563Y57755D01*
X108619Y57779D01*
X108688Y57802D01*
X108771Y57825D01*
X108873Y57848D01*
X108984Y57871D01*
X108989D01*
X109003Y57876D01*
X109026Y57880D01*
X109054Y57885D01*
X109091Y57890D01*
X109132Y57899D01*
X109225Y57922D01*
X109322Y57945D01*
X109424Y57968D01*
X109512Y57996D01*
X109554Y58010D01*
X109586Y58024D01*
Y58084D01*
Y58093D01*
Y58112D01*
X109581Y58144D01*
X109577Y58186D01*
X109563Y58228D01*
X109549Y58269D01*
X109526Y58306D01*
X109493Y58339D01*
X109489Y58343D01*
X109475Y58352D01*
X109452Y58362D01*
X109419Y58380D01*
X109373Y58394D01*
X109318Y58403D01*
X109248Y58413D01*
X109165Y58417D01*
X109137D01*
X109109Y58413D01*
X109072Y58408D01*
X109031Y58399D01*
X108984Y58390D01*
X108943Y58371D01*
X108906Y58348D01*
X108901Y58343D01*
X108892Y58334D01*
X108873Y58320D01*
X108855Y58297D01*
X108827Y58265D01*
X108804Y58223D01*
X108781Y58177D01*
X108758Y58121D01*
X108207Y58223D01*
Y58228D01*
X108212Y58237D01*
X108216Y58255D01*
X108225Y58278D01*
X108235Y58306D01*
X108249Y58339D01*
X108281Y58413D01*
X108327Y58491D01*
X108383Y58575D01*
X108448Y58653D01*
X108526Y58723D01*
X108531D01*
X108535Y58732D01*
X108549Y58737D01*
X108568Y58750D01*
X108596Y58760D01*
X108623Y58774D01*
X108660Y58792D01*
X108697Y58806D01*
X108744Y58820D01*
X108795Y58838D01*
X108850Y58852D01*
X108915Y58862D01*
X108980Y58875D01*
X109054Y58880D01*
X109128Y58889D01*
X109281D01*
X109313Y58885D01*
D02*
G37*
G36*
X115746D02*
X115787Y58880D01*
X115838Y58871D01*
X115894Y58862D01*
X115954Y58848D01*
X116019Y58829D01*
X116084Y58806D01*
X116153Y58778D01*
X116222Y58741D01*
X116287Y58704D01*
X116352Y58658D01*
X116417Y58602D01*
X116472Y58542D01*
X116477Y58538D01*
X116486Y58528D01*
X116500Y58505D01*
X116519Y58477D01*
X116542Y58440D01*
X116565Y58399D01*
X116593Y58343D01*
X116620Y58283D01*
X116648Y58214D01*
X116676Y58135D01*
X116699Y58052D01*
X116722Y57954D01*
X116741Y57853D01*
X116755Y57742D01*
X116764Y57626D01*
Y57496D01*
X115227D01*
Y57492D01*
Y57482D01*
Y57469D01*
X115232Y57450D01*
X115237Y57404D01*
X115246Y57339D01*
X115264Y57274D01*
X115292Y57200D01*
X115325Y57131D01*
X115371Y57071D01*
X115375Y57066D01*
X115399Y57047D01*
X115426Y57024D01*
X115468Y56997D01*
X115519Y56969D01*
X115584Y56946D01*
X115653Y56927D01*
X115727Y56922D01*
X115750D01*
X115778Y56927D01*
X115810Y56932D01*
X115848Y56941D01*
X115889Y56955D01*
X115931Y56973D01*
X115968Y57001D01*
X115972Y57006D01*
X115986Y57015D01*
X116005Y57034D01*
X116023Y57061D01*
X116051Y57098D01*
X116074Y57140D01*
X116097Y57196D01*
X116121Y57256D01*
X116731Y57154D01*
Y57149D01*
X116727Y57140D01*
X116718Y57121D01*
X116708Y57098D01*
X116694Y57071D01*
X116681Y57038D01*
X116639Y56964D01*
X116588Y56881D01*
X116523Y56793D01*
X116445Y56714D01*
X116357Y56640D01*
X116352D01*
X116347Y56631D01*
X116329Y56626D01*
X116310Y56612D01*
X116287Y56599D01*
X116255Y56585D01*
X116222Y56571D01*
X116181Y56552D01*
X116088Y56520D01*
X115982Y56492D01*
X115857Y56474D01*
X115723Y56464D01*
X115695D01*
X115667Y56469D01*
X115625D01*
X115574Y56478D01*
X115514Y56487D01*
X115450Y56497D01*
X115385Y56515D01*
X115311Y56534D01*
X115237Y56562D01*
X115163Y56594D01*
X115089Y56631D01*
X115014Y56677D01*
X114945Y56728D01*
X114885Y56788D01*
X114825Y56858D01*
X114820Y56862D01*
X114815Y56872D01*
X114806Y56890D01*
X114788Y56913D01*
X114774Y56946D01*
X114755Y56983D01*
X114732Y57024D01*
X114714Y57075D01*
X114691Y57131D01*
X114672Y57191D01*
X114649Y57256D01*
X114635Y57330D01*
X114621Y57404D01*
X114607Y57482D01*
X114603Y57570D01*
X114598Y57658D01*
Y57663D01*
Y57681D01*
Y57714D01*
X114603Y57755D01*
X114607Y57802D01*
X114612Y57857D01*
X114621Y57917D01*
X114635Y57987D01*
X114672Y58130D01*
X114695Y58204D01*
X114723Y58283D01*
X114760Y58357D01*
X114802Y58427D01*
X114848Y58496D01*
X114899Y58561D01*
X114903Y58565D01*
X114913Y58575D01*
X114931Y58593D01*
X114954Y58612D01*
X114982Y58635D01*
X115019Y58663D01*
X115061Y58695D01*
X115107Y58727D01*
X115158Y58755D01*
X115218Y58788D01*
X115278Y58815D01*
X115348Y58838D01*
X115417Y58857D01*
X115496Y58875D01*
X115574Y58885D01*
X115658Y58889D01*
X115709D01*
X115746Y58885D01*
D02*
G37*
G36*
X112631Y58565D02*
X112636Y58570D01*
X112645Y58579D01*
X112659Y58593D01*
X112682Y58616D01*
X112710Y58639D01*
X112742Y58667D01*
X112779Y58700D01*
X112821Y58727D01*
X112918Y58788D01*
X113034Y58838D01*
X113094Y58862D01*
X113163Y58875D01*
X113233Y58885D01*
X113302Y58889D01*
X113344D01*
X113372Y58885D01*
X113409Y58880D01*
X113450Y58871D01*
X113497Y58862D01*
X113552Y58852D01*
X113663Y58815D01*
X113719Y58788D01*
X113779Y58760D01*
X113839Y58723D01*
X113895Y58681D01*
X113950Y58635D01*
X114006Y58579D01*
X114010Y58575D01*
X114020Y58565D01*
X114033Y58547D01*
X114052Y58524D01*
X114070Y58491D01*
X114094Y58454D01*
X114121Y58408D01*
X114149Y58357D01*
X114172Y58297D01*
X114200Y58232D01*
X114223Y58158D01*
X114246Y58079D01*
X114260Y57996D01*
X114274Y57904D01*
X114283Y57806D01*
X114288Y57700D01*
Y57695D01*
Y57672D01*
Y57644D01*
X114283Y57603D01*
X114279Y57552D01*
X114274Y57496D01*
X114265Y57432D01*
X114251Y57362D01*
X114218Y57214D01*
X114195Y57140D01*
X114168Y57061D01*
X114135Y56987D01*
X114094Y56913D01*
X114052Y56848D01*
X114001Y56784D01*
X113996Y56779D01*
X113987Y56770D01*
X113973Y56756D01*
X113950Y56733D01*
X113922Y56710D01*
X113890Y56682D01*
X113853Y56654D01*
X113811Y56626D01*
X113760Y56594D01*
X113709Y56566D01*
X113589Y56515D01*
X113524Y56492D01*
X113460Y56478D01*
X113385Y56469D01*
X113311Y56464D01*
X113279D01*
X113237Y56469D01*
X113186Y56478D01*
X113126Y56487D01*
X113062Y56506D01*
X112992Y56529D01*
X112918Y56562D01*
X112909Y56566D01*
X112886Y56580D01*
X112849Y56603D01*
X112802Y56636D01*
X112751Y56677D01*
X112696Y56723D01*
X112640Y56784D01*
X112585Y56853D01*
Y56515D01*
X112016D01*
Y59718D01*
X112631D01*
Y58565D01*
D02*
G37*
G36*
X114697Y71804D02*
X114715D01*
X114739Y71800D01*
X114767Y71796D01*
X114798Y71791D01*
X114832Y71783D01*
X114867Y71774D01*
X114904Y71763D01*
X114941Y71748D01*
X114980Y71731D01*
X115017Y71711D01*
X115054Y71687D01*
X115089Y71659D01*
X115123Y71628D01*
X115124Y71626D01*
X115130Y71620D01*
X115139Y71609D01*
X115148Y71596D01*
X115161Y71578D01*
X115176Y71555D01*
X115191Y71530D01*
X115208Y71500D01*
X115224Y71468D01*
X115239Y71431D01*
X115254Y71391D01*
X115267Y71348D01*
X115278Y71300D01*
X115285Y71250D01*
X115291Y71196D01*
X115293Y71139D01*
Y71135D01*
Y71126D01*
X115291Y71109D01*
Y71087D01*
X115287Y71061D01*
X115284Y71031D01*
X115278Y70996D01*
X115273Y70961D01*
X115263Y70922D01*
X115252Y70881D01*
X115237Y70841D01*
X115221Y70800D01*
X115202Y70761D01*
X115178Y70722D01*
X115152Y70685D01*
X115123Y70650D01*
X115121Y70648D01*
X115115Y70643D01*
X115106Y70633D01*
X115091Y70622D01*
X115074Y70609D01*
X115054Y70594D01*
X115030Y70580D01*
X115004Y70563D01*
X114973Y70546D01*
X114939Y70531D01*
X114902Y70517D01*
X114861Y70504D01*
X114819Y70493D01*
X114773Y70483D01*
X114724Y70478D01*
X114673Y70476D01*
X114660D01*
X114645Y70478D01*
X114626Y70480D01*
X114602Y70481D01*
X114574Y70485D01*
X114543Y70491D01*
X114510Y70498D01*
X114473Y70507D01*
X114437Y70519D01*
X114399Y70533D01*
X114361Y70550D01*
X114323Y70568D01*
X114287Y70593D01*
X114252Y70618D01*
X114219Y70650D01*
X114217Y70652D01*
X114212Y70657D01*
X114204Y70668D01*
X114193Y70681D01*
X114180Y70700D01*
X114165Y70722D01*
X114150Y70746D01*
X114136Y70776D01*
X114119Y70807D01*
X114104Y70844D01*
X114089Y70883D01*
X114076Y70926D01*
X114065Y70972D01*
X114058Y71022D01*
X114052Y71076D01*
X114050Y71131D01*
Y71133D01*
Y71141D01*
Y71150D01*
X114052Y71165D01*
Y71181D01*
X114054Y71200D01*
X114056Y71222D01*
X114058Y71246D01*
X114065Y71298D01*
X114074Y71354D01*
X114089Y71409D01*
X114108Y71461D01*
Y71463D01*
X114110Y71465D01*
X114113Y71470D01*
X114115Y71478D01*
X114126Y71496D01*
X114139Y71520D01*
X114156Y71548D01*
X114176Y71576D01*
X114200Y71607D01*
X114226Y71637D01*
X114228Y71639D01*
X114230Y71641D01*
X114239Y71650D01*
X114256Y71665D01*
X114276Y71681D01*
X114300Y71700D01*
X114328Y71720D01*
X114360Y71739D01*
X114393Y71754D01*
X114395D01*
X114399Y71755D01*
X114406Y71759D01*
X114415Y71761D01*
X114426Y71767D01*
X114439Y71770D01*
X114456Y71774D01*
X114473Y71779D01*
X114513Y71789D01*
X114560Y71798D01*
X114613Y71804D01*
X114669Y71805D01*
X114682D01*
X114697Y71804D01*
D02*
G37*
G36*
X110919Y70243D02*
X110940D01*
X110960Y70241D01*
X110984D01*
X111032Y70236D01*
X111082Y70230D01*
X111129Y70221D01*
X111149Y70216D01*
X111167Y70210D01*
X111169D01*
X111171Y70208D01*
X111182Y70203D01*
X111199Y70193D01*
X111221Y70182D01*
X111245Y70164D01*
X111269Y70143D01*
X111293Y70117D01*
X111316Y70086D01*
Y70084D01*
X111317Y70082D01*
X111321Y70077D01*
X111325Y70071D01*
X111334Y70053D01*
X111345Y70029D01*
X111354Y69999D01*
X111364Y69966D01*
X111371Y69927D01*
X111373Y69886D01*
Y69884D01*
Y69880D01*
Y69871D01*
X111371Y69862D01*
Y69849D01*
X111369Y69836D01*
X111362Y69803D01*
X111353Y69764D01*
X111338Y69725D01*
X111316Y69684D01*
X111303Y69666D01*
X111288Y69647D01*
X111286Y69645D01*
X111284Y69643D01*
X111278Y69638D01*
X111271Y69632D01*
X111264Y69625D01*
X111253Y69616D01*
X111240Y69606D01*
X111225Y69597D01*
X111208Y69586D01*
X111188Y69577D01*
X111167Y69567D01*
X111145Y69558D01*
X111119Y69549D01*
X111093Y69542D01*
X111066Y69534D01*
X111034Y69529D01*
X111036D01*
X111038Y69527D01*
X111049Y69519D01*
X111064Y69510D01*
X111082Y69497D01*
X111104Y69480D01*
X111127Y69464D01*
X111151Y69443D01*
X111171Y69421D01*
X111173Y69419D01*
X111182Y69410D01*
X111193Y69395D01*
X111210Y69373D01*
X111232Y69345D01*
X111243Y69327D01*
X111256Y69308D01*
X111271Y69288D01*
X111286Y69266D01*
X111303Y69240D01*
X111319Y69214D01*
X111477Y68964D01*
X111166D01*
X110980Y69242D01*
X110979Y69243D01*
X110977Y69249D01*
X110971Y69256D01*
X110964Y69266D01*
X110956Y69277D01*
X110947Y69292D01*
X110927Y69321D01*
X110903Y69355D01*
X110880Y69384D01*
X110860Y69412D01*
X110851Y69421D01*
X110843Y69430D01*
X110841Y69432D01*
X110838Y69436D01*
X110830Y69443D01*
X110821Y69453D01*
X110808Y69460D01*
X110795Y69469D01*
X110780Y69477D01*
X110766Y69484D01*
X110764D01*
X110758Y69486D01*
X110749Y69490D01*
X110734Y69492D01*
X110716Y69495D01*
X110693Y69497D01*
X110667Y69499D01*
X110584D01*
Y68964D01*
X110325D01*
Y70245D01*
X110903D01*
X110919Y70243D01*
D02*
G37*
G36*
X112567Y70029D02*
X111877D01*
Y69745D01*
X112519D01*
Y69529D01*
X111877D01*
Y69180D01*
X112591D01*
Y68964D01*
X111617D01*
Y70245D01*
X112567D01*
Y70029D01*
D02*
G37*
G36*
X89639Y71861D02*
X89660D01*
X89680Y71859D01*
X89704D01*
X89752Y71854D01*
X89802Y71848D01*
X89849Y71839D01*
X89869Y71833D01*
X89887Y71828D01*
X89889D01*
X89891Y71826D01*
X89902Y71820D01*
X89919Y71811D01*
X89941Y71800D01*
X89965Y71781D01*
X89989Y71761D01*
X90013Y71735D01*
X90036Y71704D01*
Y71702D01*
X90037Y71700D01*
X90041Y71694D01*
X90045Y71689D01*
X90054Y71670D01*
X90065Y71646D01*
X90074Y71617D01*
X90084Y71583D01*
X90091Y71544D01*
X90093Y71504D01*
Y71502D01*
Y71498D01*
Y71489D01*
X90091Y71480D01*
Y71467D01*
X90089Y71454D01*
X90082Y71420D01*
X90073Y71381D01*
X90058Y71343D01*
X90036Y71302D01*
X90023Y71283D01*
X90008Y71265D01*
X90006Y71263D01*
X90004Y71261D01*
X89998Y71256D01*
X89991Y71250D01*
X89984Y71243D01*
X89973Y71233D01*
X89960Y71224D01*
X89945Y71215D01*
X89928Y71204D01*
X89908Y71194D01*
X89887Y71185D01*
X89865Y71176D01*
X89839Y71167D01*
X89813Y71159D01*
X89786Y71152D01*
X89754Y71146D01*
X89756D01*
X89758Y71144D01*
X89769Y71137D01*
X89784Y71128D01*
X89802Y71115D01*
X89824Y71098D01*
X89847Y71081D01*
X89871Y71061D01*
X89891Y71039D01*
X89893Y71037D01*
X89902Y71028D01*
X89913Y71013D01*
X89930Y70991D01*
X89952Y70963D01*
X89963Y70944D01*
X89976Y70926D01*
X89991Y70906D01*
X90006Y70883D01*
X90023Y70857D01*
X90039Y70832D01*
X90197Y70582D01*
X89886D01*
X89700Y70859D01*
X89699Y70861D01*
X89697Y70867D01*
X89691Y70874D01*
X89684Y70883D01*
X89676Y70894D01*
X89667Y70909D01*
X89647Y70939D01*
X89623Y70972D01*
X89600Y71002D01*
X89580Y71030D01*
X89571Y71039D01*
X89563Y71048D01*
X89561Y71050D01*
X89558Y71054D01*
X89550Y71061D01*
X89541Y71070D01*
X89528Y71078D01*
X89515Y71087D01*
X89500Y71094D01*
X89486Y71102D01*
X89484D01*
X89478Y71104D01*
X89469Y71107D01*
X89454Y71109D01*
X89436Y71113D01*
X89413Y71115D01*
X89387Y71117D01*
X89304D01*
Y70582D01*
X89045D01*
Y71863D01*
X89623D01*
X89639Y71861D01*
D02*
G37*
G36*
X88800Y71646D02*
X88110D01*
Y71363D01*
X88752D01*
Y71146D01*
X88110D01*
Y70798D01*
X88825D01*
Y70582D01*
X87851D01*
Y71863D01*
X88800D01*
Y71646D01*
D02*
G37*
G36*
X114956Y70029D02*
X114265D01*
Y69745D01*
X114908D01*
Y69529D01*
X114265D01*
Y69180D01*
X114980D01*
Y68964D01*
X114006D01*
Y70245D01*
X114956D01*
Y70029D01*
D02*
G37*
G36*
X113297Y70267D02*
X113317Y70266D01*
X113341Y70264D01*
X113365Y70260D01*
X113393Y70256D01*
X113452Y70243D01*
X113482Y70234D01*
X113512Y70225D01*
X113541Y70212D01*
X113569Y70197D01*
X113595Y70180D01*
X113619Y70162D01*
X113621Y70160D01*
X113625Y70156D01*
X113630Y70151D01*
X113637Y70143D01*
X113647Y70132D01*
X113658Y70119D01*
X113669Y70104D01*
X113682Y70088D01*
X113693Y70067D01*
X113704Y70047D01*
X113715Y70023D01*
X113725Y69997D01*
X113734Y69971D01*
X113741Y69941D01*
X113747Y69912D01*
X113749Y69879D01*
X113489Y69869D01*
Y69871D01*
Y69873D01*
X113486Y69886D01*
X113482Y69903D01*
X113475Y69923D01*
X113465Y69947D01*
X113452Y69969D01*
X113436Y69991D01*
X113417Y70010D01*
X113415Y70012D01*
X113408Y70017D01*
X113395Y70025D01*
X113376Y70032D01*
X113354Y70040D01*
X113326Y70047D01*
X113293Y70053D01*
X113254Y70054D01*
X113236D01*
X113215Y70053D01*
X113191Y70049D01*
X113163Y70043D01*
X113134Y70034D01*
X113106Y70023D01*
X113080Y70006D01*
X113078Y70004D01*
X113075Y70001D01*
X113067Y69995D01*
X113060Y69986D01*
X113052Y69975D01*
X113045Y69960D01*
X113041Y69945D01*
X113039Y69927D01*
Y69925D01*
Y69919D01*
X113041Y69910D01*
X113045Y69901D01*
X113049Y69888D01*
X113054Y69875D01*
X113063Y69862D01*
X113076Y69849D01*
X113078Y69847D01*
X113088Y69841D01*
X113093Y69838D01*
X113102Y69834D01*
X113112Y69829D01*
X113125Y69823D01*
X113139Y69817D01*
X113156Y69810D01*
X113176Y69803D01*
X113197Y69795D01*
X113223Y69788D01*
X113251Y69780D01*
X113280Y69773D01*
X113313Y69764D01*
X113315D01*
X113323Y69762D01*
X113332Y69760D01*
X113345Y69756D01*
X113360Y69753D01*
X113378Y69747D01*
X113399Y69742D01*
X113419Y69736D01*
X113463Y69721D01*
X113510Y69706D01*
X113554Y69690D01*
X113573Y69680D01*
X113591Y69671D01*
X113593D01*
X113595Y69669D01*
X113606Y69662D01*
X113623Y69651D01*
X113643Y69636D01*
X113665Y69617D01*
X113689Y69595D01*
X113713Y69569D01*
X113734Y69540D01*
X113736Y69536D01*
X113741Y69525D01*
X113750Y69508D01*
X113760Y69484D01*
X113769Y69455D01*
X113778Y69419D01*
X113784Y69380D01*
X113786Y69336D01*
Y69334D01*
Y69330D01*
Y69325D01*
Y69317D01*
X113784Y69308D01*
X113782Y69295D01*
X113778Y69269D01*
X113771Y69236D01*
X113760Y69201D01*
X113743Y69166D01*
X113723Y69129D01*
Y69127D01*
X113719Y69125D01*
X113712Y69114D01*
X113697Y69095D01*
X113678Y69075D01*
X113654Y69051D01*
X113623Y69029D01*
X113589Y69006D01*
X113549Y68986D01*
X113547D01*
X113543Y68984D01*
X113537Y68982D01*
X113528Y68979D01*
X113517Y68975D01*
X113504Y68971D01*
X113489Y68968D01*
X113473Y68964D01*
X113452Y68958D01*
X113432Y68955D01*
X113384Y68947D01*
X113330Y68942D01*
X113271Y68940D01*
X113247D01*
X113230Y68942D01*
X113210Y68943D01*
X113188Y68945D01*
X113162Y68949D01*
X113134Y68955D01*
X113073Y68968D01*
X113041Y68977D01*
X113012Y68986D01*
X112980Y68999D01*
X112951Y69014D01*
X112923Y69030D01*
X112897Y69051D01*
X112895Y69053D01*
X112891Y69056D01*
X112884Y69062D01*
X112876Y69071D01*
X112865Y69084D01*
X112854Y69099D01*
X112841Y69116D01*
X112828Y69134D01*
X112815Y69156D01*
X112802Y69180D01*
X112789Y69208D01*
X112776Y69238D01*
X112767Y69269D01*
X112756Y69305D01*
X112749Y69342D01*
X112743Y69380D01*
X112995Y69405D01*
Y69403D01*
X112997Y69399D01*
Y69392D01*
X112999Y69384D01*
X113006Y69362D01*
X113015Y69334D01*
X113026Y69303D01*
X113043Y69271D01*
X113062Y69243D01*
X113086Y69217D01*
X113089Y69216D01*
X113099Y69208D01*
X113113Y69199D01*
X113136Y69188D01*
X113163Y69177D01*
X113195Y69168D01*
X113232Y69160D01*
X113275Y69158D01*
X113295D01*
X113317Y69162D01*
X113345Y69166D01*
X113375Y69171D01*
X113406Y69180D01*
X113436Y69193D01*
X113462Y69210D01*
X113465Y69212D01*
X113473Y69219D01*
X113482Y69230D01*
X113495Y69245D01*
X113506Y69264D01*
X113517Y69286D01*
X113525Y69308D01*
X113526Y69334D01*
Y69336D01*
Y69342D01*
X113525Y69351D01*
X113523Y69362D01*
X113519Y69373D01*
X113515Y69386D01*
X113508Y69399D01*
X113499Y69412D01*
X113497Y69414D01*
X113493Y69417D01*
X113488Y69423D01*
X113478Y69430D01*
X113465Y69440D01*
X113449Y69449D01*
X113430Y69458D01*
X113406Y69467D01*
X113404D01*
X113397Y69471D01*
X113384Y69475D01*
X113375Y69479D01*
X113363Y69480D01*
X113350Y69484D01*
X113336Y69490D01*
X113319Y69493D01*
X113300Y69499D01*
X113278Y69505D01*
X113254Y69510D01*
X113228Y69517D01*
X113199Y69525D01*
X113197D01*
X113189Y69527D01*
X113178Y69530D01*
X113165Y69534D01*
X113149Y69540D01*
X113128Y69545D01*
X113108Y69553D01*
X113084Y69560D01*
X113036Y69579D01*
X112989Y69601D01*
X112965Y69612D01*
X112945Y69625D01*
X112925Y69638D01*
X112908Y69651D01*
X112906Y69653D01*
X112902Y69656D01*
X112897Y69662D01*
X112889Y69669D01*
X112880Y69680D01*
X112871Y69693D01*
X112860Y69706D01*
X112851Y69723D01*
X112828Y69762D01*
X112810Y69806D01*
X112802Y69830D01*
X112797Y69854D01*
X112793Y69882D01*
X112791Y69910D01*
Y69912D01*
Y69914D01*
Y69919D01*
Y69927D01*
X112795Y69945D01*
X112799Y69969D01*
X112804Y69997D01*
X112814Y70029D01*
X112826Y70062D01*
X112845Y70093D01*
Y70095D01*
X112847Y70097D01*
X112856Y70108D01*
X112867Y70123D01*
X112886Y70141D01*
X112908Y70162D01*
X112936Y70184D01*
X112967Y70204D01*
X113004Y70223D01*
X113006D01*
X113010Y70225D01*
X113015Y70227D01*
X113023Y70230D01*
X113034Y70234D01*
X113045Y70238D01*
X113060Y70241D01*
X113076Y70247D01*
X113113Y70254D01*
X113156Y70262D01*
X113204Y70267D01*
X113258Y70269D01*
X113280D01*
X113297Y70267D01*
D02*
G37*
G36*
X84057Y76997D02*
X84327Y76885D01*
X84571Y76723D01*
X84778Y76516D01*
X84940Y76272D01*
X85052Y76002D01*
X85109Y75714D01*
Y75568D01*
Y75422D01*
X85052Y75134D01*
X84940Y74864D01*
X84778Y74620D01*
X84571Y74413D01*
X84327Y74251D01*
X84057Y74139D01*
X83769Y74081D01*
X83477D01*
X83189Y74139D01*
X82919Y74251D01*
X82675Y74413D01*
X82468Y74620D01*
X82306Y74864D01*
X82194Y75134D01*
X82136Y75422D01*
Y75568D01*
Y75714D01*
X82194Y76002D01*
X82306Y76272D01*
X82468Y76516D01*
X82675Y76723D01*
X82919Y76885D01*
X83189Y76997D01*
X83477Y77054D01*
X83769D01*
X84057Y76997D01*
D02*
G37*
G36*
X116126Y70029D02*
X115748D01*
Y68964D01*
X115489D01*
Y70029D01*
X115110D01*
Y70245D01*
X116126D01*
Y70029D01*
D02*
G37*
G36*
X92222Y71885D02*
X92241D01*
X92265Y71881D01*
X92293Y71878D01*
X92324Y71872D01*
X92357Y71865D01*
X92393Y71855D01*
X92430Y71844D01*
X92467Y71830D01*
X92506Y71813D01*
X92543Y71793D01*
X92580Y71768D01*
X92615Y71741D01*
X92648Y71709D01*
X92650Y71707D01*
X92656Y71702D01*
X92665Y71691D01*
X92674Y71678D01*
X92687Y71659D01*
X92702Y71637D01*
X92717Y71611D01*
X92733Y71581D01*
X92750Y71550D01*
X92765Y71513D01*
X92780Y71472D01*
X92793Y71430D01*
X92804Y71381D01*
X92811Y71331D01*
X92817Y71278D01*
X92819Y71220D01*
Y71217D01*
Y71207D01*
X92817Y71191D01*
Y71169D01*
X92813Y71143D01*
X92809Y71113D01*
X92804Y71078D01*
X92798Y71043D01*
X92789Y71004D01*
X92778Y70963D01*
X92763Y70922D01*
X92746Y70882D01*
X92728Y70843D01*
X92704Y70804D01*
X92678Y70767D01*
X92648Y70732D01*
X92646Y70730D01*
X92641Y70724D01*
X92632Y70715D01*
X92617Y70704D01*
X92600Y70691D01*
X92580Y70676D01*
X92556Y70661D01*
X92530Y70645D01*
X92498Y70628D01*
X92465Y70613D01*
X92428Y70598D01*
X92387Y70585D01*
X92345Y70574D01*
X92298Y70565D01*
X92250Y70559D01*
X92198Y70557D01*
X92185D01*
X92170Y70559D01*
X92152Y70561D01*
X92128Y70563D01*
X92100Y70567D01*
X92069Y70572D01*
X92035Y70580D01*
X91998Y70589D01*
X91963Y70600D01*
X91924Y70615D01*
X91887Y70632D01*
X91848Y70650D01*
X91813Y70674D01*
X91778Y70700D01*
X91745Y70732D01*
X91743Y70733D01*
X91737Y70739D01*
X91730Y70750D01*
X91719Y70763D01*
X91706Y70782D01*
X91691Y70804D01*
X91676Y70828D01*
X91661Y70857D01*
X91645Y70889D01*
X91630Y70926D01*
X91615Y70965D01*
X91602Y71007D01*
X91591Y71054D01*
X91584Y71104D01*
X91578Y71157D01*
X91576Y71213D01*
Y71215D01*
Y71222D01*
Y71231D01*
X91578Y71246D01*
Y71263D01*
X91580Y71281D01*
X91582Y71304D01*
X91584Y71328D01*
X91591Y71380D01*
X91600Y71435D01*
X91615Y71491D01*
X91633Y71543D01*
Y71544D01*
X91635Y71546D01*
X91639Y71552D01*
X91641Y71559D01*
X91652Y71578D01*
X91665Y71602D01*
X91682Y71630D01*
X91702Y71657D01*
X91726Y71689D01*
X91752Y71718D01*
X91754Y71720D01*
X91756Y71722D01*
X91765Y71731D01*
X91782Y71746D01*
X91802Y71763D01*
X91826Y71781D01*
X91854Y71802D01*
X91885Y71820D01*
X91919Y71835D01*
X91921D01*
X91924Y71837D01*
X91932Y71841D01*
X91941Y71843D01*
X91952Y71848D01*
X91965Y71852D01*
X91982Y71855D01*
X91998Y71861D01*
X92039Y71870D01*
X92085Y71880D01*
X92139Y71885D01*
X92195Y71887D01*
X92208D01*
X92222Y71885D01*
D02*
G37*
G36*
X90932Y71861D02*
X90952D01*
X90972Y71859D01*
X90997D01*
X91045Y71854D01*
X91095Y71848D01*
X91141Y71839D01*
X91161Y71833D01*
X91180Y71828D01*
X91182D01*
X91184Y71826D01*
X91195Y71820D01*
X91211Y71811D01*
X91234Y71800D01*
X91258Y71781D01*
X91282Y71761D01*
X91306Y71735D01*
X91328Y71704D01*
Y71702D01*
X91330Y71700D01*
X91334Y71694D01*
X91337Y71689D01*
X91346Y71670D01*
X91358Y71646D01*
X91367Y71617D01*
X91376Y71583D01*
X91384Y71544D01*
X91385Y71504D01*
Y71502D01*
Y71498D01*
Y71489D01*
X91384Y71480D01*
Y71467D01*
X91382Y71454D01*
X91374Y71420D01*
X91365Y71381D01*
X91350Y71343D01*
X91328Y71302D01*
X91315Y71283D01*
X91300Y71265D01*
X91298Y71263D01*
X91297Y71261D01*
X91291Y71256D01*
X91284Y71250D01*
X91276Y71243D01*
X91265Y71233D01*
X91252Y71224D01*
X91237Y71215D01*
X91221Y71204D01*
X91200Y71194D01*
X91180Y71185D01*
X91158Y71176D01*
X91132Y71167D01*
X91106Y71159D01*
X91078Y71152D01*
X91047Y71146D01*
X91048D01*
X91050Y71144D01*
X91061Y71137D01*
X91076Y71128D01*
X91095Y71115D01*
X91117Y71098D01*
X91139Y71081D01*
X91163Y71061D01*
X91184Y71039D01*
X91185Y71037D01*
X91195Y71028D01*
X91206Y71013D01*
X91222Y70991D01*
X91245Y70963D01*
X91256Y70944D01*
X91269Y70926D01*
X91284Y70906D01*
X91298Y70883D01*
X91315Y70857D01*
X91332Y70832D01*
X91489Y70582D01*
X91178D01*
X90993Y70859D01*
X90991Y70861D01*
X90989Y70867D01*
X90984Y70874D01*
X90976Y70883D01*
X90969Y70894D01*
X90960Y70909D01*
X90939Y70939D01*
X90915Y70972D01*
X90893Y71002D01*
X90872Y71030D01*
X90863Y71039D01*
X90856Y71048D01*
X90854Y71050D01*
X90850Y71054D01*
X90843Y71061D01*
X90834Y71070D01*
X90821Y71078D01*
X90808Y71087D01*
X90793Y71094D01*
X90778Y71102D01*
X90776D01*
X90771Y71104D01*
X90761Y71107D01*
X90747Y71109D01*
X90728Y71113D01*
X90706Y71115D01*
X90680Y71117D01*
X90597D01*
Y70582D01*
X90337D01*
Y71863D01*
X90915D01*
X90932Y71861D01*
D02*
G37*
G36*
X113406Y71779D02*
X113426D01*
X113447Y71778D01*
X113471D01*
X113519Y71772D01*
X113569Y71767D01*
X113615Y71757D01*
X113636Y71752D01*
X113654Y71746D01*
X113656D01*
X113658Y71744D01*
X113669Y71739D01*
X113686Y71729D01*
X113708Y71718D01*
X113732Y71700D01*
X113756Y71679D01*
X113780Y71654D01*
X113802Y71622D01*
Y71620D01*
X113804Y71618D01*
X113808Y71613D01*
X113812Y71607D01*
X113821Y71589D01*
X113832Y71565D01*
X113841Y71535D01*
X113850Y71502D01*
X113858Y71463D01*
X113860Y71422D01*
Y71420D01*
Y71417D01*
Y71407D01*
X113858Y71398D01*
Y71385D01*
X113856Y71372D01*
X113849Y71339D01*
X113839Y71300D01*
X113825Y71261D01*
X113802Y71220D01*
X113789Y71202D01*
X113775Y71183D01*
X113773Y71181D01*
X113771Y71180D01*
X113765Y71174D01*
X113758Y71168D01*
X113750Y71161D01*
X113739Y71152D01*
X113726Y71143D01*
X113712Y71133D01*
X113695Y71122D01*
X113675Y71113D01*
X113654Y71104D01*
X113632Y71094D01*
X113606Y71085D01*
X113580Y71078D01*
X113552Y71070D01*
X113521Y71065D01*
X113523D01*
X113525Y71063D01*
X113536Y71055D01*
X113550Y71046D01*
X113569Y71033D01*
X113591Y71017D01*
X113613Y71000D01*
X113637Y70980D01*
X113658Y70957D01*
X113660Y70955D01*
X113669Y70946D01*
X113680Y70931D01*
X113697Y70909D01*
X113719Y70881D01*
X113730Y70863D01*
X113743Y70844D01*
X113758Y70824D01*
X113773Y70802D01*
X113789Y70776D01*
X113806Y70750D01*
X113963Y70500D01*
X113652D01*
X113467Y70778D01*
X113465Y70780D01*
X113463Y70785D01*
X113458Y70793D01*
X113450Y70802D01*
X113443Y70813D01*
X113434Y70828D01*
X113413Y70857D01*
X113389Y70891D01*
X113367Y70920D01*
X113347Y70948D01*
X113338Y70957D01*
X113330Y70967D01*
X113328Y70968D01*
X113325Y70972D01*
X113317Y70980D01*
X113308Y70989D01*
X113295Y70996D01*
X113282Y71005D01*
X113267Y71013D01*
X113252Y71020D01*
X113251D01*
X113245Y71022D01*
X113236Y71026D01*
X113221Y71028D01*
X113202Y71031D01*
X113180Y71033D01*
X113154Y71035D01*
X113071D01*
Y70500D01*
X112812D01*
Y71781D01*
X113389D01*
X113406Y71779D01*
D02*
G37*
G36*
X116091D02*
X116111D01*
X116132Y71778D01*
X116156D01*
X116204Y71772D01*
X116254Y71767D01*
X116300Y71757D01*
X116321Y71752D01*
X116339Y71746D01*
X116341D01*
X116343Y71744D01*
X116354Y71739D01*
X116371Y71729D01*
X116393Y71718D01*
X116417Y71700D01*
X116441Y71679D01*
X116465Y71654D01*
X116487Y71622D01*
Y71620D01*
X116489Y71618D01*
X116493Y71613D01*
X116496Y71607D01*
X116506Y71589D01*
X116517Y71565D01*
X116526Y71535D01*
X116535Y71502D01*
X116543Y71463D01*
X116545Y71422D01*
Y71420D01*
Y71417D01*
Y71407D01*
X116543Y71398D01*
Y71385D01*
X116541Y71372D01*
X116533Y71339D01*
X116524Y71300D01*
X116509Y71261D01*
X116487Y71220D01*
X116474Y71202D01*
X116459Y71183D01*
X116458Y71181D01*
X116456Y71180D01*
X116450Y71174D01*
X116443Y71168D01*
X116435Y71161D01*
X116424Y71152D01*
X116411Y71143D01*
X116396Y71133D01*
X116380Y71122D01*
X116359Y71113D01*
X116339Y71104D01*
X116317Y71094D01*
X116291Y71085D01*
X116265Y71078D01*
X116237Y71070D01*
X116206Y71065D01*
X116208D01*
X116209Y71063D01*
X116221Y71055D01*
X116235Y71046D01*
X116254Y71033D01*
X116276Y71017D01*
X116298Y71000D01*
X116322Y70980D01*
X116343Y70957D01*
X116345Y70955D01*
X116354Y70946D01*
X116365Y70931D01*
X116382Y70909D01*
X116404Y70881D01*
X116415Y70863D01*
X116428Y70844D01*
X116443Y70824D01*
X116458Y70802D01*
X116474Y70776D01*
X116491Y70750D01*
X116648Y70500D01*
X116337D01*
X116152Y70778D01*
X116150Y70780D01*
X116148Y70785D01*
X116143Y70793D01*
X116135Y70802D01*
X116128Y70813D01*
X116119Y70828D01*
X116098Y70857D01*
X116074Y70891D01*
X116052Y70920D01*
X116032Y70948D01*
X116022Y70957D01*
X116015Y70967D01*
X116013Y70968D01*
X116009Y70972D01*
X116002Y70980D01*
X115993Y70989D01*
X115980Y70996D01*
X115967Y71005D01*
X115952Y71013D01*
X115937Y71020D01*
X115935D01*
X115930Y71022D01*
X115921Y71026D01*
X115906Y71028D01*
X115887Y71031D01*
X115865Y71033D01*
X115839Y71035D01*
X115756D01*
Y70500D01*
X115497D01*
Y71781D01*
X116074D01*
X116091Y71779D01*
D02*
G37*
G36*
X112114D02*
X112134D01*
X112154Y71778D01*
X112178D01*
X112227Y71772D01*
X112277Y71767D01*
X112323Y71757D01*
X112343Y71752D01*
X112362Y71746D01*
X112364D01*
X112365Y71744D01*
X112377Y71739D01*
X112393Y71729D01*
X112415Y71718D01*
X112439Y71700D01*
X112464Y71679D01*
X112488Y71654D01*
X112510Y71622D01*
Y71620D01*
X112512Y71618D01*
X112515Y71613D01*
X112519Y71607D01*
X112528Y71589D01*
X112539Y71565D01*
X112549Y71535D01*
X112558Y71502D01*
X112565Y71463D01*
X112567Y71422D01*
Y71420D01*
Y71417D01*
Y71407D01*
X112565Y71398D01*
Y71385D01*
X112564Y71372D01*
X112556Y71339D01*
X112547Y71300D01*
X112532Y71261D01*
X112510Y71220D01*
X112497Y71202D01*
X112482Y71183D01*
X112480Y71181D01*
X112478Y71180D01*
X112473Y71174D01*
X112465Y71168D01*
X112458Y71161D01*
X112447Y71152D01*
X112434Y71143D01*
X112419Y71133D01*
X112402Y71122D01*
X112382Y71113D01*
X112362Y71104D01*
X112339Y71094D01*
X112314Y71085D01*
X112288Y71078D01*
X112260Y71070D01*
X112228Y71065D01*
X112230D01*
X112232Y71063D01*
X112243Y71055D01*
X112258Y71046D01*
X112277Y71033D01*
X112299Y71017D01*
X112321Y71000D01*
X112345Y70980D01*
X112365Y70957D01*
X112367Y70955D01*
X112377Y70946D01*
X112388Y70931D01*
X112404Y70909D01*
X112427Y70881D01*
X112438Y70863D01*
X112451Y70844D01*
X112465Y70824D01*
X112480Y70802D01*
X112497Y70776D01*
X112514Y70750D01*
X112671Y70500D01*
X112360D01*
X112175Y70778D01*
X112173Y70780D01*
X112171Y70785D01*
X112165Y70793D01*
X112158Y70802D01*
X112151Y70813D01*
X112141Y70828D01*
X112121Y70857D01*
X112097Y70891D01*
X112075Y70920D01*
X112054Y70948D01*
X112045Y70957D01*
X112038Y70967D01*
X112036Y70968D01*
X112032Y70972D01*
X112025Y70980D01*
X112015Y70989D01*
X112002Y70996D01*
X111990Y71005D01*
X111975Y71013D01*
X111960Y71020D01*
X111958D01*
X111952Y71022D01*
X111943Y71026D01*
X111928Y71028D01*
X111910Y71031D01*
X111888Y71033D01*
X111862Y71035D01*
X111778D01*
Y70500D01*
X111519D01*
Y71781D01*
X112097D01*
X112114Y71779D01*
D02*
G37*
G36*
X93617Y71861D02*
X93637D01*
X93657Y71859D01*
X93681D01*
X93730Y71854D01*
X93780Y71848D01*
X93826Y71839D01*
X93846Y71833D01*
X93865Y71828D01*
X93867D01*
X93868Y71826D01*
X93880Y71820D01*
X93896Y71811D01*
X93918Y71800D01*
X93943Y71781D01*
X93967Y71761D01*
X93991Y71735D01*
X94013Y71704D01*
Y71702D01*
X94015Y71700D01*
X94018Y71694D01*
X94022Y71689D01*
X94031Y71670D01*
X94043Y71646D01*
X94052Y71617D01*
X94061Y71583D01*
X94068Y71544D01*
X94070Y71504D01*
Y71502D01*
Y71498D01*
Y71489D01*
X94068Y71480D01*
Y71467D01*
X94067Y71454D01*
X94059Y71420D01*
X94050Y71381D01*
X94035Y71343D01*
X94013Y71302D01*
X94000Y71283D01*
X93985Y71265D01*
X93983Y71263D01*
X93981Y71261D01*
X93976Y71256D01*
X93968Y71250D01*
X93961Y71243D01*
X93950Y71233D01*
X93937Y71224D01*
X93922Y71215D01*
X93905Y71204D01*
X93885Y71194D01*
X93865Y71185D01*
X93843Y71176D01*
X93817Y71167D01*
X93791Y71159D01*
X93763Y71152D01*
X93731Y71146D01*
X93733D01*
X93735Y71144D01*
X93746Y71137D01*
X93761Y71128D01*
X93780Y71115D01*
X93802Y71098D01*
X93824Y71081D01*
X93848Y71061D01*
X93868Y71039D01*
X93870Y71037D01*
X93880Y71028D01*
X93891Y71013D01*
X93907Y70991D01*
X93930Y70963D01*
X93941Y70944D01*
X93954Y70926D01*
X93968Y70906D01*
X93983Y70883D01*
X94000Y70857D01*
X94017Y70832D01*
X94174Y70582D01*
X93863D01*
X93678Y70859D01*
X93676Y70861D01*
X93674Y70867D01*
X93668Y70874D01*
X93661Y70883D01*
X93654Y70894D01*
X93644Y70909D01*
X93624Y70939D01*
X93600Y70972D01*
X93578Y71002D01*
X93557Y71030D01*
X93548Y71039D01*
X93541Y71048D01*
X93539Y71050D01*
X93535Y71054D01*
X93528Y71061D01*
X93518Y71070D01*
X93506Y71078D01*
X93493Y71087D01*
X93478Y71094D01*
X93463Y71102D01*
X93461D01*
X93456Y71104D01*
X93446Y71107D01*
X93431Y71109D01*
X93413Y71113D01*
X93391Y71115D01*
X93365Y71117D01*
X93281D01*
Y70582D01*
X93022D01*
Y71863D01*
X93600D01*
X93617Y71861D01*
D02*
G37*
G36*
X111275Y71565D02*
X110584D01*
Y71281D01*
X111227D01*
Y71065D01*
X110584D01*
Y70717D01*
X111299D01*
Y70500D01*
X110325D01*
Y71781D01*
X111275D01*
Y71565D01*
D02*
G37*
%LPC*%
G36*
X95735Y58403D02*
X95725D01*
X95698Y58399D01*
X95656Y58394D01*
X95605Y58380D01*
X95545Y58362D01*
X95480Y58329D01*
X95420Y58288D01*
X95360Y58228D01*
X95355Y58218D01*
X95337Y58195D01*
X95314Y58153D01*
X95290Y58098D01*
X95263Y58024D01*
X95240Y57936D01*
X95221Y57834D01*
X95216Y57714D01*
Y57709D01*
Y57695D01*
Y57677D01*
X95221Y57649D01*
Y57617D01*
X95226Y57580D01*
X95235Y57496D01*
X95253Y57399D01*
X95281Y57302D01*
X95318Y57214D01*
X95341Y57172D01*
X95369Y57135D01*
X95378Y57126D01*
X95397Y57108D01*
X95429Y57075D01*
X95476Y57043D01*
X95526Y57010D01*
X95591Y56978D01*
X95665Y56959D01*
X95744Y56950D01*
X95753D01*
X95781Y56955D01*
X95818Y56959D01*
X95869Y56973D01*
X95924Y56992D01*
X95985Y57024D01*
X96045Y57066D01*
X96100Y57121D01*
X96105Y57131D01*
X96123Y57154D01*
X96147Y57196D01*
X96174Y57256D01*
X96184Y57293D01*
X96198Y57334D01*
X96211Y57381D01*
X96221Y57432D01*
X96230Y57487D01*
X96239Y57547D01*
X96244Y57612D01*
Y57681D01*
Y57686D01*
Y57700D01*
Y57718D01*
Y57742D01*
X96239Y57774D01*
X96235Y57806D01*
X96225Y57885D01*
X96207Y57973D01*
X96184Y58066D01*
X96147Y58149D01*
X96096Y58223D01*
X96091Y58232D01*
X96068Y58251D01*
X96036Y58278D01*
X95994Y58315D01*
X95943Y58348D01*
X95883Y58376D01*
X95813Y58394D01*
X95735Y58403D01*
D02*
G37*
G36*
X106680D02*
X106670D01*
X106643Y58399D01*
X106601Y58394D01*
X106550Y58380D01*
X106490Y58362D01*
X106425Y58329D01*
X106365Y58288D01*
X106305Y58228D01*
X106300Y58218D01*
X106282Y58195D01*
X106259Y58153D01*
X106235Y58098D01*
X106208Y58024D01*
X106185Y57936D01*
X106166Y57834D01*
X106161Y57714D01*
Y57709D01*
Y57695D01*
Y57677D01*
X106166Y57649D01*
Y57617D01*
X106171Y57580D01*
X106180Y57496D01*
X106198Y57399D01*
X106226Y57302D01*
X106263Y57214D01*
X106286Y57172D01*
X106314Y57135D01*
X106323Y57126D01*
X106342Y57108D01*
X106374Y57075D01*
X106421Y57043D01*
X106471Y57010D01*
X106536Y56978D01*
X106610Y56959D01*
X106689Y56950D01*
X106698D01*
X106726Y56955D01*
X106763Y56959D01*
X106814Y56973D01*
X106869Y56992D01*
X106930Y57024D01*
X106990Y57066D01*
X107045Y57121D01*
X107050Y57131D01*
X107068Y57154D01*
X107092Y57196D01*
X107119Y57256D01*
X107129Y57293D01*
X107142Y57334D01*
X107156Y57381D01*
X107166Y57432D01*
X107175Y57487D01*
X107184Y57547D01*
X107189Y57612D01*
Y57681D01*
Y57686D01*
Y57700D01*
Y57718D01*
Y57742D01*
X107184Y57774D01*
X107179Y57806D01*
X107170Y57885D01*
X107152Y57973D01*
X107129Y58066D01*
X107092Y58149D01*
X107041Y58223D01*
X107036Y58232D01*
X107013Y58251D01*
X106980Y58278D01*
X106939Y58315D01*
X106888Y58348D01*
X106828Y58376D01*
X106758Y58394D01*
X106680Y58403D01*
D02*
G37*
G36*
X92574Y59227D02*
X92537D01*
X92509Y59223D01*
X92472Y59218D01*
X92435Y59213D01*
X92343Y59195D01*
X92241Y59158D01*
X92185Y59139D01*
X92130Y59111D01*
X92079Y59079D01*
X92023Y59042D01*
X91972Y59000D01*
X91926Y58949D01*
X91921Y58945D01*
X91917Y58936D01*
X91903Y58922D01*
X91889Y58899D01*
X91870Y58866D01*
X91852Y58834D01*
X91829Y58792D01*
X91806Y58741D01*
X91783Y58686D01*
X91759Y58626D01*
X91741Y58556D01*
X91722Y58482D01*
X91708Y58399D01*
X91695Y58311D01*
X91690Y58218D01*
X91685Y58116D01*
Y58112D01*
Y58093D01*
Y58066D01*
X91690Y58029D01*
X91695Y57982D01*
X91699Y57927D01*
X91708Y57871D01*
X91718Y57806D01*
X91746Y57672D01*
X91792Y57538D01*
X91820Y57469D01*
X91852Y57404D01*
X91894Y57344D01*
X91935Y57288D01*
X91940Y57283D01*
X91949Y57274D01*
X91963Y57260D01*
X91982Y57246D01*
X92005Y57223D01*
X92037Y57200D01*
X92069Y57172D01*
X92111Y57149D01*
X92199Y57094D01*
X92310Y57052D01*
X92370Y57034D01*
X92435Y57020D01*
X92504Y57010D01*
X92574Y57006D01*
X92611D01*
X92639Y57010D01*
X92671Y57015D01*
X92708Y57020D01*
X92796Y57043D01*
X92898Y57075D01*
X92949Y57098D01*
X93004Y57121D01*
X93055Y57154D01*
X93111Y57191D01*
X93162Y57233D01*
X93208Y57283D01*
X93213Y57288D01*
X93217Y57297D01*
X93231Y57311D01*
X93245Y57334D01*
X93268Y57367D01*
X93287Y57404D01*
X93310Y57445D01*
X93333Y57496D01*
X93356Y57552D01*
X93379Y57612D01*
X93402Y57681D01*
X93421Y57760D01*
X93435Y57839D01*
X93449Y57927D01*
X93453Y58024D01*
X93458Y58126D01*
Y58130D01*
Y58149D01*
Y58177D01*
X93453Y58218D01*
X93449Y58265D01*
X93444Y58315D01*
X93439Y58376D01*
X93425Y58436D01*
X93398Y58570D01*
X93356Y58709D01*
X93328Y58778D01*
X93296Y58838D01*
X93254Y58899D01*
X93213Y58954D01*
X93208Y58959D01*
X93203Y58968D01*
X93189Y58977D01*
X93171Y58996D01*
X93143Y59019D01*
X93115Y59042D01*
X93083Y59065D01*
X93041Y59093D01*
X93000Y59116D01*
X92949Y59139D01*
X92842Y59186D01*
X92782Y59204D01*
X92717Y59213D01*
X92648Y59223D01*
X92574Y59227D01*
D02*
G37*
G36*
X98280Y58417D02*
X98248D01*
X98211Y58408D01*
X98164Y58399D01*
X98113Y58380D01*
X98058Y58357D01*
X98002Y58320D01*
X97951Y58269D01*
X97947Y58265D01*
X97933Y58241D01*
X97910Y58209D01*
X97887Y58163D01*
X97859Y58107D01*
X97840Y58038D01*
X97827Y57959D01*
X97822Y57871D01*
X98738D01*
Y57876D01*
Y57885D01*
Y57894D01*
X98734Y57913D01*
X98729Y57964D01*
X98720Y58019D01*
X98701Y58084D01*
X98678Y58153D01*
X98641Y58218D01*
X98599Y58274D01*
X98595Y58278D01*
X98576Y58297D01*
X98548Y58320D01*
X98511Y58348D01*
X98465Y58371D01*
X98410Y58394D01*
X98350Y58413D01*
X98280Y58417D01*
D02*
G37*
G36*
X109586Y57626D02*
X109581D01*
X109563Y57617D01*
X109535Y57612D01*
X109493Y57598D01*
X109443Y57584D01*
X109373Y57566D01*
X109299Y57547D01*
X109206Y57529D01*
X109197D01*
X109183Y57524D01*
X109165Y57519D01*
X109123Y57510D01*
X109068Y57496D01*
X109012Y57482D01*
X108957Y57464D01*
X108910Y57441D01*
X108873Y57422D01*
X108869Y57418D01*
X108855Y57408D01*
X108836Y57390D01*
X108818Y57367D01*
X108795Y57334D01*
X108776Y57297D01*
X108762Y57256D01*
X108758Y57209D01*
Y57205D01*
Y57186D01*
X108762Y57163D01*
X108771Y57135D01*
X108781Y57098D01*
X108795Y57061D01*
X108818Y57024D01*
X108850Y56987D01*
X108855Y56983D01*
X108869Y56973D01*
X108887Y56959D01*
X108920Y56941D01*
X108952Y56922D01*
X108994Y56909D01*
X109045Y56899D01*
X109095Y56895D01*
X109123D01*
X109156Y56899D01*
X109197Y56909D01*
X109248Y56922D01*
X109299Y56941D01*
X109359Y56964D01*
X109415Y57001D01*
X109419Y57006D01*
X109433Y57015D01*
X109452Y57034D01*
X109475Y57057D01*
X109498Y57089D01*
X109521Y57121D01*
X109544Y57163D01*
X109558Y57205D01*
Y57209D01*
X109563Y57219D01*
X109567Y57242D01*
X109572Y57270D01*
X109577Y57311D01*
X109581Y57362D01*
X109586Y57427D01*
Y57501D01*
Y57626D01*
D02*
G37*
G36*
X115695Y58417D02*
X115662D01*
X115625Y58408D01*
X115579Y58399D01*
X115528Y58380D01*
X115473Y58357D01*
X115417Y58320D01*
X115366Y58269D01*
X115362Y58265D01*
X115348Y58241D01*
X115325Y58209D01*
X115301Y58163D01*
X115274Y58107D01*
X115255Y58038D01*
X115241Y57959D01*
X115237Y57871D01*
X116153D01*
Y57876D01*
Y57885D01*
Y57894D01*
X116148Y57913D01*
X116144Y57964D01*
X116134Y58019D01*
X116116Y58084D01*
X116093Y58153D01*
X116056Y58218D01*
X116014Y58274D01*
X116009Y58278D01*
X115991Y58297D01*
X115963Y58320D01*
X115926Y58348D01*
X115880Y58371D01*
X115824Y58394D01*
X115764Y58413D01*
X115695Y58417D01*
D02*
G37*
G36*
X113140D02*
X113131D01*
X113103Y58413D01*
X113062Y58408D01*
X113011Y58394D01*
X112950Y58376D01*
X112886Y58343D01*
X112826Y58302D01*
X112765Y58246D01*
X112761Y58237D01*
X112742Y58214D01*
X112719Y58172D01*
X112696Y58116D01*
X112668Y58042D01*
X112645Y57954D01*
X112627Y57848D01*
X112622Y57723D01*
Y57718D01*
Y57709D01*
Y57691D01*
Y57663D01*
X112627Y57635D01*
Y57598D01*
X112636Y57519D01*
X112650Y57436D01*
X112668Y57348D01*
X112696Y57265D01*
X112733Y57191D01*
Y57186D01*
X112742Y57182D01*
X112761Y57154D01*
X112798Y57117D01*
X112849Y57071D01*
X112909Y57024D01*
X112983Y56987D01*
X113066Y56959D01*
X113112Y56955D01*
X113163Y56950D01*
X113173D01*
X113196Y56955D01*
X113237Y56959D01*
X113284Y56973D01*
X113339Y56992D01*
X113395Y57024D01*
X113455Y57066D01*
X113510Y57121D01*
X113515Y57131D01*
X113534Y57154D01*
X113557Y57196D01*
X113584Y57256D01*
X113612Y57330D01*
X113635Y57422D01*
X113645Y57478D01*
X113654Y57538D01*
X113659Y57598D01*
Y57668D01*
Y57672D01*
Y57686D01*
Y57705D01*
Y57732D01*
X113654Y57765D01*
X113649Y57802D01*
X113640Y57890D01*
X113621Y57982D01*
X113598Y58079D01*
X113561Y58167D01*
X113538Y58204D01*
X113510Y58241D01*
X113506Y58251D01*
X113483Y58269D01*
X113455Y58297D01*
X113409Y58329D01*
X113358Y58362D01*
X113293Y58390D01*
X113224Y58408D01*
X113140Y58417D01*
D02*
G37*
G36*
X114673Y71585D02*
X114658D01*
X114647Y71583D01*
X114632Y71581D01*
X114617Y71579D01*
X114580Y71572D01*
X114539Y71557D01*
X114517Y71550D01*
X114495Y71539D01*
X114474Y71526D01*
X114452Y71511D01*
X114432Y71494D01*
X114413Y71474D01*
X114411Y71472D01*
X114410Y71468D01*
X114404Y71463D01*
X114399Y71454D01*
X114391Y71441D01*
X114384Y71428D01*
X114374Y71411D01*
X114365Y71391D01*
X114356Y71368D01*
X114347Y71344D01*
X114339Y71317D01*
X114332Y71287D01*
X114326Y71254D01*
X114321Y71218D01*
X114319Y71181D01*
X114317Y71141D01*
Y71139D01*
Y71131D01*
Y71120D01*
X114319Y71105D01*
X114321Y71087D01*
X114323Y71065D01*
X114326Y71043D01*
X114330Y71017D01*
X114341Y70963D01*
X114360Y70909D01*
X114371Y70881D01*
X114384Y70855D01*
X114400Y70831D01*
X114417Y70809D01*
X114419Y70807D01*
X114423Y70804D01*
X114428Y70798D01*
X114436Y70793D01*
X114445Y70783D01*
X114458Y70774D01*
X114471Y70763D01*
X114487Y70754D01*
X114523Y70731D01*
X114567Y70715D01*
X114591Y70707D01*
X114617Y70702D01*
X114645Y70698D01*
X114673Y70696D01*
X114687D01*
X114699Y70698D01*
X114711Y70700D01*
X114726Y70702D01*
X114761Y70711D01*
X114802Y70724D01*
X114823Y70733D01*
X114845Y70743D01*
X114865Y70756D01*
X114887Y70770D01*
X114908Y70787D01*
X114926Y70807D01*
X114928Y70809D01*
X114930Y70813D01*
X114936Y70818D01*
X114941Y70828D01*
X114950Y70841D01*
X114958Y70855D01*
X114967Y70872D01*
X114976Y70893D01*
X114985Y70915D01*
X114995Y70939D01*
X115004Y70967D01*
X115011Y70998D01*
X115017Y71030D01*
X115023Y71065D01*
X115024Y71104D01*
X115026Y71144D01*
Y71146D01*
Y71154D01*
Y71165D01*
X115024Y71181D01*
X115023Y71200D01*
X115021Y71220D01*
X115019Y71244D01*
X115013Y71268D01*
X115002Y71322D01*
X114985Y71378D01*
X114974Y71405D01*
X114961Y71430D01*
X114945Y71454D01*
X114928Y71476D01*
X114926Y71478D01*
X114924Y71481D01*
X114919Y71485D01*
X114911Y71492D01*
X114900Y71502D01*
X114889Y71511D01*
X114876Y71520D01*
X114860Y71531D01*
X114843Y71541D01*
X114823Y71550D01*
X114780Y71568D01*
X114756Y71576D01*
X114730Y71579D01*
X114702Y71583D01*
X114673Y71585D01*
D02*
G37*
G36*
X110880Y70029D02*
X110584D01*
Y69703D01*
X110836D01*
X110873Y69704D01*
X110912Y69706D01*
X110951Y69708D01*
X110967Y69710D01*
X110982Y69712D01*
X110997Y69716D01*
X111006Y69717D01*
X111008D01*
X111014Y69721D01*
X111023Y69725D01*
X111032Y69730D01*
X111056Y69747D01*
X111067Y69758D01*
X111078Y69771D01*
X111080Y69773D01*
X111082Y69779D01*
X111088Y69786D01*
X111093Y69797D01*
X111097Y69812D01*
X111103Y69829D01*
X111104Y69847D01*
X111106Y69867D01*
Y69871D01*
Y69879D01*
X111104Y69890D01*
X111103Y69904D01*
X111097Y69921D01*
X111091Y69938D01*
X111082Y69956D01*
X111071Y69971D01*
X111069Y69973D01*
X111066Y69979D01*
X111056Y69984D01*
X111045Y69993D01*
X111032Y70003D01*
X111016Y70010D01*
X110995Y70017D01*
X110973Y70023D01*
X110971D01*
X110966Y70025D01*
X110954D01*
X110938Y70027D01*
X110897D01*
X110880Y70029D01*
D02*
G37*
G36*
X89600Y71646D02*
X89304D01*
Y71320D01*
X89556D01*
X89593Y71322D01*
X89632Y71324D01*
X89671Y71326D01*
X89687Y71328D01*
X89702Y71330D01*
X89717Y71333D01*
X89726Y71335D01*
X89728D01*
X89734Y71339D01*
X89743Y71343D01*
X89752Y71348D01*
X89776Y71365D01*
X89787Y71376D01*
X89799Y71389D01*
X89800Y71391D01*
X89802Y71396D01*
X89808Y71404D01*
X89813Y71415D01*
X89817Y71430D01*
X89823Y71446D01*
X89824Y71465D01*
X89826Y71485D01*
Y71489D01*
Y71496D01*
X89824Y71507D01*
X89823Y71522D01*
X89817Y71539D01*
X89811Y71556D01*
X89802Y71574D01*
X89791Y71589D01*
X89789Y71591D01*
X89786Y71596D01*
X89776Y71602D01*
X89765Y71611D01*
X89752Y71620D01*
X89736Y71628D01*
X89715Y71635D01*
X89693Y71641D01*
X89691D01*
X89686Y71643D01*
X89674D01*
X89658Y71644D01*
X89617D01*
X89600Y71646D01*
D02*
G37*
G36*
X92198Y71667D02*
X92183D01*
X92172Y71665D01*
X92158Y71663D01*
X92143Y71661D01*
X92106Y71654D01*
X92065Y71639D01*
X92043Y71631D01*
X92021Y71620D01*
X92000Y71607D01*
X91978Y71593D01*
X91958Y71576D01*
X91939Y71556D01*
X91937Y71554D01*
X91935Y71550D01*
X91930Y71544D01*
X91924Y71535D01*
X91917Y71522D01*
X91909Y71509D01*
X91900Y71493D01*
X91891Y71472D01*
X91882Y71450D01*
X91872Y71426D01*
X91865Y71398D01*
X91858Y71369D01*
X91852Y71335D01*
X91846Y71300D01*
X91845Y71263D01*
X91843Y71222D01*
Y71220D01*
Y71213D01*
Y71202D01*
X91845Y71187D01*
X91846Y71169D01*
X91848Y71146D01*
X91852Y71124D01*
X91856Y71098D01*
X91867Y71044D01*
X91885Y70991D01*
X91896Y70963D01*
X91909Y70937D01*
X91926Y70913D01*
X91943Y70891D01*
X91945Y70889D01*
X91948Y70885D01*
X91954Y70880D01*
X91961Y70874D01*
X91970Y70865D01*
X91983Y70856D01*
X91996Y70844D01*
X92013Y70835D01*
X92048Y70813D01*
X92093Y70796D01*
X92117Y70789D01*
X92143Y70783D01*
X92170Y70780D01*
X92198Y70778D01*
X92213D01*
X92224Y70780D01*
X92237Y70782D01*
X92252Y70783D01*
X92287Y70793D01*
X92328Y70806D01*
X92348Y70815D01*
X92370Y70824D01*
X92391Y70837D01*
X92413Y70852D01*
X92433Y70869D01*
X92452Y70889D01*
X92454Y70891D01*
X92456Y70894D01*
X92461Y70900D01*
X92467Y70909D01*
X92476Y70922D01*
X92483Y70937D01*
X92493Y70954D01*
X92502Y70974D01*
X92511Y70996D01*
X92520Y71020D01*
X92530Y71048D01*
X92537Y71080D01*
X92543Y71111D01*
X92548Y71146D01*
X92550Y71185D01*
X92552Y71226D01*
Y71228D01*
Y71235D01*
Y71246D01*
X92550Y71263D01*
X92548Y71281D01*
X92546Y71302D01*
X92545Y71326D01*
X92539Y71350D01*
X92528Y71404D01*
X92511Y71459D01*
X92500Y71487D01*
X92487Y71511D01*
X92470Y71535D01*
X92454Y71557D01*
X92452Y71559D01*
X92450Y71563D01*
X92445Y71567D01*
X92437Y71574D01*
X92426Y71583D01*
X92415Y71593D01*
X92402Y71602D01*
X92385Y71613D01*
X92369Y71622D01*
X92348Y71631D01*
X92306Y71650D01*
X92282Y71657D01*
X92256Y71661D01*
X92228Y71665D01*
X92198Y71667D01*
D02*
G37*
G36*
X90893Y71646D02*
X90597D01*
Y71320D01*
X90848D01*
X90885Y71322D01*
X90924Y71324D01*
X90963Y71326D01*
X90980Y71328D01*
X90995Y71330D01*
X91009Y71333D01*
X91019Y71335D01*
X91021D01*
X91026Y71339D01*
X91035Y71343D01*
X91045Y71348D01*
X91069Y71365D01*
X91080Y71376D01*
X91091Y71389D01*
X91093Y71391D01*
X91095Y71396D01*
X91100Y71404D01*
X91106Y71415D01*
X91109Y71430D01*
X91115Y71446D01*
X91117Y71465D01*
X91119Y71485D01*
Y71489D01*
Y71496D01*
X91117Y71507D01*
X91115Y71522D01*
X91109Y71539D01*
X91104Y71556D01*
X91095Y71574D01*
X91084Y71589D01*
X91082Y71591D01*
X91078Y71596D01*
X91069Y71602D01*
X91058Y71611D01*
X91045Y71620D01*
X91028Y71628D01*
X91008Y71635D01*
X90985Y71641D01*
X90984D01*
X90978Y71643D01*
X90967D01*
X90950Y71644D01*
X90910D01*
X90893Y71646D01*
D02*
G37*
G36*
X113367Y71565D02*
X113071D01*
Y71239D01*
X113323D01*
X113360Y71241D01*
X113399Y71243D01*
X113438Y71244D01*
X113454Y71246D01*
X113469Y71248D01*
X113484Y71252D01*
X113493Y71254D01*
X113495D01*
X113500Y71257D01*
X113510Y71261D01*
X113519Y71267D01*
X113543Y71283D01*
X113554Y71294D01*
X113565Y71307D01*
X113567Y71309D01*
X113569Y71315D01*
X113575Y71322D01*
X113580Y71333D01*
X113584Y71348D01*
X113589Y71365D01*
X113591Y71383D01*
X113593Y71404D01*
Y71407D01*
Y71415D01*
X113591Y71426D01*
X113589Y71441D01*
X113584Y71457D01*
X113578Y71474D01*
X113569Y71492D01*
X113558Y71507D01*
X113556Y71509D01*
X113552Y71515D01*
X113543Y71520D01*
X113532Y71530D01*
X113519Y71539D01*
X113502Y71546D01*
X113482Y71554D01*
X113460Y71559D01*
X113458D01*
X113452Y71561D01*
X113441D01*
X113425Y71563D01*
X113384D01*
X113367Y71565D01*
D02*
G37*
G36*
X116052D02*
X115756D01*
Y71239D01*
X116008D01*
X116045Y71241D01*
X116084Y71243D01*
X116122Y71244D01*
X116139Y71246D01*
X116154Y71248D01*
X116169Y71252D01*
X116178Y71254D01*
X116180D01*
X116185Y71257D01*
X116195Y71261D01*
X116204Y71267D01*
X116228Y71283D01*
X116239Y71294D01*
X116250Y71307D01*
X116252Y71309D01*
X116254Y71315D01*
X116259Y71322D01*
X116265Y71333D01*
X116269Y71348D01*
X116274Y71365D01*
X116276Y71383D01*
X116278Y71404D01*
Y71407D01*
Y71415D01*
X116276Y71426D01*
X116274Y71441D01*
X116269Y71457D01*
X116263Y71474D01*
X116254Y71492D01*
X116243Y71507D01*
X116241Y71509D01*
X116237Y71515D01*
X116228Y71520D01*
X116217Y71530D01*
X116204Y71539D01*
X116187Y71546D01*
X116167Y71554D01*
X116145Y71559D01*
X116143D01*
X116137Y71561D01*
X116126D01*
X116109Y71563D01*
X116069D01*
X116052Y71565D01*
D02*
G37*
G36*
X112075D02*
X111778D01*
Y71239D01*
X112030D01*
X112067Y71241D01*
X112106Y71243D01*
X112145Y71244D01*
X112162Y71246D01*
X112177Y71248D01*
X112191Y71252D01*
X112201Y71254D01*
X112202D01*
X112208Y71257D01*
X112217Y71261D01*
X112227Y71267D01*
X112251Y71283D01*
X112262Y71294D01*
X112273Y71307D01*
X112275Y71309D01*
X112277Y71315D01*
X112282Y71322D01*
X112288Y71333D01*
X112291Y71348D01*
X112297Y71365D01*
X112299Y71383D01*
X112301Y71404D01*
Y71407D01*
Y71415D01*
X112299Y71426D01*
X112297Y71441D01*
X112291Y71457D01*
X112286Y71474D01*
X112277Y71492D01*
X112265Y71507D01*
X112264Y71509D01*
X112260Y71515D01*
X112251Y71520D01*
X112239Y71530D01*
X112227Y71539D01*
X112210Y71546D01*
X112189Y71554D01*
X112167Y71559D01*
X112165D01*
X112160Y71561D01*
X112149D01*
X112132Y71563D01*
X112091D01*
X112075Y71565D01*
D02*
G37*
G36*
X93578Y71646D02*
X93281D01*
Y71320D01*
X93533D01*
X93570Y71322D01*
X93609Y71324D01*
X93648Y71326D01*
X93665Y71328D01*
X93680Y71330D01*
X93694Y71333D01*
X93704Y71335D01*
X93706D01*
X93711Y71339D01*
X93720Y71343D01*
X93730Y71348D01*
X93754Y71365D01*
X93765Y71376D01*
X93776Y71389D01*
X93778Y71391D01*
X93780Y71396D01*
X93785Y71404D01*
X93791Y71415D01*
X93794Y71430D01*
X93800Y71446D01*
X93802Y71465D01*
X93804Y71485D01*
Y71489D01*
Y71496D01*
X93802Y71507D01*
X93800Y71522D01*
X93794Y71539D01*
X93789Y71556D01*
X93780Y71574D01*
X93768Y71589D01*
X93767Y71591D01*
X93763Y71596D01*
X93754Y71602D01*
X93743Y71611D01*
X93730Y71620D01*
X93713Y71628D01*
X93693Y71635D01*
X93670Y71641D01*
X93668D01*
X93663Y71643D01*
X93652D01*
X93635Y71644D01*
X93594D01*
X93578Y71646D01*
D02*
G37*
%LPD*%
D31*
X47732Y77775D02*
G03*
X47732Y73124I1163J-2326D01*
G01*
X50257Y71950D02*
G03*
X50257Y71950I-112J0D01*
G01*
X66650Y42099D02*
Y44599D01*
X73150D01*
Y42099D02*
Y44599D01*
X46995Y39200D02*
X52095D01*
X46995Y36600D02*
X52095D01*
X49220Y40315D02*
Y43215D01*
X50070D01*
Y40315D02*
Y43215D01*
X49220Y40315D02*
X50070D01*
X32333Y79245D02*
Y80345D01*
X30428Y79160D02*
Y80430D01*
X88995Y68865D02*
Y70135D01*
X90900Y68950D02*
Y70050D01*
X78420Y82900D02*
Y84500D01*
X78170Y82950D02*
Y84500D01*
X77570Y82900D02*
X80270D01*
X77570Y84500D02*
X80270D01*
X51746Y54867D02*
Y74933D01*
X54540Y77727D02*
X85891D01*
X51746Y74933D02*
X54513Y77700D01*
X51746Y54867D02*
X54513Y52100D01*
X85891Y77727D02*
X85900Y77718D01*
X80370Y53800D02*
X85900D01*
X78670Y52100D02*
X80370Y53800D01*
X85900D02*
Y77718D01*
X54513Y52100D02*
X78670D01*
X36600Y79303D02*
Y80403D01*
X34695Y79218D02*
Y80488D01*
X50120Y72950D02*
Y77950D01*
D34*
X103775Y44565D02*
G03*
X103775Y44565I-300J0D01*
G01*
X33208Y88450D02*
G03*
X33208Y88450I-158J0D01*
G01*
X103650Y88250D02*
G03*
X103650Y88250I-300J0D01*
G01*
D66*
X111818Y73472D02*
G03*
X111607Y73683I0J212D01*
G01*
X114782Y78340D02*
G03*
X114570Y78128I0J-212D01*
G01*
X114782Y78340D02*
G03*
X114570Y78552I0J212D01*
G01*
D67*
X111607Y73260D02*
G03*
X111818Y73472I212J0D01*
G01*
X115205Y75800D02*
G03*
X115205Y75800I-1905J0D01*
G01*
X31691Y50503D02*
G03*
X30983Y49215I819J-1288D01*
G01*
X89255Y72550D02*
G03*
X89255Y72550I-100J0D01*
G01*
X76900Y88500D02*
G03*
X76900Y88500I-100J0D01*
G01*
X70100Y88250D02*
G03*
X70100Y88250I-100J0D01*
G01*
X60350Y88275D02*
G03*
X60350Y88275I-100J0D01*
G01*
X47095Y88300D02*
G03*
X47095Y88300I-100J0D01*
G01*
X108250Y86400D02*
G03*
X108250Y86400I-100J0D01*
G01*
X114570Y73472D02*
X114782Y73895D01*
X114570Y73260D02*
Y73472D01*
Y73260D02*
X114993D01*
X114782Y73048D02*
Y73472D01*
X114570Y77917D02*
X114993D01*
X114570D02*
Y78128D01*
X111607Y77917D02*
Y78763D01*
X111395Y78552D02*
X111607Y78763D01*
X110125Y74742D02*
Y76858D01*
X116475Y74742D02*
Y76858D01*
X110848Y78975D02*
X115752D01*
X110848Y72625D02*
X115752D01*
X45000Y59900D02*
Y61900D01*
X44400Y59900D02*
X45000D01*
X44400D02*
Y61900D01*
X45000D01*
X45010Y64400D02*
Y66400D01*
X44410Y64400D02*
X45010D01*
X44410D02*
Y66400D01*
X45010D01*
X44410Y67700D02*
Y69700D01*
X45010D01*
Y67700D02*
Y69700D01*
X44410Y67700D02*
X45010D01*
X75350Y74200D02*
X76450D01*
X75350Y72600D02*
X76450D01*
X92675Y38765D02*
X104475D01*
X92675Y45565D02*
X104475D01*
X92675Y38765D02*
Y45565D01*
X104475Y38765D02*
Y45565D01*
X43545Y41115D02*
Y42215D01*
X41945Y41115D02*
Y42215D01*
X44425Y46015D02*
Y47115D01*
X46025Y46015D02*
Y47115D01*
X41945Y46015D02*
Y47115D01*
X43545Y46015D02*
Y47115D01*
X30983Y42815D02*
Y49215D01*
X40983Y41715D02*
Y48215D01*
X31691Y50503D02*
X33972D01*
X38683Y50515D02*
X40983Y48215D01*
X37983Y50515D02*
X38683D01*
X30984Y42815D02*
X33284Y40515D01*
X33983D01*
X39783Y40515D02*
X40983Y41715D01*
X37983Y40515D02*
X39783D01*
X89305Y73725D02*
X92205D01*
X89305D02*
Y74575D01*
X92205D01*
Y73725D02*
Y74575D01*
X77975Y85450D02*
Y88350D01*
X78825D01*
Y85450D02*
Y88350D01*
X77975Y85450D02*
X78825D01*
X66950Y87075D02*
X69850D01*
Y86225D02*
Y87075D01*
X66950Y86225D02*
X69850D01*
X66950D02*
Y87075D01*
X69860Y91400D02*
X72760D01*
X69860Y93400D02*
X72760D01*
X64780Y91395D02*
X67680D01*
X64780Y93395D02*
X67680D01*
X57200Y87100D02*
X60100D01*
Y86250D02*
Y87100D01*
X57200Y86250D02*
X60100D01*
X57200D02*
Y87100D01*
X50045Y89475D02*
Y90325D01*
X47145D02*
X50045D01*
X47145Y89475D02*
Y90325D01*
Y89475D02*
X50045D01*
X32350Y87750D02*
X35450D01*
X32350Y90050D02*
X35450D01*
X32350Y87750D02*
Y90050D01*
X35450Y87750D02*
Y90050D01*
X86450Y89250D02*
X104350D01*
X86450Y82550D02*
X104350D01*
Y89250D01*
X86450Y82550D02*
Y89250D01*
X78670Y52200D02*
Y54740D01*
X61017D02*
X78670D01*
X58350Y75060D02*
X78670D01*
Y77600D01*
X58350Y75060D02*
Y77600D01*
Y54740D02*
X60255D01*
X58350Y52200D02*
Y54740D01*
X60678Y53893D02*
Y54740D01*
X60467Y54528D02*
X60678Y54740D01*
X40704Y82625D02*
Y83450D01*
X41704D01*
X40704Y80350D02*
Y81175D01*
Y80350D02*
X41704D01*
X21270Y57280D02*
Y72520D01*
Y57280D02*
X39530D01*
Y72520D01*
X21270D02*
X39530D01*
D68*
X46250Y59700D02*
G03*
X46250Y59700I-75J0D01*
G01*
X46260Y64200D02*
G03*
X46260Y64200I-75J0D01*
G01*
X43310Y69900D02*
G03*
X43310Y69900I-75J0D01*
G01*
D69*
X104630Y46915D02*
G03*
X104630Y46915I-125J0D01*
G01*
X32250Y86675D02*
G03*
X32250Y86675I-125J0D01*
G01*
X104630Y90575D02*
G03*
X104630Y90575I-125J0D01*
G01*
X42729Y80075D02*
G03*
X42729Y80075I-125J0D01*
G01*
D70*
X73710Y47266D02*
G03*
X73710Y47266I-127J0D01*
G01*
X46497Y39170D02*
G03*
X46497Y39170I-127J0D01*
G01*
X48072Y43465D02*
G03*
X48072Y43465I-127J0D01*
G01*
X85109Y75568D02*
G03*
X85109Y75568I-1487J0D01*
G01*
X73000Y105157D02*
G03*
X72400Y105400I-3005J-6541D01*
G01*
X72400Y105907D02*
G03*
X72999Y106160I-2500J6750D01*
G01*
X42520Y105157D02*
G03*
X41920Y105400I-3005J-6541D01*
G01*
X41920Y105907D02*
G03*
X42519Y106160I-2500J6750D01*
G01*
X57760Y105157D02*
G03*
X57160Y105400I-3005J-6541D01*
G01*
X57160Y105907D02*
G03*
X57759Y106160I-2500J6750D01*
G01*
X118720Y105157D02*
G03*
X118120Y105400I-3005J-6541D01*
G01*
X118120Y105907D02*
G03*
X118719Y106160I-2500J6750D01*
G01*
X88240Y105157D02*
G03*
X87640Y105400I-3005J-6541D01*
G01*
X87640Y105907D02*
G03*
X88239Y106160I-2500J6750D01*
G01*
X103480Y105157D02*
G03*
X102880Y105400I-3005J-6541D01*
G01*
X102880Y105907D02*
G03*
X103479Y106160I-2500J6750D01*
G01*
X71800Y24618D02*
G03*
X72400Y24375I3005J6541D01*
G01*
X72400Y23868D02*
G03*
X71801Y23615I2500J-6750D01*
G01*
X102280Y24618D02*
G03*
X102880Y24375I3005J6541D01*
G01*
X102880Y23868D02*
G03*
X102281Y23615I2500J-6750D01*
G01*
X87040Y24618D02*
G03*
X87640Y24375I3005J6541D01*
G01*
X87640Y23868D02*
G03*
X87041Y23615I2500J-6750D01*
G01*
X26085Y24618D02*
G03*
X26685Y24375I3005J6541D01*
G01*
X26685Y23868D02*
G03*
X26086Y23615I2500J-6750D01*
G01*
X56565Y24618D02*
G03*
X57165Y24375I3005J6541D01*
G01*
X57165Y23868D02*
G03*
X56566Y23615I2500J-6750D01*
G01*
X41325Y24618D02*
G03*
X41925Y24375I3005J6541D01*
G01*
X41925Y23868D02*
G03*
X41326Y23615I2500J-6750D01*
G01*
X72400Y96000D02*
Y105400D01*
X72400Y105907D02*
Y107350D01*
X73000Y105157D02*
Y106157D01*
X57160Y107350D02*
X72400D01*
X57160Y96000D02*
X72400D01*
X57160D02*
Y107350D01*
X41920Y96000D02*
Y105400D01*
X41920Y105907D02*
Y107350D01*
X42520Y105157D02*
Y106157D01*
X26680Y107350D02*
X41920D01*
X26680Y96000D02*
X41920D01*
X26680D02*
Y107350D01*
X57160Y96000D02*
Y105400D01*
X57160Y105907D02*
Y107350D01*
X57760Y105157D02*
Y106157D01*
X41920Y107350D02*
X57160D01*
X41920Y96000D02*
X57160D01*
X41920D02*
Y107350D01*
X118120Y96000D02*
Y105400D01*
X118120Y105907D02*
Y107350D01*
X118720Y105157D02*
Y106157D01*
X102880Y107350D02*
X118120D01*
X102880Y96000D02*
X118120D01*
X102880D02*
Y107350D01*
X87640Y96000D02*
Y105400D01*
X87640Y105907D02*
Y107350D01*
X88240Y105157D02*
Y106157D01*
X72400Y107350D02*
X87640D01*
X72400Y96000D02*
X87640D01*
X72400D02*
Y107350D01*
X102880Y96000D02*
Y105400D01*
X102880Y105907D02*
Y107350D01*
X103480Y105157D02*
Y106157D01*
X87640Y107350D02*
X102880D01*
X87640Y96000D02*
X102880D01*
X87640D02*
Y107350D01*
X72400Y24375D02*
Y33775D01*
X72400Y22425D02*
Y23868D01*
X71800Y23618D02*
Y24618D01*
X72400Y22425D02*
X87640D01*
X72400Y33775D02*
X87640D01*
Y22425D02*
Y33775D01*
X102880Y24375D02*
Y33775D01*
X102880Y22425D02*
Y23868D01*
X102280Y23618D02*
Y24618D01*
X102880Y22425D02*
X118120D01*
X102880Y33775D02*
X118120D01*
Y22425D02*
Y33775D01*
X87640Y24375D02*
Y33775D01*
X87640Y22425D02*
Y23868D01*
X87040Y23618D02*
Y24618D01*
X87640Y22425D02*
X102880D01*
X87640Y33775D02*
X102880D01*
Y22425D02*
Y33775D01*
X26685Y24375D02*
Y33775D01*
X26685Y22425D02*
Y23868D01*
X26085Y23618D02*
Y24618D01*
X26685Y22425D02*
X41925D01*
X26685Y33775D02*
X41925D01*
Y22425D02*
Y33775D01*
X57165Y24375D02*
Y33775D01*
X57165Y22425D02*
Y23868D01*
X56565Y23618D02*
Y24618D01*
X57165Y22425D02*
X72405D01*
X57165Y33775D02*
X72405D01*
Y22425D02*
Y33775D01*
X41925Y24375D02*
Y33775D01*
X41925Y22425D02*
Y23868D01*
X41325Y23618D02*
Y24618D01*
X41925Y22425D02*
X57165D01*
X41925Y33775D02*
X57165D01*
Y22425D02*
Y33775D01*
D71*
X69310Y93400D02*
G03*
X69310Y93400I-50J0D01*
G01*
X64230Y93395D02*
G03*
X64230Y93395I-50J0D01*
G01*
D72*
X108635Y88820D02*
X118165D01*
Y83990D02*
Y88820D01*
X108635Y83990D02*
Y88820D01*
X117350Y83990D02*
X118165D01*
X117350D02*
Y84350D01*
X109450D02*
X117350D01*
X109450Y83990D02*
Y84350D01*
X108635Y83990D02*
X109450D01*
D73*
X84425Y83490D02*
X83425D01*
Y83990D01*
X83592Y84156D01*
X83925D01*
X84092Y83990D01*
Y83490D01*
Y83823D02*
X84425Y84156D01*
Y85156D02*
Y84490D01*
X83759Y85156D01*
X83592D01*
X83425Y84990D01*
Y84656D01*
X83592Y84490D01*
X83425Y85489D02*
Y86156D01*
X83592D01*
X84258Y85489D01*
X84425D01*
X50395Y92350D02*
Y93450D01*
X50945D01*
X51128Y93266D01*
Y92900D01*
X50945Y92717D01*
X50395D01*
X50762D02*
X51128Y92350D01*
X52228D02*
X51495D01*
X52228Y93083D01*
Y93266D01*
X52044Y93450D01*
X51678D01*
X51495Y93266D01*
X53327Y93450D02*
X52961Y93266D01*
X52594Y92900D01*
Y92533D01*
X52778Y92350D01*
X53144D01*
X53327Y92533D01*
Y92717D01*
X53144Y92900D01*
X52594D01*
X47400Y84340D02*
Y85440D01*
X47950D01*
X48133Y85256D01*
Y84890D01*
X47950Y84707D01*
X47400D01*
X47767D02*
X48133Y84340D01*
X49233D02*
X48500D01*
X49233Y85073D01*
Y85256D01*
X49049Y85440D01*
X48683D01*
X48500Y85256D01*
X50332Y85440D02*
X49599D01*
Y84890D01*
X49966Y85073D01*
X50149D01*
X50332Y84890D01*
Y84523D01*
X50149Y84340D01*
X49783D01*
X49599Y84523D01*
X111233Y80416D02*
X111050Y80600D01*
X110683D01*
X110500Y80416D01*
Y80233D01*
X110683Y80050D01*
X111050D01*
X111233Y79867D01*
Y79683D01*
X111050Y79500D01*
X110683D01*
X110500Y79683D01*
X111600Y80600D02*
Y79500D01*
X111966Y79867D01*
X112333Y79500D01*
Y80600D01*
X112699Y79500D02*
X113066D01*
X112883D01*
Y80600D01*
X112699Y80416D01*
X40420Y84991D02*
Y84074D01*
X40603Y83891D01*
X40970D01*
X41153Y84074D01*
Y84991D01*
X41520Y84074D02*
X41703Y83891D01*
X42069D01*
X42253Y84074D01*
Y84807D01*
X42069Y84991D01*
X41703D01*
X41520Y84807D01*
Y84624D01*
X41703Y84441D01*
X42253D01*
X45629Y81233D02*
X45446Y81050D01*
Y80683D01*
X45629Y80500D01*
X46362D01*
X46545Y80683D01*
Y81050D01*
X46362Y81233D01*
X46545Y82333D02*
Y81600D01*
X45812Y82333D01*
X45629D01*
X45446Y82149D01*
Y81783D01*
X45629Y81600D01*
X46545Y82699D02*
Y83066D01*
Y82883D01*
X45446D01*
X45629Y82699D01*
X41133Y77915D02*
X40950Y78099D01*
X40583D01*
X40400Y77915D01*
Y77182D01*
X40583Y76999D01*
X40950D01*
X41133Y77182D01*
X41500Y76999D02*
X41866D01*
X41683D01*
Y78099D01*
X41500Y77915D01*
X43149Y76999D02*
X42416D01*
X43149Y77732D01*
Y77915D01*
X42966Y78099D01*
X42599D01*
X42416Y77915D01*
X89440Y65600D02*
Y66700D01*
X89990D01*
X90173Y66516D01*
Y66150D01*
X89990Y65967D01*
X89440D01*
X89807D02*
X90173Y65600D01*
X91273D02*
X90540D01*
X91273Y66333D01*
Y66516D01*
X91089Y66700D01*
X90723D01*
X90540Y66516D01*
X91639D02*
X91823Y66700D01*
X92189D01*
X92372Y66516D01*
Y66333D01*
X92189Y66150D01*
X92006D01*
X92189D01*
X92372Y65967D01*
Y65783D01*
X92189Y65600D01*
X91823D01*
X91639Y65783D01*
X92812Y66050D02*
X93912D01*
Y66783D01*
X92812Y67883D02*
Y67150D01*
X93912D01*
Y67883D01*
X93362Y67150D02*
Y67516D01*
X92812Y68249D02*
X93912D01*
Y68799D01*
X93729Y68982D01*
X92996D01*
X92812Y68799D01*
Y68249D01*
X93912Y70082D02*
Y69349D01*
X93179Y70082D01*
X92996D01*
X92812Y69899D01*
Y69532D01*
X92996Y69349D01*
X50550Y88200D02*
X51467D01*
X51650Y88383D01*
Y88750D01*
X51467Y88933D01*
X50550D01*
X51650Y89299D02*
Y89666D01*
Y89483D01*
X50550D01*
X50734Y89299D01*
X51650Y90766D02*
X50550D01*
X51100Y90216D01*
Y90949D01*
X61366Y84241D02*
X61183Y84425D01*
X60816D01*
X60633Y84241D01*
Y83508D01*
X60816Y83325D01*
X61183D01*
X61366Y83508D01*
X62466Y83325D02*
X61733D01*
X62466Y84058D01*
Y84241D01*
X62282Y84425D01*
X61916D01*
X61733Y84241D01*
X47528Y71316D02*
X47345Y71500D01*
X46978D01*
X46795Y71316D01*
Y70583D01*
X46978Y70400D01*
X47345D01*
X47528Y70583D01*
X47895Y71500D02*
X48628D01*
Y71316D01*
X47895Y70583D01*
Y70400D01*
X47528Y63516D02*
X47345Y63700D01*
X46978D01*
X46795Y63516D01*
Y62783D01*
X46978Y62600D01*
X47345D01*
X47528Y62783D01*
X47895Y63516D02*
X48078Y63700D01*
X48444D01*
X48628Y63516D01*
Y63333D01*
X48444Y63150D01*
X48628Y62967D01*
Y62783D01*
X48444Y62600D01*
X48078D01*
X47895Y62783D01*
Y62967D01*
X48078Y63150D01*
X47895Y63333D01*
Y63516D01*
X48078Y63150D02*
X48444D01*
X47528Y58991D02*
X47345Y59175D01*
X46978D01*
X46795Y58991D01*
Y58258D01*
X46978Y58075D01*
X47345D01*
X47528Y58258D01*
X47895D02*
X48078Y58075D01*
X48444D01*
X48628Y58258D01*
Y58991D01*
X48444Y59175D01*
X48078D01*
X47895Y58991D01*
Y58808D01*
X48078Y58625D01*
X48628D01*
X29084Y89333D02*
X28900Y89150D01*
Y88783D01*
X29084Y88600D01*
X29817D01*
X30000Y88783D01*
Y89150D01*
X29817Y89333D01*
X30000Y89700D02*
Y90066D01*
Y89883D01*
X28900D01*
X29084Y89700D01*
Y90616D02*
X28900Y90799D01*
Y91166D01*
X29084Y91349D01*
X29817D01*
X30000Y91166D01*
Y90799D01*
X29817Y90616D01*
X29084D01*
X92224Y95277D02*
X92041Y95461D01*
X91674D01*
X91491Y95277D01*
Y94544D01*
X91674Y94361D01*
X92041D01*
X92224Y94544D01*
X92590Y94361D02*
X92957D01*
X92774D01*
Y95461D01*
X92590Y95277D01*
X93507Y94361D02*
X93873D01*
X93690D01*
Y95461D01*
X93507Y95277D01*
X74733Y71816D02*
X74550Y72000D01*
X74183D01*
X74000Y71816D01*
Y71083D01*
X74183Y70900D01*
X74550D01*
X74733Y71083D01*
X75100Y70900D02*
X75466D01*
X75283D01*
Y72000D01*
X75100Y71816D01*
X76016D02*
X76199Y72000D01*
X76566D01*
X76749Y71816D01*
Y71633D01*
X76566Y71450D01*
X76383D01*
X76566D01*
X76749Y71267D01*
Y71083D01*
X76566Y70900D01*
X76199D01*
X76016Y71083D01*
X47533Y44816D02*
X47350Y45000D01*
X46983D01*
X46800Y44816D01*
Y44083D01*
X46983Y43900D01*
X47350D01*
X47533Y44083D01*
X47900Y43900D02*
X48266D01*
X48083D01*
Y45000D01*
X47900Y44816D01*
X49549Y45000D02*
X48816D01*
Y44450D01*
X49183Y44633D01*
X49366D01*
X49549Y44450D01*
Y44083D01*
X49366Y43900D01*
X48999D01*
X48816Y44083D01*
X42394Y49933D02*
X42210Y49750D01*
Y49383D01*
X42394Y49200D01*
X43127D01*
X43310Y49383D01*
Y49750D01*
X43127Y49933D01*
X43310Y50300D02*
Y50666D01*
Y50483D01*
X42210D01*
X42394Y50300D01*
Y51216D02*
X42210Y51399D01*
Y51766D01*
X42394Y51949D01*
X42577D01*
X42760Y51766D01*
X42943Y51949D01*
X43127D01*
X43310Y51766D01*
Y51399D01*
X43127Y51216D01*
X42943D01*
X42760Y51399D01*
X42577Y51216D01*
X42394D01*
X42760Y51399D02*
Y51766D01*
X44843Y49933D02*
X44660Y49750D01*
Y49383D01*
X44843Y49200D01*
X45576D01*
X45760Y49383D01*
Y49750D01*
X45576Y49933D01*
X45760Y50300D02*
Y50666D01*
Y50483D01*
X44660D01*
X44843Y50300D01*
X45576Y51216D02*
X45760Y51399D01*
Y51766D01*
X45576Y51949D01*
X44843D01*
X44660Y51766D01*
Y51399D01*
X44843Y51216D01*
X45027D01*
X45210Y51399D01*
Y51949D01*
X53704Y39633D02*
X53520Y39450D01*
Y39083D01*
X53704Y38900D01*
X54437D01*
X54620Y39083D01*
Y39450D01*
X54437Y39633D01*
X54620Y40733D02*
Y40000D01*
X53887Y40733D01*
X53704D01*
X53520Y40549D01*
Y40183D01*
X53704Y40000D01*
Y41099D02*
X53520Y41283D01*
Y41649D01*
X53704Y41832D01*
X54437D01*
X54620Y41649D01*
Y41283D01*
X54437Y41099D01*
X53704D01*
X44133Y92166D02*
X43950Y92350D01*
X43583D01*
X43400Y92166D01*
Y91433D01*
X43583Y91250D01*
X43950D01*
X44133Y91433D01*
X45233Y91250D02*
X44500D01*
X45233Y91983D01*
Y92166D01*
X45049Y92350D01*
X44683D01*
X44500Y92166D01*
X46332Y91250D02*
X45599D01*
X46332Y91983D01*
Y92166D01*
X46149Y92350D01*
X45783D01*
X45599Y92166D01*
X27333Y95516D02*
X27150Y95700D01*
X26783D01*
X26600Y95516D01*
Y94783D01*
X26783Y94600D01*
X27150D01*
X27333Y94783D01*
X28249Y95700D02*
X27883D01*
X27700Y95516D01*
Y94783D01*
X27883Y94600D01*
X28249D01*
X28433Y94783D01*
Y95516D01*
X28249Y95700D01*
X28799Y94600D02*
Y95700D01*
X29532Y94600D01*
Y95700D01*
X30632Y94600D02*
X29899D01*
X30632Y95333D01*
Y95516D01*
X30449Y95700D01*
X30082D01*
X29899Y95516D01*
X114933Y95319D02*
X114750Y95502D01*
X114383D01*
X114200Y95319D01*
Y94586D01*
X114383Y94403D01*
X114750D01*
X114933Y94586D01*
X115849Y95502D02*
X115483D01*
X115300Y95319D01*
Y94586D01*
X115483Y94403D01*
X115849D01*
X116033Y94586D01*
Y95319D01*
X115849Y95502D01*
X116399Y94403D02*
Y95502D01*
X117132Y94403D01*
Y95502D01*
X118049Y94403D02*
Y95502D01*
X117499Y94952D01*
X118232D01*
X114760Y35216D02*
X114577Y35400D01*
X114210D01*
X114027Y35216D01*
Y34483D01*
X114210Y34300D01*
X114577D01*
X114760Y34483D01*
X115676Y35400D02*
X115310D01*
X115126Y35216D01*
Y34483D01*
X115310Y34300D01*
X115676D01*
X115860Y34483D01*
Y35216D01*
X115676Y35400D01*
X116226Y34300D02*
Y35400D01*
X116959Y34300D01*
Y35400D01*
X118059D02*
X117326D01*
Y34850D01*
X117692Y35033D01*
X117876D01*
X118059Y34850D01*
Y34483D01*
X117876Y34300D01*
X117509D01*
X117326Y34483D01*
X53400Y37700D02*
Y36600D01*
X53950D01*
X54133Y36783D01*
Y37516D01*
X53950Y37700D01*
X53400D01*
X55233Y36600D02*
X54500D01*
X55233Y37333D01*
Y37516D01*
X55049Y37700D01*
X54683D01*
X54500Y37516D01*
X31910Y52100D02*
Y51000D01*
X32643D01*
X33010D02*
X33376D01*
X33193D01*
Y52100D01*
X33010Y51916D01*
X28765Y76800D02*
X29865D01*
Y77533D01*
X28765Y78633D02*
Y77900D01*
X29865D01*
Y78633D01*
X29315Y77900D02*
Y78266D01*
X28765Y78999D02*
X29865D01*
Y79549D01*
X29681Y79732D01*
X28948D01*
X28765Y79549D01*
Y78999D01*
X29865Y80099D02*
Y80465D01*
Y80282D01*
X28765D01*
X28948Y80099D01*
X65727Y43473D02*
X64994D01*
X64811Y43290D01*
Y42923D01*
X64994Y42740D01*
X65727D01*
X65910Y42923D01*
Y43290D01*
X65544Y43106D02*
X65910Y43473D01*
Y43290D02*
X65727Y43473D01*
X65910Y43839D02*
Y44206D01*
Y44023D01*
X64811D01*
X64994Y43839D01*
X54800Y83514D02*
X53700D01*
Y84064D01*
X53884Y84247D01*
X54250D01*
X54433Y84064D01*
Y83514D01*
Y83880D02*
X54800Y84247D01*
Y84613D02*
Y84980D01*
Y84797D01*
X53700D01*
X53884Y84613D01*
X55700Y90550D02*
Y91650D01*
X56250D01*
X56433Y91467D01*
Y91100D01*
X56250Y90917D01*
X55700D01*
X56067D02*
X56433Y90550D01*
X57533D02*
X56800D01*
X57533Y91283D01*
Y91467D01*
X57349Y91650D01*
X56983D01*
X56800Y91467D01*
X59500Y90545D02*
Y91645D01*
X60050D01*
X60233Y91461D01*
Y91095D01*
X60050Y90912D01*
X59500D01*
X59867D02*
X60233Y90545D01*
X60600Y91461D02*
X60783Y91645D01*
X61149D01*
X61333Y91461D01*
Y91278D01*
X61149Y91095D01*
X60966D01*
X61149D01*
X61333Y90912D01*
Y90728D01*
X61149Y90545D01*
X60783D01*
X60600Y90728D01*
X74870Y90145D02*
X73770D01*
Y90695D01*
X73954Y90878D01*
X74320D01*
X74503Y90695D01*
Y90145D01*
Y90512D02*
X74870Y90878D01*
Y91794D02*
X73770D01*
X74320Y91245D01*
Y91978D01*
X41840Y65600D02*
X40740D01*
Y66150D01*
X40924Y66333D01*
X41290D01*
X41473Y66150D01*
Y65600D01*
Y65967D02*
X41840Y66333D01*
Y66700D02*
Y67066D01*
Y66883D01*
X40740D01*
X40924Y66700D01*
X41840Y67616D02*
Y67983D01*
Y67799D01*
X40740D01*
X40924Y67616D01*
X28400Y92395D02*
Y93495D01*
X28950D01*
X29133Y93311D01*
Y92945D01*
X28950Y92762D01*
X28400D01*
X28767D02*
X29133Y92395D01*
X29500D02*
X29866D01*
X29683D01*
Y93495D01*
X29500Y93311D01*
X31149Y92395D02*
X30416D01*
X31149Y93128D01*
Y93311D01*
X30966Y93495D01*
X30599D01*
X30416Y93311D01*
X36650Y92350D02*
Y93450D01*
X37200D01*
X37383Y93266D01*
Y92900D01*
X37200Y92717D01*
X36650D01*
X37017D02*
X37383Y92350D01*
X37750D02*
X38116D01*
X37933D01*
Y93450D01*
X37750Y93266D01*
X38666D02*
X38849Y93450D01*
X39216D01*
X39399Y93266D01*
Y93083D01*
X39216Y92900D01*
X39033D01*
X39216D01*
X39399Y92717D01*
Y92533D01*
X39216Y92350D01*
X38849D01*
X38666Y92533D01*
X91000Y78100D02*
Y79200D01*
X91550D01*
X91733Y79016D01*
Y78650D01*
X91550Y78467D01*
X91000D01*
X91367D02*
X91733Y78100D01*
X92100D02*
X92466D01*
X92283D01*
Y79200D01*
X92100Y79016D01*
X93566Y78100D02*
Y79200D01*
X93016Y78650D01*
X93749D01*
X70400Y49900D02*
Y51000D01*
X70950D01*
X71133Y50816D01*
Y50450D01*
X70950Y50267D01*
X70400D01*
X70767D02*
X71133Y49900D01*
X71500D02*
X71866D01*
X71683D01*
Y51000D01*
X71500Y50816D01*
X73149Y51000D02*
X72416D01*
Y50450D01*
X72783Y50633D01*
X72966D01*
X73149Y50450D01*
Y50083D01*
X72966Y49900D01*
X72599D01*
X72416Y50083D01*
X34225Y82862D02*
Y83962D01*
X34775D01*
X34958Y83779D01*
Y83412D01*
X34775Y83229D01*
X34225D01*
X34592D02*
X34958Y82862D01*
X35325D02*
X35691D01*
X35508D01*
Y83962D01*
X35325Y83779D01*
X36974Y83962D02*
X36608Y83779D01*
X36241Y83412D01*
Y83046D01*
X36424Y82862D01*
X36791D01*
X36974Y83046D01*
Y83229D01*
X36791Y83412D01*
X36241D01*
X30607Y82900D02*
Y84000D01*
X31157D01*
X31340Y83816D01*
Y83450D01*
X31157Y83267D01*
X30607D01*
X30974D02*
X31340Y82900D01*
X31707D02*
X32073D01*
X31890D01*
Y84000D01*
X31707Y83816D01*
X32623Y84000D02*
X33356D01*
Y83816D01*
X32623Y83083D01*
Y82900D01*
X53150Y49375D02*
Y50475D01*
X53700D01*
X53883Y50291D01*
Y49925D01*
X53700Y49742D01*
X53150D01*
X53517D02*
X53883Y49375D01*
X54250D02*
X54616D01*
X54433D01*
Y50475D01*
X54250Y50291D01*
X55166D02*
X55349Y50475D01*
X55716D01*
X55899Y50291D01*
Y50108D01*
X55716Y49925D01*
X55899Y49742D01*
Y49558D01*
X55716Y49375D01*
X55349D01*
X55166Y49558D01*
Y49742D01*
X55349Y49925D01*
X55166Y50108D01*
Y50291D01*
X55349Y49925D02*
X55716D01*
X30900Y75900D02*
Y77000D01*
X31450D01*
X31633Y76816D01*
Y76450D01*
X31450Y76267D01*
X30900D01*
X31267D02*
X31633Y75900D01*
X32000D02*
X32366D01*
X32183D01*
Y77000D01*
X32000Y76816D01*
X32916Y76083D02*
X33099Y75900D01*
X33466D01*
X33649Y76083D01*
Y76816D01*
X33466Y77000D01*
X33099D01*
X32916Y76816D01*
Y76633D01*
X33099Y76450D01*
X33649D01*
X57800Y45100D02*
X56700D01*
Y45650D01*
X56884Y45833D01*
X57250D01*
X57433Y45650D01*
Y45100D01*
Y45467D02*
X57800Y45833D01*
Y46933D02*
Y46200D01*
X57067Y46933D01*
X56884D01*
X56700Y46749D01*
Y46383D01*
X56884Y46200D01*
Y47299D02*
X56700Y47483D01*
Y47849D01*
X56884Y48032D01*
X57617D01*
X57800Y47849D01*
Y47483D01*
X57617Y47299D01*
X56884D01*
X56300Y45175D02*
X55200D01*
Y45725D01*
X55384Y45908D01*
X55750D01*
X55933Y45725D01*
Y45175D01*
Y45542D02*
X56300Y45908D01*
Y47008D02*
Y46275D01*
X55567Y47008D01*
X55384D01*
X55200Y46825D01*
Y46458D01*
X55384Y46275D01*
X56300Y47374D02*
Y47741D01*
Y47558D01*
X55200D01*
X55384Y47374D01*
X53125Y47965D02*
Y49064D01*
X53675D01*
X53858Y48881D01*
Y48515D01*
X53675Y48331D01*
X53125D01*
X53492D02*
X53858Y47965D01*
X54958D02*
X54225D01*
X54958Y48698D01*
Y48881D01*
X54774Y49064D01*
X54408D01*
X54225Y48881D01*
X56057Y47965D02*
X55324D01*
X56057Y48698D01*
Y48881D01*
X55874Y49064D01*
X55508D01*
X55324Y48881D01*
X57069Y84425D02*
Y83508D01*
X57252Y83325D01*
X57619D01*
X57802Y83508D01*
Y84425D01*
X58169Y83325D02*
X58535D01*
X58352D01*
Y84425D01*
X58169Y84241D01*
X46800Y70000D02*
Y69084D01*
X46983Y68900D01*
X47350D01*
X47533Y69084D01*
Y70000D01*
X48449Y68900D02*
Y70000D01*
X47900Y69450D01*
X48633D01*
X46795Y66600D02*
Y65683D01*
X46978Y65500D01*
X47345D01*
X47528Y65683D01*
Y66600D01*
X48628D02*
X47895D01*
Y66050D01*
X48261Y66233D01*
X48444D01*
X48628Y66050D01*
Y65683D01*
X48444Y65500D01*
X48078D01*
X47895Y65683D01*
X46800Y62200D02*
Y61283D01*
X46983Y61100D01*
X47350D01*
X47533Y61283D01*
Y62200D01*
X48633D02*
X48266Y62016D01*
X47900Y61650D01*
Y61283D01*
X48083Y61100D01*
X48449D01*
X48633Y61283D01*
Y61467D01*
X48449Y61650D01*
X47900D01*
X36000Y90000D02*
Y89083D01*
X36183Y88900D01*
X36550D01*
X36733Y89083D01*
Y90000D01*
X37100D02*
X37833D01*
Y89816D01*
X37100Y89083D01*
Y88900D01*
X86360Y93530D02*
Y92614D01*
X86543Y92431D01*
X86910D01*
X87093Y92614D01*
Y93530D01*
X87460Y93347D02*
X87643Y93530D01*
X88009D01*
X88193Y93347D01*
Y93164D01*
X88009Y92980D01*
X88193Y92797D01*
Y92614D01*
X88009Y92431D01*
X87643D01*
X87460Y92614D01*
Y92797D01*
X87643Y92980D01*
X87460Y93164D01*
Y93347D01*
X87643Y92980D02*
X88009D01*
X54700Y79325D02*
Y78408D01*
X54883Y78225D01*
X55250D01*
X55433Y78408D01*
Y79325D01*
X55800Y78225D02*
X56166D01*
X55983D01*
Y79325D01*
X55800Y79141D01*
X56716D02*
X56899Y79325D01*
X57266D01*
X57449Y79141D01*
Y78408D01*
X57266Y78225D01*
X56899D01*
X56716Y78408D01*
Y79141D01*
X101600Y49500D02*
Y48583D01*
X101783Y48400D01*
X102150D01*
X102333Y48583D01*
Y49500D01*
X102700Y48400D02*
X103066D01*
X102883D01*
Y49500D01*
X102700Y49316D01*
X103616D02*
X103799Y49500D01*
X104166D01*
X104349Y49316D01*
Y49133D01*
X104166Y48950D01*
X103983D01*
X104166D01*
X104349Y48767D01*
Y48583D01*
X104166Y48400D01*
X103799D01*
X103616Y48583D01*
X55484Y84271D02*
X55300Y84088D01*
Y83721D01*
X55484Y83538D01*
X56217D01*
X56400Y83721D01*
Y84088D01*
X56217Y84271D01*
X56400Y84638D02*
Y85004D01*
Y84821D01*
X55300D01*
X55484Y84638D01*
X78033Y91516D02*
X77850Y91700D01*
X77483D01*
X77300Y91516D01*
Y90783D01*
X77483Y90600D01*
X77850D01*
X78033Y90783D01*
X78400Y91516D02*
X78583Y91700D01*
X78949D01*
X79133Y91516D01*
Y91333D01*
X78949Y91150D01*
X78766D01*
X78949D01*
X79133Y90967D01*
Y90783D01*
X78949Y90600D01*
X78583D01*
X78400Y90783D01*
X65284Y83783D02*
X65100Y83600D01*
Y83233D01*
X65284Y83050D01*
X66017D01*
X66200Y83233D01*
Y83600D01*
X66017Y83783D01*
X66200Y84699D02*
X65100D01*
X65650Y84150D01*
Y84883D01*
X71184Y83233D02*
X71000Y83050D01*
Y82683D01*
X71184Y82500D01*
X71917D01*
X72100Y82683D01*
Y83050D01*
X71917Y83233D01*
X71000Y84333D02*
Y83600D01*
X71550D01*
X71367Y83966D01*
Y84149D01*
X71550Y84333D01*
X71917D01*
X72100Y84149D01*
Y83783D01*
X71917Y83600D01*
X88373Y79016D02*
X88190Y79200D01*
X87823D01*
X87640Y79016D01*
Y78283D01*
X87823Y78100D01*
X88190D01*
X88373Y78283D01*
X88740Y78100D02*
X89106D01*
X88923D01*
Y79200D01*
X88740Y79016D01*
X90206Y78100D02*
Y79200D01*
X89656Y78650D01*
X90389D01*
X78800Y82350D02*
Y81250D01*
X79350D01*
X79533Y81433D01*
Y82166D01*
X79350Y82350D01*
X78800D01*
X79900Y81250D02*
X80266D01*
X80083D01*
Y82350D01*
X79900Y82166D01*
X64533Y83050D02*
X63434D01*
Y83600D01*
X63617Y83783D01*
X63983D01*
X64167Y83600D01*
Y83050D01*
Y83417D02*
X64533Y83783D01*
X63434Y84883D02*
Y84150D01*
X63983D01*
X63800Y84516D01*
Y84699D01*
X63983Y84883D01*
X64350D01*
X64533Y84699D01*
Y84333D01*
X64350Y84150D01*
X76400Y90154D02*
X75300D01*
Y90704D01*
X75484Y90887D01*
X75850D01*
X76033Y90704D01*
Y90154D01*
Y90521D02*
X76400Y90887D01*
X75300Y91987D02*
X75484Y91620D01*
X75850Y91254D01*
X76217D01*
X76400Y91437D01*
Y91803D01*
X76217Y91987D01*
X76033D01*
X75850Y91803D01*
Y91254D01*
X63383Y89100D02*
Y90200D01*
X63933D01*
X64116Y90016D01*
Y89650D01*
X63933Y89467D01*
X63383D01*
X63750D02*
X64116Y89100D01*
X64483Y90200D02*
X65216D01*
Y90016D01*
X64483Y89283D01*
Y89100D01*
X67100Y81500D02*
Y82600D01*
X67650D01*
X67833Y82416D01*
Y82050D01*
X67650Y81867D01*
X67100D01*
X67467D02*
X67833Y81500D01*
X68200Y82416D02*
X68383Y82600D01*
X68749D01*
X68933Y82416D01*
Y82233D01*
X68749Y82050D01*
X68933Y81867D01*
Y81683D01*
X68749Y81500D01*
X68383D01*
X68200Y81683D01*
Y81867D01*
X68383Y82050D01*
X68200Y82233D01*
Y82416D01*
X68383Y82050D02*
X68749D01*
X72700Y87950D02*
X71600D01*
Y88500D01*
X71784Y88683D01*
X72150D01*
X72333Y88500D01*
Y87950D01*
Y88317D02*
X72700Y88683D01*
Y89050D02*
Y89416D01*
Y89233D01*
X71600D01*
X71784Y89050D01*
Y89966D02*
X71600Y90149D01*
Y90516D01*
X71784Y90699D01*
X72517D01*
X72700Y90516D01*
Y90149D01*
X72517Y89966D01*
X71784D01*
X80650Y91075D02*
Y90158D01*
X80833Y89975D01*
X81200D01*
X81383Y90158D01*
Y91075D01*
X82483Y89975D02*
X81750D01*
X82483Y90708D01*
Y90891D01*
X82299Y91075D01*
X81933D01*
X81750Y90891D01*
X69534Y82500D02*
X70450D01*
X70633Y82683D01*
Y83050D01*
X70450Y83233D01*
X69534D01*
X69717Y83600D02*
X69534Y83783D01*
Y84149D01*
X69717Y84333D01*
X69900D01*
X70083Y84149D01*
Y83966D01*
Y84149D01*
X70267Y84333D01*
X70450D01*
X70633Y84149D01*
Y83783D01*
X70450Y83600D01*
X92875Y75964D02*
Y75047D01*
X93058Y74864D01*
X93425D01*
X93608Y75047D01*
Y75964D01*
X93975Y74864D02*
X94341D01*
X94158D01*
Y75964D01*
X93975Y75780D01*
X94891Y74864D02*
X95258D01*
X95074D01*
Y75964D01*
X94891Y75780D01*
X23733Y73916D02*
X23550Y74100D01*
X23183D01*
X23000Y73916D01*
Y73183D01*
X23183Y73000D01*
X23550D01*
X23733Y73183D01*
X24649Y74100D02*
X24283D01*
X24100Y73916D01*
Y73183D01*
X24283Y73000D01*
X24649D01*
X24833Y73183D01*
Y73916D01*
X24649Y74100D01*
X25199Y73000D02*
Y74100D01*
X25932Y73000D01*
Y74100D01*
X26299Y73000D02*
X26665D01*
X26482D01*
Y74100D01*
X26299Y73916D01*
X73384Y82233D02*
X73200Y82050D01*
Y81683D01*
X73384Y81500D01*
X74117D01*
X74300Y81683D01*
Y82050D01*
X74117Y82233D01*
X73200Y83333D02*
X73384Y82966D01*
X73750Y82600D01*
X74117D01*
X74300Y82783D01*
Y83149D01*
X74117Y83333D01*
X73933D01*
X73750Y83149D01*
Y82600D01*
X75900Y81500D02*
X74800D01*
Y82050D01*
X74984Y82233D01*
X75350D01*
X75533Y82050D01*
Y81500D01*
Y81867D02*
X75900Y82233D01*
X75717Y82600D02*
X75900Y82783D01*
Y83149D01*
X75717Y83333D01*
X74984D01*
X74800Y83149D01*
Y82783D01*
X74984Y82600D01*
X75167D01*
X75350Y82783D01*
Y83333D01*
X52100Y40700D02*
X53017D01*
X53200Y40883D01*
Y41250D01*
X53017Y41433D01*
X52100D01*
X53200Y41800D02*
Y42166D01*
Y41983D01*
X52100D01*
X52284Y41800D01*
X53200Y43449D02*
Y42716D01*
X52467Y43449D01*
X52284D01*
X52100Y43266D01*
Y42899D01*
X52284Y42716D01*
X44484Y37033D02*
X44300Y36850D01*
Y36483D01*
X44484Y36300D01*
X45217D01*
X45400Y36483D01*
Y36850D01*
X45217Y37033D01*
X45400Y37400D02*
Y37766D01*
Y37583D01*
X44300D01*
X44484Y37400D01*
X44300Y38316D02*
Y39049D01*
X44484D01*
X45217Y38316D01*
X45400D01*
X42329Y36933D02*
X42145Y36750D01*
Y36383D01*
X42329Y36200D01*
X43062D01*
X43245Y36383D01*
Y36750D01*
X43062Y36933D01*
X43245Y37300D02*
Y37666D01*
Y37483D01*
X42145D01*
X42329Y37300D01*
X42145Y38949D02*
X42329Y38583D01*
X42695Y38216D01*
X43062D01*
X43245Y38399D01*
Y38766D01*
X43062Y38949D01*
X42878D01*
X42695Y38766D01*
Y38216D01*
X64100Y95005D02*
Y93905D01*
X64650D01*
X64833Y94088D01*
Y94821D01*
X64650Y95005D01*
X64100D01*
X65200Y94821D02*
X65383Y95005D01*
X65749D01*
X65933Y94821D01*
Y94638D01*
X65749Y94455D01*
X65566D01*
X65749D01*
X65933Y94271D01*
Y94088D01*
X65749Y93905D01*
X65383D01*
X65200Y94088D01*
X69200Y94900D02*
Y93800D01*
X69750D01*
X69933Y93983D01*
Y94716D01*
X69750Y94900D01*
X69200D01*
X70849Y93800D02*
Y94900D01*
X70300Y94350D01*
X71033D01*
X27644Y35242D02*
X27461Y35425D01*
X27094D01*
X26911Y35242D01*
Y34508D01*
X27094Y34325D01*
X27461D01*
X27644Y34508D01*
X28561Y35425D02*
X28194D01*
X28011Y35242D01*
Y34508D01*
X28194Y34325D01*
X28561D01*
X28744Y34508D01*
Y35242D01*
X28561Y35425D01*
X29110Y34325D02*
Y35425D01*
X29844Y34325D01*
Y35425D01*
X30210Y35242D02*
X30393Y35425D01*
X30760D01*
X30943Y35242D01*
Y35058D01*
X30760Y34875D01*
X30577D01*
X30760D01*
X30943Y34692D01*
Y34508D01*
X30760Y34325D01*
X30393D01*
X30210Y34508D01*
X38400Y76579D02*
X39500D01*
Y77312D01*
X38400Y78412D02*
Y77678D01*
X39500D01*
Y78412D01*
X38950Y77678D02*
Y78045D01*
X38400Y78778D02*
X39500D01*
Y79328D01*
X39317Y79511D01*
X38584D01*
X38400Y79328D01*
Y78778D01*
X38584Y79878D02*
X38400Y80061D01*
Y80428D01*
X38584Y80611D01*
X38767D01*
X38950Y80428D01*
Y80244D01*
Y80428D01*
X39133Y80611D01*
X39317D01*
X39500Y80428D01*
Y80061D01*
X39317Y79878D01*
X35150Y75900D02*
Y77000D01*
X35700D01*
X35883Y76816D01*
Y76450D01*
X35700Y76267D01*
X35150D01*
X35517D02*
X35883Y75900D01*
X36983D02*
X36250D01*
X36983Y76633D01*
Y76816D01*
X36799Y77000D01*
X36433D01*
X36250Y76816D01*
X37899Y75900D02*
Y77000D01*
X37349Y76450D01*
X38082D01*
X116600Y89250D02*
Y90350D01*
X117150D01*
X117333Y90166D01*
Y89800D01*
X117150Y89617D01*
X116600D01*
X117700Y89250D02*
X118066D01*
X117883D01*
Y90350D01*
X117700Y90166D01*
X82609Y87333D02*
X82425Y87150D01*
Y86783D01*
X82609Y86600D01*
X83342D01*
X83525Y86783D01*
Y87150D01*
X83342Y87333D01*
X83525Y88433D02*
Y87700D01*
X82792Y88433D01*
X82609D01*
X82425Y88249D01*
Y87883D01*
X82609Y87700D01*
Y88799D02*
X82425Y88983D01*
Y89349D01*
X82609Y89532D01*
X82792D01*
X82975Y89349D01*
Y89166D01*
Y89349D01*
X83158Y89532D01*
X83342D01*
X83525Y89349D01*
Y88983D01*
X83342Y88799D01*
X51133Y80416D02*
X50950Y80600D01*
X50583D01*
X50400Y80416D01*
Y79683D01*
X50583Y79500D01*
X50950D01*
X51133Y79683D01*
X52233Y79500D02*
X51500D01*
X52233Y80233D01*
Y80416D01*
X52049Y80600D01*
X51683D01*
X51500Y80416D01*
X53149Y79500D02*
Y80600D01*
X52599Y80050D01*
X53332D01*
X50800Y76150D02*
X51717D01*
X51900Y76333D01*
Y76700D01*
X51717Y76883D01*
X50800D01*
X51900Y77250D02*
Y77616D01*
Y77433D01*
X50800D01*
X50984Y77250D01*
X50800Y78899D02*
Y78166D01*
X51350D01*
X51167Y78533D01*
Y78716D01*
X51350Y78899D01*
X51717D01*
X51900Y78716D01*
Y78349D01*
X51717Y78166D01*
M02*
