G04 Layer_Physical_Order=1*
G04 Layer_Color=255*
%FSLAX43Y43*%
%MOMM*%
G71*
G01*
G75*
%ADD10R,0.720X0.990*%
%ADD11R,0.950X1.000*%
%ADD12R,0.950X0.400*%
%ADD13R,0.990X0.720*%
%ADD14R,1.150X1.800*%
%ADD15R,0.600X2.000*%
%ADD16R,5.690X6.180*%
%ADD17R,1.397X2.286*%
%ADD18R,2.350X1.550*%
%ADD19R,1.000X0.950*%
%ADD20R,1.100X0.600*%
%ADD21R,1.000X1.400*%
%ADD22R,1.800X1.150*%
%ADD23R,3.500X2.000*%
%ADD24R,0.600X1.100*%
%ADD25R,1.100X0.600*%
%ADD26R,1.050X0.800*%
%ADD27R,1.300X1.400*%
%ADD28R,0.450X1.450*%
%ADD29R,0.600X1.850*%
%ADD30R,1.000X0.650*%
%ADD31C,0.300*%
%ADD32C,0.400*%
%ADD33C,0.800*%
%ADD34C,0.600*%
%ADD35C,3.000*%
%ADD36C,2.000*%
%ADD37C,1.000*%
%ADD38R,5.500X12.064*%
%ADD39R,7.010X3.315*%
%ADD40R,1.110X2.600*%
%ADD41R,14.700X4.100*%
%ADD42R,5.700X2.165*%
%ADD43R,3.680X1.903*%
%ADD44R,7.170X3.160*%
%ADD45R,1.950X1.900*%
%ADD46R,18.000X3.750*%
%ADD47R,4.750X12.250*%
%ADD48R,16.225X2.500*%
%ADD49R,6.050X1.800*%
%ADD50R,2.800X4.650*%
%ADD51C,1.800*%
%ADD52C,1.600*%
%ADD53R,1.600X1.600*%
%ADD54R,2.250X2.250*%
%ADD55C,2.250*%
%ADD56C,1.400*%
%ADD57R,1.400X1.400*%
%ADD58C,3.170*%
%ADD59R,1.248X1.248*%
%ADD60C,1.248*%
%ADD61C,1.450*%
%ADD62C,0.800*%
G36*
X119400Y104400D02*
X122400D01*
Y25400D01*
X119400D01*
Y22400D01*
X25400D01*
Y25400D01*
X22400D01*
Y104400D01*
X25400D01*
Y107400D01*
X119400D01*
Y104400D01*
D02*
G37*
%LPC*%
G36*
X116550Y74612D02*
X116275Y74576D01*
X116019Y74470D01*
X115799Y74301D01*
X115630Y74081D01*
X115524Y73825D01*
X115488Y73550D01*
X115524Y73275D01*
X115630Y73019D01*
X115799Y72799D01*
X116019Y72630D01*
X116275Y72524D01*
X116550Y72488D01*
X116825Y72524D01*
X117081Y72630D01*
X117301Y72799D01*
X117470Y73019D01*
X117576Y73275D01*
X117612Y73550D01*
X117576Y73825D01*
X117470Y74081D01*
X117301Y74301D01*
X117081Y74470D01*
X116825Y74576D01*
X116550Y74612D01*
D02*
G37*
G36*
X97605Y82316D02*
X97005D01*
X96888Y82267D01*
X96839Y82150D01*
Y80300D01*
X96888Y80183D01*
X96996Y80138D01*
Y48027D01*
X96888Y47982D01*
X96839Y47865D01*
Y45865D01*
X96888Y45748D01*
X97005Y45699D01*
X97605D01*
X97722Y45748D01*
X97771Y45865D01*
Y47865D01*
X97722Y47982D01*
X97614Y48027D01*
Y80138D01*
X97722Y80183D01*
X97771Y80300D01*
Y82150D01*
X97722Y82267D01*
X97605Y82316D01*
D02*
G37*
G36*
X96335D02*
X95735D01*
X95618Y82267D01*
X95569Y82150D01*
Y80300D01*
X95618Y80183D01*
X95726Y80138D01*
Y48027D01*
X95618Y47982D01*
X95569Y47865D01*
Y45865D01*
X95618Y45748D01*
X95735Y45699D01*
X96335D01*
X96452Y45748D01*
X96501Y45865D01*
Y47865D01*
X96452Y47982D01*
X96344Y48027D01*
Y80138D01*
X96452Y80183D01*
X96501Y80300D01*
Y82150D01*
X96452Y82267D01*
X96335Y82316D01*
D02*
G37*
G36*
X74860Y77439D02*
X74573Y77402D01*
X74305Y77291D01*
X74075Y77115D01*
X73899Y76885D01*
X73788Y76617D01*
X73751Y76330D01*
X73788Y76043D01*
X73899Y75775D01*
X74075Y75545D01*
X74305Y75369D01*
X74573Y75258D01*
X74860Y75221D01*
X75147Y75258D01*
X75415Y75369D01*
X75645Y75545D01*
X75821Y75775D01*
X75932Y76043D01*
X75969Y76330D01*
X75932Y76617D01*
X75821Y76885D01*
X75645Y77115D01*
X75415Y77291D01*
X75147Y77402D01*
X74860Y77439D01*
D02*
G37*
G36*
X48895Y73842D02*
X48627Y73807D01*
X48378Y73704D01*
X48164Y73539D01*
X48000Y73325D01*
X47896Y73076D01*
X47861Y72808D01*
X47896Y72541D01*
X48000Y72291D01*
X48164Y72077D01*
X48378Y71913D01*
X48627Y71810D01*
X48895Y71774D01*
X49163Y71810D01*
X49412Y71913D01*
X49626Y72077D01*
X49790Y72291D01*
X49894Y72541D01*
X49929Y72808D01*
X49894Y73076D01*
X49790Y73325D01*
X49626Y73539D01*
X49412Y73704D01*
X49163Y73807D01*
X48895Y73842D01*
D02*
G37*
G36*
X44635Y71756D02*
X43685D01*
X43568Y71733D01*
X43468Y71666D01*
X43402Y71567D01*
X43379Y71450D01*
Y70450D01*
X43402Y70333D01*
X43468Y70234D01*
X43568Y70167D01*
X43685Y70144D01*
X44635D01*
X44752Y70167D01*
X44851Y70234D01*
X44917Y70333D01*
X44940Y70450D01*
Y71450D01*
X44917Y71567D01*
X44851Y71666D01*
X44752Y71733D01*
X44635Y71756D01*
D02*
G37*
G36*
X29286Y72372D02*
X29270Y72368D01*
X29254Y72372D01*
X28943Y72342D01*
X28928Y72334D01*
X28911Y72336D01*
X28612Y72245D01*
X28599Y72234D01*
X28582Y72232D01*
X28307Y72085D01*
X28296Y72072D01*
X28280Y72067D01*
X28039Y71869D01*
X28031Y71854D01*
X28016Y71846D01*
X27818Y71605D01*
X27813Y71589D01*
X27800Y71578D01*
X27653Y71303D01*
X27651Y71286D01*
X27640Y71273D01*
X27549Y70974D01*
X27551Y70957D01*
X27543Y70942D01*
X27513Y70631D01*
X27515Y70623D01*
X27512Y70615D01*
X27515Y70607D01*
X27513Y70599D01*
X27543Y70288D01*
X27551Y70273D01*
X27549Y70256D01*
X27640Y69957D01*
X27651Y69944D01*
X27653Y69927D01*
X27800Y69652D01*
X27813Y69641D01*
X27818Y69625D01*
X28016Y69384D01*
X28031Y69376D01*
X28039Y69361D01*
X28280Y69163D01*
X28296Y69158D01*
X28307Y69145D01*
X28582Y68998D01*
X28599Y68996D01*
X28612Y68985D01*
X28911Y68894D01*
X28928Y68896D01*
X28943Y68888D01*
X29254Y68858D01*
X29270Y68862D01*
X29286Y68858D01*
X29597Y68888D01*
X29612Y68896D01*
X29629Y68894D01*
X29928Y68985D01*
X29941Y68996D01*
X29958Y68998D01*
X30233Y69145D01*
X30244Y69158D01*
X30260Y69163D01*
X30501Y69361D01*
X30509Y69376D01*
X30524Y69384D01*
X30722Y69625D01*
X30727Y69641D01*
X30740Y69652D01*
X30888Y69927D01*
X30889Y69944D01*
X30900Y69957D01*
X30991Y70256D01*
X30989Y70273D01*
X30997Y70288D01*
X31028Y70599D01*
X31025Y70607D01*
X31028Y70615D01*
X31025Y70623D01*
X31028Y70631D01*
X30997Y70942D01*
X30989Y70957D01*
X30991Y70974D01*
X30900Y71273D01*
X30889Y71286D01*
X30888Y71303D01*
X30740Y71578D01*
X30727Y71589D01*
X30722Y71605D01*
X30524Y71846D01*
X30509Y71854D01*
X30501Y71869D01*
X30260Y72067D01*
X30244Y72072D01*
X30233Y72085D01*
X29958Y72232D01*
X29941Y72234D01*
X29928Y72245D01*
X29629Y72336D01*
X29612Y72334D01*
X29597Y72342D01*
X29286Y72372D01*
D02*
G37*
G36*
X74975Y74606D02*
X73825D01*
X73708Y74583D01*
X73609Y74516D01*
X73542Y74417D01*
X73519Y74300D01*
Y72500D01*
X73542Y72383D01*
X73609Y72284D01*
X73708Y72217D01*
X73825Y72194D01*
X74975D01*
X75092Y72217D01*
X75191Y72284D01*
X75258Y72383D01*
X75281Y72500D01*
Y74300D01*
X75258Y74417D01*
X75191Y74516D01*
X75092Y74583D01*
X74975Y74606D01*
D02*
G37*
G36*
X42675Y79806D02*
X41725D01*
X41608Y79783D01*
X41509Y79716D01*
X41442Y79617D01*
X41419Y79500D01*
Y78500D01*
X41442Y78383D01*
X41509Y78284D01*
X41608Y78217D01*
X41725Y78194D01*
X42675D01*
X42792Y78217D01*
X42891Y78284D01*
X42958Y78383D01*
X42981Y78500D01*
Y79500D01*
X42958Y79617D01*
X42891Y79716D01*
X42792Y79783D01*
X42675Y79806D01*
D02*
G37*
G36*
X33783Y80661D02*
X32783D01*
X32666Y80612D01*
X32617Y80495D01*
Y79095D01*
X32666Y78978D01*
X32714Y78958D01*
Y78561D01*
X32663D01*
X32546Y78512D01*
X32497Y78395D01*
Y77405D01*
X32546Y77288D01*
X32663Y77239D01*
X33383D01*
X33500Y77288D01*
X33549Y77405D01*
Y78395D01*
X33500Y78512D01*
X33383Y78561D01*
X33332D01*
Y78930D01*
X33783D01*
X33900Y78978D01*
X33949Y79095D01*
Y80495D01*
X33900Y80612D01*
X33783Y80661D01*
D02*
G37*
G36*
X93795Y82316D02*
X93195D01*
X93078Y82267D01*
X93029Y82150D01*
Y80300D01*
X93078Y80183D01*
X93195Y80134D01*
X93795D01*
X93912Y80183D01*
X93961Y80300D01*
Y82150D01*
X93912Y82267D01*
X93795Y82316D01*
D02*
G37*
G36*
X31883Y80801D02*
X30883D01*
X30766Y80778D01*
X30667Y80712D01*
X30600Y80612D01*
X30577Y80495D01*
Y79095D01*
X30600Y78978D01*
X30667Y78879D01*
X30766Y78813D01*
X30883Y78789D01*
X31883D01*
X32000Y78813D01*
X32099Y78879D01*
X32166Y78978D01*
X32189Y79095D01*
Y80495D01*
X32166Y80612D01*
X32099Y80712D01*
X32000Y80778D01*
X31883Y80801D01*
D02*
G37*
G36*
X110050Y79260D02*
X109737Y79219D01*
X109445Y79098D01*
X109194Y78906D01*
X109002Y78655D01*
X108881Y78363D01*
X108840Y78050D01*
X108881Y77737D01*
X109002Y77445D01*
X109194Y77194D01*
X109445Y77002D01*
X109737Y76881D01*
X110050Y76840D01*
X110363Y76881D01*
X110655Y77002D01*
X110906Y77194D01*
X111098Y77445D01*
X111219Y77737D01*
X111260Y78050D01*
X111219Y78363D01*
X111098Y78655D01*
X110906Y78906D01*
X110655Y79098D01*
X110363Y79219D01*
X110050Y79260D01*
D02*
G37*
G36*
X95065Y82316D02*
X94465D01*
X94348Y82267D01*
X94299Y82150D01*
Y80300D01*
X94348Y80183D01*
X94465Y80134D01*
X94512D01*
Y48030D01*
X94465D01*
X94348Y47982D01*
X94299Y47865D01*
Y45865D01*
X94348Y45748D01*
X94465Y45699D01*
X95065D01*
X95182Y45748D01*
X95231Y45865D01*
Y47865D01*
X95182Y47982D01*
X95130Y48004D01*
Y80161D01*
X95182Y80183D01*
X95231Y80300D01*
Y82150D01*
X95182Y82267D01*
X95065Y82316D01*
D02*
G37*
G36*
X93795Y48171D02*
X93195D01*
X93078Y48147D01*
X92979Y48081D01*
X92912Y47982D01*
X92889Y47865D01*
Y45865D01*
X92912Y45748D01*
X92979Y45649D01*
X93078Y45582D01*
X93195Y45559D01*
X93795D01*
X93912Y45582D01*
X94011Y45649D01*
X94078Y45748D01*
X94101Y45865D01*
Y47865D01*
X94078Y47982D01*
X94011Y48081D01*
X93912Y48147D01*
X93795Y48171D01*
D02*
G37*
G36*
X116550Y79112D02*
X116275Y79076D01*
X116019Y78970D01*
X115799Y78801D01*
X115630Y78581D01*
X115524Y78325D01*
X115488Y78050D01*
X115524Y77775D01*
X115630Y77519D01*
X115799Y77299D01*
X116019Y77130D01*
X116275Y77024D01*
X116550Y76988D01*
X116825Y77024D01*
X117081Y77130D01*
X117301Y77299D01*
X117470Y77519D01*
X117576Y77775D01*
X117612Y78050D01*
X117576Y78325D01*
X117470Y78581D01*
X117301Y78801D01*
X117081Y78970D01*
X116825Y79076D01*
X116550Y79112D01*
D02*
G37*
G36*
X118922Y51073D02*
X118900Y51067D01*
X118878Y51073D01*
X118617Y51038D01*
X118598Y51027D01*
X118576D01*
X118332Y50926D01*
X118316Y50911D01*
X118295Y50905D01*
X118086Y50745D01*
X118075Y50725D01*
X118055Y50714D01*
X117895Y50505D01*
X117889Y50484D01*
X117873Y50468D01*
X117773Y50224D01*
Y50202D01*
X117762Y50183D01*
X117727Y49922D01*
X117730Y49911D01*
X117726Y49900D01*
X117730Y49889D01*
X117727Y49878D01*
X117762Y49617D01*
X117773Y49598D01*
Y49576D01*
X117873Y49332D01*
X117889Y49316D01*
X117895Y49295D01*
X118055Y49086D01*
X118075Y49075D01*
X118086Y49055D01*
X118295Y48895D01*
X118316Y48889D01*
X118332Y48874D01*
X118576Y48773D01*
X118598D01*
X118617Y48762D01*
X118878Y48727D01*
X118900Y48733D01*
X118922Y48727D01*
X119183Y48762D01*
X119202Y48773D01*
X119224D01*
X119468Y48874D01*
X119484Y48889D01*
X119505Y48895D01*
X119714Y49055D01*
X119725Y49075D01*
X119745Y49086D01*
X119905Y49295D01*
X119911Y49316D01*
X119926Y49332D01*
X120027Y49576D01*
Y49598D01*
X120038Y49617D01*
X120073Y49878D01*
X120070Y49889D01*
X120074Y49900D01*
X120070Y49911D01*
X120073Y49922D01*
X120038Y50183D01*
X120027Y50202D01*
Y50224D01*
X119926Y50468D01*
X119911Y50484D01*
X119905Y50505D01*
X119745Y50714D01*
X119725Y50725D01*
X119714Y50745D01*
X119505Y50905D01*
X119484Y50911D01*
X119468Y50926D01*
X119224Y51027D01*
X119202D01*
X119183Y51038D01*
X118922Y51073D01*
D02*
G37*
G36*
X25922D02*
X25900Y51067D01*
X25878Y51073D01*
X25617Y51038D01*
X25598Y51027D01*
X25576D01*
X25332Y50926D01*
X25316Y50911D01*
X25295Y50905D01*
X25086Y50745D01*
X25075Y50725D01*
X25055Y50714D01*
X24895Y50505D01*
X24889Y50484D01*
X24874Y50468D01*
X24773Y50224D01*
Y50202D01*
X24762Y50183D01*
X24727Y49922D01*
X24730Y49911D01*
X24726Y49900D01*
X24730Y49889D01*
X24727Y49878D01*
X24762Y49617D01*
X24773Y49598D01*
Y49576D01*
X24874Y49332D01*
X24889Y49316D01*
X24895Y49295D01*
X25055Y49086D01*
X25075Y49075D01*
X25086Y49055D01*
X25295Y48895D01*
X25316Y48889D01*
X25332Y48874D01*
X25576Y48773D01*
X25598D01*
X25617Y48762D01*
X25878Y48727D01*
X25900Y48733D01*
X25922Y48727D01*
X26183Y48762D01*
X26202Y48773D01*
X26224D01*
X26468Y48874D01*
X26484Y48889D01*
X26505Y48895D01*
X26714Y49055D01*
X26725Y49075D01*
X26745Y49086D01*
X26905Y49295D01*
X26911Y49316D01*
X26927Y49332D01*
X27027Y49576D01*
Y49598D01*
X27038Y49617D01*
X27073Y49878D01*
X27070Y49889D01*
X27074Y49900D01*
X27070Y49911D01*
X27073Y49922D01*
X27038Y50183D01*
X27027Y50202D01*
Y50224D01*
X26927Y50468D01*
X26911Y50484D01*
X26905Y50505D01*
X26745Y50714D01*
X26725Y50725D01*
X26714Y50745D01*
X26505Y50905D01*
X26484Y50911D01*
X26468Y50926D01*
X26224Y51027D01*
X26202D01*
X26183Y51038D01*
X25922Y51073D01*
D02*
G37*
G36*
X77400Y54431D02*
X77151Y54398D01*
X76919Y54302D01*
X76720Y54150D01*
X76568Y53951D01*
X76472Y53719D01*
X76439Y53470D01*
X76472Y53221D01*
X76568Y52989D01*
X76720Y52790D01*
X76919Y52638D01*
X77151Y52542D01*
X77400Y52509D01*
X77649Y52542D01*
X77881Y52638D01*
X78080Y52790D01*
X78232Y52989D01*
X78328Y53221D01*
X78361Y53470D01*
X78328Y53719D01*
X78232Y53951D01*
X78080Y54150D01*
X77881Y54302D01*
X77649Y54398D01*
X77400Y54431D01*
D02*
G37*
G36*
X60420Y54436D02*
X58820D01*
X58703Y54387D01*
X58654Y54270D01*
Y52670D01*
X58703Y52553D01*
X58820Y52504D01*
X60420D01*
X60537Y52553D01*
X60586Y52670D01*
Y54270D01*
X60537Y54387D01*
X60420Y54436D01*
D02*
G37*
G36*
X102685Y82316D02*
X102085D01*
X101968Y82267D01*
X101919Y82150D01*
Y80300D01*
X101968Y80183D01*
X102076Y80138D01*
Y48027D01*
X101968Y47982D01*
X101919Y47865D01*
Y45865D01*
X101968Y45748D01*
X102085Y45699D01*
X102685D01*
X102802Y45748D01*
X102851Y45865D01*
Y47865D01*
X102802Y47982D01*
X102694Y48027D01*
Y80138D01*
X102802Y80183D01*
X102851Y80300D01*
Y82150D01*
X102802Y82267D01*
X102685Y82316D01*
D02*
G37*
G36*
X101415D02*
X100815D01*
X100698Y82267D01*
X100649Y82150D01*
Y80300D01*
X100698Y80183D01*
X100806Y80138D01*
Y48027D01*
X100698Y47982D01*
X100649Y47865D01*
Y45865D01*
X100698Y45748D01*
X100815Y45699D01*
X101415D01*
X101532Y45748D01*
X101581Y45865D01*
Y47865D01*
X101532Y47982D01*
X101424Y48027D01*
Y80138D01*
X101532Y80183D01*
X101581Y80300D01*
Y82150D01*
X101532Y82267D01*
X101415Y82316D01*
D02*
G37*
G36*
X71170Y49833D02*
X70450D01*
X70333Y49810D01*
X70234Y49743D01*
X70167Y49644D01*
X70144Y49527D01*
Y48537D01*
X70167Y48420D01*
X70234Y48321D01*
X70333Y48254D01*
X70450Y48231D01*
X71170D01*
X71287Y48254D01*
X71386Y48321D01*
X71453Y48420D01*
X71476Y48537D01*
Y49527D01*
X71453Y49644D01*
X71386Y49743D01*
X71287Y49810D01*
X71170Y49833D01*
D02*
G37*
G36*
X103955Y82316D02*
X103355D01*
X103238Y82267D01*
X103189Y82150D01*
Y80300D01*
X103238Y80183D01*
X103346Y80138D01*
Y48027D01*
X103238Y47982D01*
X103189Y47865D01*
Y45865D01*
X103238Y45748D01*
X103355Y45699D01*
X103955D01*
X104072Y45748D01*
X104121Y45865D01*
Y47865D01*
X104072Y47982D01*
X103964Y48027D01*
Y80138D01*
X104072Y80183D01*
X104121Y80300D01*
Y82150D01*
X104072Y82267D01*
X103955Y82316D01*
D02*
G37*
G36*
X36320Y70211D02*
X34920D01*
X34803Y70162D01*
X34754Y70045D01*
Y68645D01*
X34803Y68528D01*
X34920Y68479D01*
X36320D01*
X36437Y68528D01*
X36486Y68645D01*
Y70045D01*
X36437Y70162D01*
X36320Y70211D01*
D02*
G37*
G36*
X46951Y68964D02*
X46735Y68921D01*
X46553Y68799D01*
X46430Y68616D01*
X46408Y68502D01*
X46285Y68416D01*
X45335D01*
X45218Y68367D01*
X45169Y68250D01*
Y67850D01*
X45218Y67733D01*
X45335Y67684D01*
X46285D01*
X46402Y67733D01*
X46405Y67741D01*
X46601D01*
X46719Y67765D01*
X46820Y67832D01*
X46845Y67857D01*
X46951Y67836D01*
X47167Y67879D01*
X47350Y68001D01*
X47472Y68184D01*
X47515Y68400D01*
X47472Y68616D01*
X47350Y68799D01*
X47167Y68921D01*
X46951Y68964D01*
D02*
G37*
G36*
X41805Y70756D02*
X40815D01*
X40698Y70733D01*
X40599Y70667D01*
X40532Y70567D01*
X40509Y70450D01*
Y69730D01*
X40532Y69613D01*
X40599Y69514D01*
X40698Y69448D01*
X40815Y69425D01*
X41805D01*
X41922Y69448D01*
X42021Y69514D01*
X42088Y69613D01*
X42111Y69730D01*
Y70450D01*
X42088Y70567D01*
X42021Y70667D01*
X41922Y70733D01*
X41805Y70756D01*
D02*
G37*
G36*
X60000Y69509D02*
X56900D01*
X56782Y69485D01*
X56682Y69418D01*
X56206Y68943D01*
X56100Y68964D01*
X55884Y68921D01*
X55701Y68799D01*
X55579Y68616D01*
X55536Y68400D01*
X55579Y68184D01*
X55701Y68001D01*
X55884Y67879D01*
X56100Y67836D01*
X56316Y67879D01*
X56499Y68001D01*
X56621Y68184D01*
X56664Y68400D01*
X56643Y68506D01*
X57028Y68891D01*
X57361D01*
X57399Y68764D01*
X57301Y68699D01*
X57179Y68516D01*
X57136Y68300D01*
X57179Y68084D01*
X57301Y67901D01*
X57391Y67841D01*
Y57930D01*
X57391Y57930D01*
X57415Y57812D01*
X57482Y57712D01*
X61303Y53890D01*
X61232Y53719D01*
X61199Y53470D01*
X61232Y53221D01*
X61328Y52989D01*
X61480Y52790D01*
X61679Y52638D01*
X61911Y52542D01*
X62160Y52509D01*
X62409Y52542D01*
X62641Y52638D01*
X62840Y52790D01*
X62992Y52989D01*
X63088Y53221D01*
X63121Y53470D01*
X63088Y53719D01*
X62992Y53951D01*
X62840Y54150D01*
X62641Y54302D01*
X62409Y54398D01*
X62160Y54431D01*
X61911Y54398D01*
X61740Y54327D01*
X58009Y58058D01*
Y67841D01*
X58099Y67901D01*
X58221Y68084D01*
X58264Y68300D01*
X58221Y68516D01*
X58099Y68699D01*
X58001Y68764D01*
X58039Y68891D01*
X59872D01*
X67757Y61006D01*
X67736Y60900D01*
X67779Y60684D01*
X67901Y60501D01*
X68084Y60379D01*
X68300Y60336D01*
X68516Y60379D01*
X68699Y60501D01*
X68821Y60684D01*
X68864Y60900D01*
X68821Y61116D01*
X68699Y61299D01*
X68516Y61421D01*
X68300Y61464D01*
X68194Y61443D01*
X60218Y69418D01*
X60118Y69485D01*
X60000Y69509D01*
D02*
G37*
G36*
X38160Y61315D02*
X37937Y61286D01*
X37730Y61200D01*
X37552Y61063D01*
X37415Y60885D01*
X37329Y60678D01*
X37300Y60455D01*
X37329Y60232D01*
X37415Y60025D01*
X37552Y59847D01*
X37730Y59710D01*
X37937Y59624D01*
X38160Y59595D01*
X38383Y59624D01*
X38590Y59710D01*
X38768Y59847D01*
X38905Y60025D01*
X38991Y60232D01*
X39020Y60455D01*
X38991Y60678D01*
X38905Y60885D01*
X38768Y61063D01*
X38590Y61200D01*
X38383Y61286D01*
X38160Y61315D01*
D02*
G37*
G36*
X100145Y82316D02*
X99545D01*
X99428Y82267D01*
X99379Y82150D01*
Y80300D01*
X99428Y80183D01*
X99536Y80138D01*
Y48027D01*
X99428Y47982D01*
X99379Y47865D01*
Y45865D01*
X99428Y45748D01*
X99545Y45699D01*
X100145D01*
X100262Y45748D01*
X100311Y45865D01*
Y47865D01*
X100262Y47982D01*
X100154Y48027D01*
Y80138D01*
X100262Y80183D01*
X100311Y80300D01*
Y82150D01*
X100262Y82267D01*
X100145Y82316D01*
D02*
G37*
G36*
X29286Y60942D02*
X29270Y60938D01*
X29254Y60942D01*
X28943Y60912D01*
X28928Y60904D01*
X28911Y60906D01*
X28612Y60815D01*
X28599Y60804D01*
X28582Y60802D01*
X28307Y60655D01*
X28296Y60642D01*
X28280Y60637D01*
X28039Y60439D01*
X28031Y60424D01*
X28016Y60416D01*
X27818Y60175D01*
X27813Y60159D01*
X27800Y60148D01*
X27653Y59873D01*
X27651Y59856D01*
X27640Y59843D01*
X27549Y59544D01*
X27551Y59527D01*
X27543Y59512D01*
X27513Y59201D01*
X27515Y59193D01*
X27512Y59185D01*
X27515Y59177D01*
X27513Y59169D01*
X27543Y58858D01*
X27551Y58843D01*
X27549Y58826D01*
X27640Y58527D01*
X27651Y58514D01*
X27653Y58497D01*
X27800Y58222D01*
X27813Y58211D01*
X27818Y58195D01*
X28016Y57954D01*
X28031Y57946D01*
X28039Y57931D01*
X28280Y57733D01*
X28296Y57728D01*
X28307Y57715D01*
X28582Y57568D01*
X28599Y57566D01*
X28612Y57555D01*
X28911Y57464D01*
X28928Y57466D01*
X28943Y57458D01*
X29254Y57428D01*
X29270Y57432D01*
X29286Y57428D01*
X29597Y57458D01*
X29612Y57466D01*
X29629Y57464D01*
X29928Y57555D01*
X29941Y57566D01*
X29958Y57568D01*
X30233Y57715D01*
X30244Y57728D01*
X30260Y57733D01*
X30501Y57931D01*
X30509Y57946D01*
X30524Y57954D01*
X30722Y58195D01*
X30727Y58211D01*
X30740Y58222D01*
X30888Y58497D01*
X30889Y58514D01*
X30900Y58527D01*
X30991Y58826D01*
X30989Y58843D01*
X30997Y58858D01*
X31028Y59169D01*
X31025Y59177D01*
X31028Y59185D01*
X31025Y59193D01*
X31028Y59201D01*
X30997Y59512D01*
X30989Y59527D01*
X30991Y59544D01*
X30900Y59843D01*
X30889Y59856D01*
X30888Y59873D01*
X30740Y60148D01*
X30727Y60159D01*
X30722Y60175D01*
X30524Y60416D01*
X30509Y60424D01*
X30501Y60439D01*
X30260Y60637D01*
X30244Y60642D01*
X30233Y60655D01*
X29958Y60802D01*
X29941Y60804D01*
X29928Y60815D01*
X29629Y60906D01*
X29612Y60904D01*
X29597Y60912D01*
X29286Y60942D01*
D02*
G37*
G36*
X98875Y82316D02*
X98275D01*
X98158Y82267D01*
X98109Y82150D01*
Y80300D01*
X98158Y80183D01*
X98266Y80138D01*
Y48027D01*
X98158Y47982D01*
X98109Y47865D01*
Y45865D01*
X98158Y45748D01*
X98275Y45699D01*
X98875D01*
X98992Y45748D01*
X99041Y45865D01*
Y47865D01*
X98992Y47982D01*
X98884Y48027D01*
Y80138D01*
X98992Y80183D01*
X99041Y80300D01*
Y82150D01*
X98992Y82267D01*
X98875Y82316D01*
D02*
G37*
G36*
X116705Y103141D02*
X114455D01*
X114338Y103092D01*
X114289Y102975D01*
Y100996D01*
X111002Y97709D01*
X105730D01*
X105612Y97685D01*
X105512Y97618D01*
X102167Y94273D01*
X102100Y94173D01*
X102076Y94055D01*
Y91662D01*
X101968Y91617D01*
X101919Y91500D01*
Y89650D01*
X101968Y89533D01*
X102085Y89484D01*
X102685D01*
X102802Y89533D01*
X102851Y89650D01*
Y91500D01*
X102802Y91617D01*
X102694Y91662D01*
Y93927D01*
X105858Y97091D01*
X111130D01*
X111248Y97115D01*
X111348Y97182D01*
X114726Y100559D01*
X116705D01*
X116822Y100608D01*
X116871Y100725D01*
Y102975D01*
X116822Y103092D01*
X116705Y103141D01*
D02*
G37*
G36*
X101465D02*
X99215D01*
X99098Y103092D01*
X99049Y102975D01*
Y100996D01*
X98357Y100303D01*
X98290Y100203D01*
X98266Y100085D01*
Y91662D01*
X98158Y91617D01*
X98109Y91500D01*
Y89650D01*
X98158Y89533D01*
X98275Y89484D01*
X98875D01*
X98992Y89533D01*
X99041Y89650D01*
Y91500D01*
X98992Y91617D01*
X98884Y91662D01*
Y99957D01*
X99486Y100559D01*
X101465D01*
X101582Y100608D01*
X101631Y100725D01*
Y102975D01*
X101582Y103092D01*
X101465Y103141D01*
D02*
G37*
G36*
X45590Y29356D02*
X43340D01*
X43223Y29333D01*
X43124Y29266D01*
X43057Y29167D01*
X43034Y29050D01*
Y26800D01*
X43057Y26683D01*
X43124Y26584D01*
X43223Y26517D01*
X43340Y26494D01*
X45590D01*
X45707Y26517D01*
X45806Y26584D01*
X45873Y26683D01*
X45896Y26800D01*
Y29050D01*
X45873Y29167D01*
X45806Y29266D01*
X45707Y29333D01*
X45590Y29356D01*
D02*
G37*
G36*
X97605Y38630D02*
X97005D01*
X96888Y38582D01*
X96839Y38465D01*
Y36465D01*
X96888Y36348D01*
X96996Y36303D01*
Y35178D01*
X91034Y29216D01*
X89055D01*
X88938Y29167D01*
X88889Y29050D01*
Y26800D01*
X88938Y26683D01*
X89055Y26634D01*
X91305D01*
X91422Y26683D01*
X91471Y26800D01*
Y28779D01*
X97523Y34832D01*
X97590Y34932D01*
X97614Y35050D01*
Y36303D01*
X97722Y36348D01*
X97771Y36465D01*
Y38465D01*
X97722Y38582D01*
X97605Y38630D01*
D02*
G37*
G36*
X80020Y103139D02*
X79686Y103095D01*
X79375Y102966D01*
X79109Y102761D01*
X78904Y102495D01*
X78775Y102184D01*
X78731Y101850D01*
X78775Y101516D01*
X78904Y101205D01*
X79109Y100939D01*
X79375Y100734D01*
X79686Y100605D01*
X80020Y100561D01*
X80354Y100605D01*
X80665Y100734D01*
X80684Y100749D01*
X83002Y98432D01*
X83102Y98365D01*
X83220Y98341D01*
X90872D01*
X94456Y94757D01*
Y91662D01*
X94348Y91617D01*
X94299Y91500D01*
Y89650D01*
X94348Y89533D01*
X94465Y89484D01*
X95065D01*
X95182Y89533D01*
X95231Y89650D01*
Y91500D01*
X95182Y91617D01*
X95074Y91662D01*
Y94885D01*
X95050Y95003D01*
X94983Y95103D01*
X91218Y98868D01*
X91118Y98935D01*
X91000Y98959D01*
X83348D01*
X81121Y101186D01*
X81136Y101205D01*
X81265Y101516D01*
X81309Y101850D01*
X81265Y102184D01*
X81136Y102495D01*
X80931Y102761D01*
X80665Y102966D01*
X80354Y103095D01*
X80020Y103139D01*
D02*
G37*
G36*
X91255Y91666D02*
X90655D01*
X90538Y91617D01*
X90489Y91500D01*
Y89650D01*
X90538Y89533D01*
X90655Y89484D01*
X91255D01*
X91372Y89533D01*
X91421Y89650D01*
Y91500D01*
X91372Y91617D01*
X91255Y91666D01*
D02*
G37*
G36*
X95260Y103139D02*
X94926Y103095D01*
X94615Y102966D01*
X94349Y102761D01*
X94144Y102495D01*
X94015Y102184D01*
X93971Y101850D01*
X94015Y101516D01*
X94144Y101205D01*
X94349Y100939D01*
X94615Y100734D01*
X94926Y100605D01*
X95260Y100561D01*
X95594Y100605D01*
X95905Y100734D01*
X95924Y100749D01*
X96996Y99677D01*
Y91662D01*
X96888Y91617D01*
X96839Y91500D01*
Y89650D01*
X96888Y89533D01*
X97005Y89484D01*
X97605D01*
X97722Y89533D01*
X97771Y89650D01*
Y91500D01*
X97722Y91617D01*
X97614Y91662D01*
Y99805D01*
X97590Y99923D01*
X97523Y100023D01*
X96361Y101186D01*
X96376Y101205D01*
X96505Y101516D01*
X96549Y101850D01*
X96505Y102184D01*
X96376Y102495D01*
X96171Y102761D01*
X95905Y102966D01*
X95594Y103095D01*
X95260Y103139D01*
D02*
G37*
G36*
X90180D02*
X89846Y103095D01*
X89535Y102966D01*
X89269Y102761D01*
X89064Y102495D01*
X88935Y102184D01*
X88891Y101850D01*
X88935Y101516D01*
X89064Y101205D01*
X89269Y100939D01*
X89535Y100734D01*
X89846Y100605D01*
X90180Y100561D01*
X90514Y100605D01*
X90825Y100734D01*
X90844Y100749D01*
X95726Y95867D01*
Y91662D01*
X95618Y91617D01*
X95569Y91500D01*
Y89650D01*
X95618Y89533D01*
X95735Y89484D01*
X96335D01*
X96452Y89533D01*
X96501Y89650D01*
Y91500D01*
X96452Y91617D01*
X96344Y91662D01*
Y95995D01*
X96320Y96113D01*
X96253Y96213D01*
X91281Y101186D01*
X91296Y101205D01*
X91425Y101516D01*
X91469Y101850D01*
X91425Y102184D01*
X91296Y102495D01*
X91091Y102761D01*
X90825Y102966D01*
X90514Y103095D01*
X90180Y103139D01*
D02*
G37*
G36*
X86225Y103281D02*
X83975D01*
X83858Y103258D01*
X83759Y103191D01*
X83692Y103092D01*
X83669Y102975D01*
Y100725D01*
X83692Y100608D01*
X83759Y100509D01*
X83858Y100442D01*
X83975Y100419D01*
X86225D01*
X86342Y100442D01*
X86441Y100509D01*
X86508Y100608D01*
X86531Y100725D01*
Y102975D01*
X86508Y103092D01*
X86441Y103191D01*
X86342Y103258D01*
X86225Y103281D01*
D02*
G37*
G36*
X72745Y43156D02*
X67055D01*
X66938Y43107D01*
X66889Y42990D01*
Y36810D01*
X66938Y36693D01*
X66984Y36674D01*
Y26636D01*
X67033Y26519D01*
X67150Y26470D01*
X72650D01*
X72767Y26519D01*
X72816Y26636D01*
Y36674D01*
X72862Y36693D01*
X72911Y36810D01*
Y42990D01*
X72862Y43107D01*
X72745Y43156D01*
D02*
G37*
G36*
X110500Y103139D02*
X110166Y103095D01*
X109855Y102966D01*
X109589Y102761D01*
X109384Y102495D01*
X109255Y102184D01*
X109211Y101850D01*
X109255Y101516D01*
X109384Y101205D01*
X109399Y101186D01*
X107172Y98959D01*
X104700D01*
X104582Y98935D01*
X104482Y98868D01*
X100897Y95283D01*
X100830Y95183D01*
X100806Y95065D01*
Y91662D01*
X100698Y91617D01*
X100649Y91500D01*
Y89650D01*
X100698Y89533D01*
X100815Y89484D01*
X101415D01*
X101532Y89533D01*
X101581Y89650D01*
Y91500D01*
X101532Y91617D01*
X101424Y91662D01*
Y94937D01*
X104828Y98341D01*
X107300D01*
X107418Y98365D01*
X107518Y98432D01*
X109836Y100749D01*
X109855Y100734D01*
X110166Y100605D01*
X110500Y100561D01*
X110834Y100605D01*
X111145Y100734D01*
X111411Y100939D01*
X111616Y101205D01*
X111745Y101516D01*
X111789Y101850D01*
X111745Y102184D01*
X111616Y102495D01*
X111411Y102761D01*
X111145Y102966D01*
X110834Y103095D01*
X110500Y103139D01*
D02*
G37*
G36*
X105420D02*
X105086Y103095D01*
X104775Y102966D01*
X104509Y102761D01*
X104304Y102495D01*
X104175Y102184D01*
X104131Y101850D01*
X104175Y101516D01*
X104304Y101205D01*
X104319Y101186D01*
X99627Y96493D01*
X99560Y96393D01*
X99536Y96275D01*
Y91662D01*
X99428Y91617D01*
X99379Y91500D01*
Y89650D01*
X99428Y89533D01*
X99545Y89484D01*
X100145D01*
X100262Y89533D01*
X100311Y89650D01*
Y91500D01*
X100262Y91617D01*
X100154Y91662D01*
Y96147D01*
X104756Y100749D01*
X104775Y100734D01*
X105086Y100605D01*
X105420Y100561D01*
X105754Y100605D01*
X106065Y100734D01*
X106331Y100939D01*
X106536Y101205D01*
X106665Y101516D01*
X106709Y101850D01*
X106665Y102184D01*
X106536Y102495D01*
X106331Y102761D01*
X106065Y102966D01*
X105754Y103095D01*
X105420Y103139D01*
D02*
G37*
G36*
X30350Y29356D02*
X28100D01*
X27983Y29333D01*
X27884Y29266D01*
X27817Y29167D01*
X27794Y29050D01*
Y26800D01*
X27817Y26683D01*
X27884Y26584D01*
X27983Y26517D01*
X28100Y26494D01*
X30350D01*
X30467Y26517D01*
X30566Y26584D01*
X30633Y26683D01*
X30656Y26800D01*
Y29050D01*
X30633Y29167D01*
X30566Y29266D01*
X30467Y29333D01*
X30350Y29356D01*
D02*
G37*
G36*
X92550Y93706D02*
X91600D01*
X91483Y93683D01*
X91384Y93616D01*
X91317Y93517D01*
X91294Y93400D01*
Y92400D01*
X91317Y92283D01*
X91384Y92184D01*
X91483Y92117D01*
X91600Y92094D01*
X92550D01*
X92667Y92117D01*
X92766Y92184D01*
X92833Y92283D01*
X92856Y92400D01*
Y93400D01*
X92833Y93517D01*
X92766Y93616D01*
X92667Y93683D01*
X92550Y93706D01*
D02*
G37*
G36*
X34305Y29362D02*
X33933Y29313D01*
X33586Y29170D01*
X33289Y28941D01*
X33060Y28644D01*
X32917Y28297D01*
X32868Y27925D01*
X32917Y27553D01*
X33060Y27206D01*
X33289Y26909D01*
X33586Y26680D01*
X33933Y26537D01*
X34305Y26488D01*
X34677Y26537D01*
X35024Y26680D01*
X35321Y26909D01*
X35550Y27206D01*
X35693Y27553D01*
X35742Y27925D01*
X35693Y28297D01*
X35550Y28644D01*
X35321Y28941D01*
X35024Y29170D01*
X34677Y29313D01*
X34305Y29362D01*
D02*
G37*
G36*
X39385D02*
X39013Y29313D01*
X38666Y29170D01*
X38369Y28941D01*
X38140Y28644D01*
X37997Y28297D01*
X37948Y27925D01*
X37997Y27553D01*
X38140Y27206D01*
X38369Y26909D01*
X38666Y26680D01*
X39013Y26537D01*
X39385Y26488D01*
X39757Y26537D01*
X40104Y26680D01*
X40401Y26909D01*
X40630Y27206D01*
X40773Y27553D01*
X40822Y27925D01*
X40773Y28297D01*
X40630Y28644D01*
X40401Y28941D01*
X40104Y29170D01*
X39757Y29313D01*
X39385Y29362D01*
D02*
G37*
G36*
X68312Y47784D02*
X66915D01*
X66798Y47761D01*
X66699Y47694D01*
X66633Y47595D01*
X66610Y47478D01*
Y45192D01*
X66633Y45075D01*
X66699Y44976D01*
X66798Y44909D01*
X66915Y44886D01*
X68312D01*
X68430Y44909D01*
X68529Y44976D01*
X68595Y45075D01*
X68618Y45192D01*
Y47478D01*
X68595Y47595D01*
X68529Y47694D01*
X68430Y47761D01*
X68312Y47784D01*
D02*
G37*
G36*
X32270Y85561D02*
X31550D01*
X31433Y85512D01*
X31384Y85395D01*
Y84405D01*
X31433Y84288D01*
X31461Y84139D01*
X31379Y84016D01*
X31336Y83800D01*
X31379Y83584D01*
X31501Y83401D01*
X31684Y83279D01*
X31900Y83236D01*
X32116Y83279D01*
X32299Y83401D01*
X32421Y83584D01*
X32464Y83800D01*
X32421Y84016D01*
X32343Y84132D01*
X32380Y84284D01*
X32382Y84286D01*
X32387Y84288D01*
X32436Y84405D01*
Y85395D01*
X32387Y85512D01*
X32270Y85561D01*
D02*
G37*
G36*
X98875Y38630D02*
X98275D01*
X98158Y38582D01*
X98109Y38465D01*
Y36465D01*
X98158Y36348D01*
X98266Y36303D01*
Y31368D01*
X95924Y29026D01*
X95905Y29041D01*
X95594Y29170D01*
X95260Y29214D01*
X94926Y29170D01*
X94615Y29041D01*
X94349Y28836D01*
X94144Y28570D01*
X94015Y28259D01*
X93971Y27925D01*
X94015Y27591D01*
X94144Y27280D01*
X94349Y27014D01*
X94615Y26809D01*
X94926Y26680D01*
X95260Y26636D01*
X95594Y26680D01*
X95905Y26809D01*
X96171Y27014D01*
X96376Y27280D01*
X96505Y27591D01*
X96549Y27925D01*
X96505Y28259D01*
X96376Y28570D01*
X96361Y28589D01*
X98793Y31022D01*
X98860Y31122D01*
X98884Y31240D01*
Y36303D01*
X98992Y36348D01*
X99041Y36465D01*
Y38465D01*
X98992Y38582D01*
X98875Y38630D01*
D02*
G37*
G36*
X111484Y87330D02*
X110236D01*
X110119Y87307D01*
X110020Y87240D01*
X109953Y87141D01*
X109930Y87024D01*
Y85776D01*
X109953Y85659D01*
X110020Y85560D01*
X110055Y85536D01*
X110017Y85409D01*
X90959D01*
X90899Y85499D01*
X90716Y85621D01*
X90500Y85664D01*
X90284Y85621D01*
X90101Y85499D01*
X89979Y85316D01*
X89936Y85100D01*
X89979Y84884D01*
X90101Y84701D01*
X90284Y84579D01*
X90500Y84536D01*
X90716Y84579D01*
X90899Y84701D01*
X90959Y84791D01*
X112100D01*
X112218Y84815D01*
X112318Y84882D01*
X113114Y85677D01*
X113197Y85643D01*
X113400Y85616D01*
X113603Y85643D01*
X113792Y85721D01*
X113954Y85846D01*
X114079Y86008D01*
X114157Y86197D01*
X114184Y86400D01*
X114157Y86603D01*
X114079Y86792D01*
X113954Y86954D01*
X113792Y87079D01*
X113603Y87157D01*
X113400Y87184D01*
X113197Y87157D01*
X113008Y87079D01*
X112846Y86954D01*
X112721Y86792D01*
X112643Y86603D01*
X112616Y86400D01*
X112643Y86197D01*
X112677Y86114D01*
X111972Y85409D01*
X111703D01*
X111665Y85536D01*
X111700Y85560D01*
X111767Y85659D01*
X111790Y85776D01*
Y87024D01*
X111767Y87141D01*
X111700Y87240D01*
X111601Y87307D01*
X111484Y87330D01*
D02*
G37*
G36*
X118922Y81073D02*
X118900Y81067D01*
X118878Y81073D01*
X118617Y81038D01*
X118598Y81027D01*
X118576D01*
X118332Y80926D01*
X118316Y80911D01*
X118295Y80905D01*
X118086Y80745D01*
X118075Y80725D01*
X118055Y80714D01*
X117895Y80505D01*
X117889Y80484D01*
X117873Y80468D01*
X117773Y80224D01*
Y80202D01*
X117762Y80183D01*
X117727Y79922D01*
X117730Y79911D01*
X117726Y79900D01*
X117730Y79889D01*
X117727Y79878D01*
X117762Y79617D01*
X117773Y79598D01*
Y79576D01*
X117873Y79332D01*
X117889Y79316D01*
X117895Y79295D01*
X118055Y79086D01*
X118075Y79075D01*
X118086Y79055D01*
X118295Y78895D01*
X118316Y78889D01*
X118332Y78873D01*
X118576Y78773D01*
X118598D01*
X118617Y78762D01*
X118878Y78727D01*
X118900Y78733D01*
X118922Y78727D01*
X119183Y78762D01*
X119202Y78773D01*
X119224D01*
X119468Y78873D01*
X119484Y78889D01*
X119505Y78895D01*
X119714Y79055D01*
X119725Y79075D01*
X119745Y79086D01*
X119905Y79295D01*
X119911Y79316D01*
X119926Y79332D01*
X120027Y79576D01*
Y79598D01*
X120038Y79617D01*
X120073Y79878D01*
X120070Y79889D01*
X120074Y79900D01*
X120070Y79911D01*
X120073Y79922D01*
X120038Y80183D01*
X120027Y80202D01*
Y80224D01*
X119926Y80468D01*
X119911Y80484D01*
X119905Y80505D01*
X119745Y80714D01*
X119725Y80725D01*
X119714Y80745D01*
X119505Y80905D01*
X119484Y80911D01*
X119468Y80926D01*
X119224Y81027D01*
X119202D01*
X119183Y81038D01*
X118922Y81073D01*
D02*
G37*
G36*
X43104Y81581D02*
X42104D01*
X41987Y81558D01*
X41888Y81491D01*
X41822Y81392D01*
X41798Y81275D01*
Y80625D01*
X41822Y80508D01*
X41888Y80409D01*
X41987Y80342D01*
X42104Y80319D01*
X43104D01*
X43221Y80342D01*
X43320Y80409D01*
X43387Y80508D01*
X43410Y80625D01*
Y81275D01*
X43387Y81392D01*
X43320Y81491D01*
X43221Y81558D01*
X43104Y81581D01*
D02*
G37*
G36*
X66300Y51464D02*
X66084Y51421D01*
X65901Y51299D01*
X65779Y51116D01*
X65736Y50900D01*
X65779Y50684D01*
X65901Y50501D01*
X66084Y50379D01*
X66300Y50336D01*
X66406Y50357D01*
X66528Y50235D01*
X66629Y50168D01*
X66747Y50144D01*
X71351D01*
X71736Y49759D01*
X71713Y49644D01*
X71664Y49527D01*
Y48537D01*
X71713Y48420D01*
X71830Y48371D01*
X71877D01*
Y47644D01*
X71488D01*
X71370Y47595D01*
X71322Y47478D01*
Y45192D01*
X71370Y45075D01*
X71488Y45026D01*
X72884D01*
X73002Y45075D01*
X73050Y45192D01*
Y47478D01*
X73002Y47595D01*
X72884Y47644D01*
X72495D01*
Y48371D01*
X72550D01*
X72667Y48420D01*
X72716Y48537D01*
Y49527D01*
X72667Y49644D01*
X72550Y49693D01*
X72495D01*
Y49746D01*
X72471Y49864D01*
X72404Y49965D01*
X71697Y50672D01*
X71597Y50739D01*
X71479Y50762D01*
X66963D01*
X66860Y50883D01*
X66864Y50900D01*
X66821Y51116D01*
X66699Y51299D01*
X66516Y51421D01*
X66300Y51464D01*
D02*
G37*
G36*
X25922Y81073D02*
X25900Y81067D01*
X25878Y81073D01*
X25617Y81038D01*
X25598Y81027D01*
X25576D01*
X25332Y80926D01*
X25316Y80911D01*
X25295Y80905D01*
X25086Y80745D01*
X25075Y80725D01*
X25055Y80714D01*
X24895Y80505D01*
X24889Y80484D01*
X24874Y80468D01*
X24773Y80224D01*
Y80202D01*
X24762Y80183D01*
X24727Y79922D01*
X24730Y79911D01*
X24726Y79900D01*
X24730Y79889D01*
X24727Y79878D01*
X24762Y79617D01*
X24773Y79598D01*
Y79576D01*
X24874Y79332D01*
X24889Y79316D01*
X24895Y79295D01*
X25055Y79086D01*
X25075Y79075D01*
X25086Y79055D01*
X25295Y78895D01*
X25316Y78889D01*
X25332Y78873D01*
X25576Y78773D01*
X25598D01*
X25617Y78762D01*
X25878Y78727D01*
X25900Y78733D01*
X25922Y78727D01*
X26183Y78762D01*
X26202Y78773D01*
X26224D01*
X26468Y78873D01*
X26484Y78889D01*
X26505Y78895D01*
X26714Y79055D01*
X26725Y79075D01*
X26745Y79086D01*
X26905Y79295D01*
X26911Y79316D01*
X26927Y79332D01*
X27027Y79576D01*
Y79598D01*
X27038Y79617D01*
X27073Y79878D01*
X27070Y79889D01*
X27074Y79900D01*
X27070Y79911D01*
X27073Y79922D01*
X27038Y80183D01*
X27027Y80202D01*
Y80224D01*
X26927Y80468D01*
X26911Y80484D01*
X26905Y80505D01*
X26745Y80714D01*
X26725Y80725D01*
X26714Y80745D01*
X26505Y80905D01*
X26484Y80911D01*
X26468Y80926D01*
X26224Y81027D01*
X26202D01*
X26183Y81038D01*
X25922Y81073D01*
D02*
G37*
G36*
X100145Y38630D02*
X99545D01*
X99428Y38582D01*
X99379Y38465D01*
Y36465D01*
X99428Y36348D01*
X99536Y36303D01*
Y31205D01*
X99560Y31087D01*
X99627Y30987D01*
X100031Y30582D01*
Y29173D01*
X100006Y29170D01*
X99695Y29041D01*
X99429Y28836D01*
X99224Y28570D01*
X99095Y28259D01*
X99051Y27925D01*
X99095Y27591D01*
X99224Y27280D01*
X99429Y27014D01*
X99695Y26809D01*
X100006Y26680D01*
X100340Y26636D01*
X100674Y26680D01*
X100985Y26809D01*
X101251Y27014D01*
X101456Y27280D01*
X101585Y27591D01*
X101629Y27925D01*
X101585Y28259D01*
X101456Y28570D01*
X101251Y28836D01*
X100985Y29041D01*
X100674Y29170D01*
X100649Y29173D01*
Y30710D01*
X100625Y30828D01*
X100558Y30928D01*
X100154Y31333D01*
Y36303D01*
X100262Y36348D01*
X100311Y36465D01*
Y38465D01*
X100262Y38582D01*
X100145Y38630D01*
D02*
G37*
G36*
X102685D02*
X102085D01*
X101968Y38582D01*
X101919Y38465D01*
Y36465D01*
X101968Y36348D01*
X102076Y36303D01*
Y36040D01*
X102076Y36040D01*
X102076Y35790D01*
X102100Y35672D01*
X102167Y35572D01*
X109321Y28417D01*
X109255Y28259D01*
X109211Y27925D01*
X109255Y27591D01*
X109384Y27280D01*
X109589Y27014D01*
X109855Y26809D01*
X110166Y26680D01*
X110500Y26636D01*
X110834Y26680D01*
X111145Y26809D01*
X111411Y27014D01*
X111616Y27280D01*
X111745Y27591D01*
X111789Y27925D01*
X111745Y28259D01*
X111616Y28570D01*
X111411Y28836D01*
X111145Y29041D01*
X110834Y29170D01*
X110500Y29214D01*
X110166Y29170D01*
X109855Y29041D01*
X109694Y28918D01*
X102694Y35918D01*
Y36303D01*
X102802Y36348D01*
X102851Y36465D01*
Y38465D01*
X102802Y38582D01*
X102685Y38630D01*
D02*
G37*
G36*
X101415D02*
X100815D01*
X100698Y38582D01*
X100649Y38465D01*
Y36465D01*
X100698Y36348D01*
X100806Y36303D01*
Y32230D01*
X100830Y32112D01*
X100897Y32012D01*
X104129Y28779D01*
Y26800D01*
X104178Y26683D01*
X104295Y26634D01*
X106545D01*
X106662Y26683D01*
X106711Y26800D01*
Y29050D01*
X106662Y29167D01*
X106545Y29216D01*
X104566D01*
X101424Y32358D01*
Y36303D01*
X101532Y36348D01*
X101581Y36465D01*
Y38465D01*
X101532Y38582D01*
X101415Y38630D01*
D02*
G37*
G36*
X92525Y91806D02*
X91925D01*
X91808Y91783D01*
X91709Y91716D01*
X91642Y91617D01*
X91619Y91500D01*
Y89650D01*
X91642Y89533D01*
X91709Y89434D01*
X91808Y89367D01*
X91925Y89344D01*
X92525D01*
X92642Y89367D01*
X92741Y89434D01*
X92808Y89533D01*
X92831Y89650D01*
Y91500D01*
X92808Y91617D01*
X92741Y91716D01*
X92642Y91783D01*
X92525Y91806D01*
D02*
G37*
G36*
X96335Y38630D02*
X95735D01*
X95618Y38582D01*
X95569Y38465D01*
Y36465D01*
X95618Y36348D01*
X95726Y36303D01*
Y35813D01*
X91372Y31459D01*
X88325D01*
X88207Y31435D01*
X88107Y31368D01*
X85764Y29026D01*
X85745Y29041D01*
X85434Y29170D01*
X85100Y29214D01*
X84766Y29170D01*
X84455Y29041D01*
X84189Y28836D01*
X83984Y28570D01*
X83855Y28259D01*
X83811Y27925D01*
X83855Y27591D01*
X83984Y27280D01*
X84189Y27014D01*
X84455Y26809D01*
X84766Y26680D01*
X85100Y26636D01*
X85434Y26680D01*
X85745Y26809D01*
X86011Y27014D01*
X86216Y27280D01*
X86345Y27591D01*
X86389Y27925D01*
X86345Y28259D01*
X86216Y28570D01*
X86201Y28589D01*
X88453Y30841D01*
X91500D01*
X91618Y30865D01*
X91718Y30932D01*
X96253Y35467D01*
X96320Y35567D01*
X96344Y35685D01*
Y36303D01*
X96452Y36348D01*
X96501Y36465D01*
Y38465D01*
X96452Y38582D01*
X96335Y38630D01*
D02*
G37*
G36*
X77375Y106313D02*
X32520D01*
X32219Y106273D01*
X31939Y106157D01*
X31698Y105972D01*
X28774Y103049D01*
X28575Y102966D01*
X28309Y102761D01*
X28104Y102495D01*
X27975Y102184D01*
X27931Y101850D01*
X27975Y101516D01*
X28057Y101318D01*
Y76840D01*
X28097Y76539D01*
X28213Y76259D01*
X28398Y76018D01*
X31240Y73175D01*
X31239Y73160D01*
Y61650D01*
Y58075D01*
X31239Y58075D01*
X31271Y57751D01*
X31365Y57439D01*
X31519Y57152D01*
X31726Y56901D01*
X35300Y53326D01*
X35300Y53326D01*
X35552Y53119D01*
X35839Y52965D01*
X36151Y52871D01*
X36475Y52839D01*
X36475Y52839D01*
X39712D01*
X40239Y52312D01*
Y51200D01*
X30983D01*
X30983Y42603D01*
X34026Y39560D01*
X38833Y39560D01*
X41793Y36600D01*
X49984D01*
Y30066D01*
X48336D01*
X42936Y35466D01*
X42799Y35570D01*
X42640Y35636D01*
X42470Y35659D01*
X42470Y35659D01*
X34373D01*
X29809Y40223D01*
Y52225D01*
X29809Y52225D01*
X29786Y52395D01*
X29720Y52554D01*
X29616Y52691D01*
X26659Y55648D01*
Y61427D01*
X30616Y65384D01*
X30720Y65521D01*
X30786Y65680D01*
X30809Y65850D01*
X30786Y66020D01*
X30720Y66179D01*
X30616Y66316D01*
X30479Y66420D01*
X30320Y66486D01*
X30150Y66509D01*
X29980Y66486D01*
X29821Y66420D01*
X29684Y66316D01*
X25534Y62166D01*
X25430Y62029D01*
X25364Y61870D01*
X25341Y61700D01*
X25341Y61700D01*
Y55375D01*
X25341Y55375D01*
X25364Y55205D01*
X25430Y55046D01*
X25534Y54909D01*
X28491Y51952D01*
Y39950D01*
X28491Y39950D01*
X28514Y39780D01*
X28580Y39621D01*
X28684Y39484D01*
X33634Y34534D01*
X33634Y34534D01*
X33771Y34430D01*
X33930Y34364D01*
X34100Y34341D01*
X34100Y34341D01*
X42197D01*
X47984Y28554D01*
Y26150D01*
X48033Y26033D01*
X48150Y25984D01*
X59934D01*
Y24700D01*
Y23000D01*
X59983Y22883D01*
X60100Y22834D01*
X76325D01*
X76442Y22883D01*
X76491Y23000D01*
Y25500D01*
Y28822D01*
X82306Y34638D01*
X92000D01*
X92177Y34673D01*
X92327Y34773D01*
X93822Y36268D01*
X93860Y36326D01*
X93912Y36348D01*
X93961Y36465D01*
Y38465D01*
X93912Y38582D01*
X93795Y38630D01*
X93195D01*
X93078Y38582D01*
X93029Y38465D01*
Y36783D01*
X91809Y35562D01*
X82115D01*
X81938Y35527D01*
X81788Y35427D01*
X75902Y29541D01*
X73525D01*
X73408Y29492D01*
X73359Y29375D01*
Y25666D01*
X66316D01*
Y26500D01*
Y29900D01*
X66267Y30017D01*
X66150Y30066D01*
X55066D01*
Y39650D01*
Y47434D01*
X51300Y51200D01*
X47458D01*
Y52678D01*
X48340Y53560D01*
X48340Y53560D01*
X50362Y55583D01*
X50547Y55824D01*
X50663Y56104D01*
X50703Y56405D01*
Y60371D01*
X50830Y60439D01*
X50919Y60379D01*
X51135Y60336D01*
X51241Y60357D01*
X57091Y54507D01*
Y52580D01*
X57115Y52462D01*
X57182Y52362D01*
X57782Y51762D01*
X57882Y51695D01*
X58000Y51671D01*
X67090D01*
X67698Y51063D01*
X67798Y50996D01*
X67916Y50973D01*
X72672D01*
X72790Y50996D01*
X72890Y51063D01*
X74440Y52613D01*
X74611Y52542D01*
X74860Y52509D01*
X75109Y52542D01*
X75341Y52638D01*
X75540Y52790D01*
X75692Y52989D01*
X75788Y53221D01*
X75821Y53470D01*
X75788Y53719D01*
X75692Y53951D01*
X75540Y54150D01*
X75341Y54302D01*
X75109Y54398D01*
X74860Y54431D01*
X74611Y54398D01*
X74379Y54302D01*
X74180Y54150D01*
X74028Y53951D01*
X73932Y53719D01*
X73899Y53470D01*
X73932Y53221D01*
X74003Y53050D01*
X72544Y51590D01*
X68044D01*
X67436Y52199D01*
X67336Y52266D01*
X67218Y52289D01*
X58128D01*
X57709Y52708D01*
Y54635D01*
X57685Y54753D01*
X57618Y54853D01*
X51678Y60794D01*
X51699Y60900D01*
X51656Y61116D01*
X51534Y61299D01*
X51351Y61421D01*
X51135Y61464D01*
X50919Y61421D01*
X50830Y61361D01*
X50703Y61429D01*
Y64058D01*
X56382Y69737D01*
X76100D01*
X76401Y69777D01*
X76681Y69893D01*
X76922Y70078D01*
X78222Y71378D01*
X78407Y71619D01*
X78523Y71899D01*
X78563Y72200D01*
Y73400D01*
Y76330D01*
X78523Y76631D01*
X78407Y76911D01*
X78366Y76966D01*
Y77130D01*
X78317Y77247D01*
X78200Y77296D01*
X78036D01*
X77981Y77337D01*
X77701Y77453D01*
X77400Y77493D01*
X77099Y77453D01*
X76819Y77337D01*
X76764Y77296D01*
X76600D01*
X76483Y77247D01*
X76434Y77130D01*
Y76966D01*
X76393Y76911D01*
X76277Y76631D01*
X76237Y76330D01*
Y73400D01*
Y72682D01*
X75618Y72063D01*
X55900D01*
X55599Y72023D01*
X55319Y71907D01*
X55078Y71722D01*
X48718Y65362D01*
X48533Y65121D01*
X48417Y64841D01*
X48377Y64540D01*
Y61393D01*
X48250Y61331D01*
X48116Y61421D01*
X47900Y61464D01*
X47684Y61421D01*
X47501Y61299D01*
X47441Y61209D01*
X46682D01*
X46578Y61336D01*
X46581Y61350D01*
Y61750D01*
X46558Y61867D01*
X46491Y61966D01*
X46392Y62033D01*
X46275Y62056D01*
X45325D01*
X45299Y62051D01*
X45172Y62150D01*
Y62290D01*
X45299Y62361D01*
X45385Y62344D01*
X46335D01*
X46452Y62367D01*
X46551Y62434D01*
X46618Y62533D01*
X46641Y62650D01*
Y63650D01*
X46618Y63767D01*
X46551Y63866D01*
X46452Y63932D01*
X46335Y63956D01*
X45385D01*
X45299Y63939D01*
X45172Y64009D01*
Y64157D01*
X45299Y64251D01*
X45335Y64244D01*
X46285D01*
X46402Y64267D01*
X46501Y64334D01*
X46568Y64433D01*
X46591Y64550D01*
Y64950D01*
X46587Y64967D01*
X46691Y65094D01*
X47853D01*
X47971Y65118D01*
X48071Y65184D01*
X55478Y72591D01*
X68890D01*
X69008Y72615D01*
X69108Y72682D01*
X71900Y75473D01*
X72071Y75402D01*
X72320Y75369D01*
X72569Y75402D01*
X72801Y75498D01*
X73000Y75650D01*
X73152Y75849D01*
X73248Y76081D01*
X73281Y76330D01*
X73248Y76579D01*
X73152Y76811D01*
X73000Y77010D01*
X72801Y77162D01*
X72569Y77258D01*
X72320Y77291D01*
X72071Y77258D01*
X71839Y77162D01*
X71640Y77010D01*
X71488Y76811D01*
X71392Y76579D01*
X71359Y76330D01*
X71392Y76081D01*
X71463Y75910D01*
X68762Y73209D01*
X55350D01*
X55232Y73185D01*
X55132Y73118D01*
X47725Y65712D01*
X46693D01*
X46589Y65839D01*
X46591Y65850D01*
Y66250D01*
X46568Y66367D01*
X46501Y66466D01*
X46402Y66533D01*
X46285Y66556D01*
X45335D01*
X45218Y66533D01*
X45119Y66466D01*
X45052Y66367D01*
X45029Y66250D01*
Y65850D01*
X45052Y65733D01*
X45119Y65634D01*
X45169Y65600D01*
Y65200D01*
X45119Y65166D01*
X45118Y65166D01*
X44947Y65137D01*
X44887Y65177D01*
X44710Y65212D01*
X44533Y65177D01*
X44383Y65077D01*
X44372Y65059D01*
X44205D01*
X44202Y65067D01*
X44085Y65116D01*
X43135D01*
X43018Y65067D01*
X42969Y64950D01*
Y64550D01*
X43018Y64433D01*
X43135Y64384D01*
X44085D01*
X44121Y64399D01*
X44248Y64314D01*
Y63815D01*
X43785D01*
X43668Y63767D01*
X43620Y63650D01*
Y62650D01*
X43668Y62533D01*
X43785Y62484D01*
X44248D01*
Y61977D01*
X44121Y61896D01*
X44075Y61916D01*
X43125D01*
X43008Y61867D01*
X43005Y61859D01*
X42078D01*
X40723Y63213D01*
X40623Y63280D01*
X40505Y63304D01*
X38955D01*
X38905Y63425D01*
X38768Y63603D01*
X38590Y63740D01*
X38383Y63826D01*
X38360Y63829D01*
X38368Y63956D01*
X40505D01*
X40623Y63980D01*
X40723Y64047D01*
X42418Y65741D01*
X43015D01*
X43018Y65733D01*
X43135Y65684D01*
X44085D01*
X44202Y65733D01*
X44251Y65850D01*
Y66250D01*
X44202Y66367D01*
X44085Y66416D01*
X43135D01*
X43018Y66367D01*
X43015Y66359D01*
X42290D01*
X42172Y66335D01*
X42071Y66268D01*
X40377Y64574D01*
X38759D01*
X38716Y64701D01*
X38873Y64822D01*
X39034Y65031D01*
X39134Y65274D01*
X39169Y65535D01*
X39134Y65796D01*
X39034Y66039D01*
X38873Y66248D01*
X38716Y66369D01*
X38759Y66496D01*
X39405D01*
X39523Y66520D01*
X39623Y66587D01*
X41221Y68185D01*
X41805D01*
X41922Y68233D01*
X41971Y68350D01*
Y68391D01*
X42728D01*
X42832Y68264D01*
X42829Y68250D01*
Y67850D01*
X42852Y67733D01*
X42919Y67634D01*
X43018Y67567D01*
X43135Y67544D01*
X44085D01*
X44202Y67567D01*
X44301Y67634D01*
X44368Y67733D01*
X44391Y67850D01*
Y68250D01*
X44368Y68367D01*
X44301Y68466D01*
X44251Y68500D01*
Y68900D01*
X44301Y68934D01*
X44368Y69033D01*
X44391Y69150D01*
Y69550D01*
X44368Y69667D01*
X44301Y69766D01*
X44202Y69833D01*
X44085Y69856D01*
X43135D01*
X43018Y69833D01*
X42919Y69766D01*
X42852Y69667D01*
X42829Y69550D01*
Y69150D01*
X42832Y69136D01*
X42728Y69009D01*
X41971D01*
Y69070D01*
X41922Y69187D01*
X41805Y69236D01*
X40815D01*
X40698Y69187D01*
X40649Y69070D01*
Y68487D01*
X39277Y67114D01*
X38368D01*
X38360Y67241D01*
X38383Y67244D01*
X38590Y67330D01*
X38768Y67467D01*
X38905Y67645D01*
X38991Y67852D01*
X39020Y68075D01*
X38991Y68298D01*
X38905Y68505D01*
X38768Y68683D01*
X38590Y68820D01*
X38383Y68906D01*
X38160Y68935D01*
X37937Y68906D01*
X37730Y68820D01*
X37552Y68683D01*
X37415Y68505D01*
X37329Y68298D01*
X37300Y68075D01*
X37329Y67852D01*
X37415Y67645D01*
X37552Y67467D01*
X37730Y67330D01*
X37937Y67244D01*
X37960Y67241D01*
X37952Y67114D01*
X36415D01*
X36365Y67235D01*
X36228Y67413D01*
X36050Y67550D01*
X35843Y67636D01*
X35620Y67665D01*
X35397Y67636D01*
X35190Y67550D01*
X35012Y67413D01*
X34875Y67235D01*
X34789Y67028D01*
X34760Y66805D01*
X34789Y66582D01*
X34875Y66375D01*
X35012Y66197D01*
X35190Y66060D01*
X35397Y65974D01*
X35620Y65945D01*
X35843Y65974D01*
X36050Y66060D01*
X36228Y66197D01*
X36365Y66375D01*
X36415Y66496D01*
X37561D01*
X37604Y66369D01*
X37447Y66248D01*
X37287Y66039D01*
X37186Y65796D01*
X37151Y65535D01*
X37186Y65274D01*
X37287Y65031D01*
X37447Y64822D01*
X37604Y64701D01*
X37561Y64574D01*
X36415D01*
X36365Y64695D01*
X36228Y64873D01*
X36050Y65010D01*
X35843Y65096D01*
X35620Y65125D01*
X35397Y65096D01*
X35190Y65010D01*
X35012Y64873D01*
X34875Y64695D01*
X34789Y64488D01*
X34760Y64265D01*
X34789Y64042D01*
X34875Y63835D01*
X35012Y63657D01*
X35190Y63520D01*
X35397Y63434D01*
X35620Y63405D01*
X35843Y63434D01*
X36050Y63520D01*
X36228Y63657D01*
X36365Y63835D01*
X36415Y63956D01*
X37952D01*
X37960Y63829D01*
X37937Y63826D01*
X37730Y63740D01*
X37552Y63603D01*
X37415Y63425D01*
X37329Y63218D01*
X37300Y62995D01*
X37329Y62772D01*
X37415Y62565D01*
X37552Y62387D01*
X37730Y62250D01*
X37937Y62164D01*
X38160Y62135D01*
X38383Y62164D01*
X38590Y62250D01*
X38768Y62387D01*
X38905Y62565D01*
X38955Y62686D01*
X40377D01*
X41732Y61332D01*
X41832Y61265D01*
X41950Y61241D01*
X43005D01*
X43008Y61233D01*
X43125Y61184D01*
X44075D01*
X44121Y61203D01*
X44248Y61123D01*
Y60677D01*
X44121Y60597D01*
X44075Y60616D01*
X43125D01*
X43008Y60567D01*
X42959Y60450D01*
Y60050D01*
X43008Y59933D01*
X43125Y59884D01*
X44075D01*
X44121Y59903D01*
X44248Y59823D01*
Y59316D01*
X43775D01*
X43658Y59267D01*
X43610Y59150D01*
Y58150D01*
X43658Y58033D01*
X43775Y57984D01*
X43788D01*
Y57647D01*
X43823Y57470D01*
X43924Y57320D01*
X46367Y54877D01*
X45473Y53982D01*
X45288Y53741D01*
X45172Y53461D01*
X45132Y53160D01*
Y51200D01*
X43561D01*
Y53000D01*
X43529Y53324D01*
X43435Y53636D01*
X43281Y53923D01*
X43075Y54174D01*
X43074Y54175D01*
X41575Y55674D01*
X41323Y55881D01*
X41036Y56035D01*
X40724Y56129D01*
X40400Y56161D01*
X40400Y56161D01*
X37163D01*
X34561Y58763D01*
Y60562D01*
X35620D01*
X35921Y60602D01*
X36202Y60718D01*
X36442Y60903D01*
X36627Y61144D01*
X36743Y61424D01*
X36783Y61725D01*
X36743Y62026D01*
X36627Y62306D01*
X36442Y62547D01*
X36202Y62732D01*
X35921Y62848D01*
X35620Y62888D01*
X34561D01*
Y73160D01*
X34560Y73175D01*
X35652Y74267D01*
X38730D01*
X39031Y74307D01*
X39311Y74423D01*
X39552Y74608D01*
X41422Y76478D01*
X41607Y76719D01*
X41723Y76999D01*
X41763Y77300D01*
X41723Y77601D01*
X41607Y77881D01*
X41422Y78122D01*
X41237Y78264D01*
X41192Y78383D01*
X41241Y78500D01*
Y79500D01*
X41192Y79617D01*
X41164Y79629D01*
Y81500D01*
X41121Y81716D01*
X40999Y81899D01*
X40870Y82028D01*
Y82225D01*
X40821Y82342D01*
X40704Y82391D01*
X39704D01*
X39587Y82342D01*
X39539Y82225D01*
Y81575D01*
X39587Y81458D01*
X39704Y81409D01*
X39929D01*
X40001Y81301D01*
X40036Y81266D01*
Y79629D01*
X40008Y79617D01*
X39959Y79500D01*
Y78500D01*
X40008Y78383D01*
X39963Y78264D01*
X39778Y78122D01*
X38248Y76593D01*
X35170D01*
X34869Y76553D01*
X34589Y76437D01*
X34348Y76252D01*
X32915Y74820D01*
X32900Y74821D01*
X32885Y74820D01*
X30383Y77322D01*
Y77591D01*
X31117D01*
Y77405D01*
X31166Y77288D01*
X31283Y77239D01*
X32003D01*
X32120Y77288D01*
X32169Y77405D01*
Y78395D01*
X32120Y78512D01*
X32003Y78561D01*
X31283D01*
X31166Y78512D01*
X31117Y78395D01*
Y78209D01*
X30383D01*
Y88560D01*
X30417Y88585D01*
X30510Y88616D01*
X30583Y88567D01*
X30700Y88544D01*
X31700D01*
X31817Y88567D01*
X31916Y88634D01*
X31983Y88733D01*
X32006Y88850D01*
Y89444D01*
X32123Y89493D01*
X32171Y89446D01*
X32287Y89367D01*
X32425Y89340D01*
X35475D01*
X35501Y89301D01*
X35684Y89179D01*
X35900Y89136D01*
X39066D01*
X40386Y87816D01*
Y87175D01*
X40429Y86959D01*
X40511Y86836D01*
X40444Y86709D01*
X39000D01*
X38882Y86685D01*
X38782Y86618D01*
X36533Y84370D01*
X36494Y84382D01*
X36416Y84432D01*
Y85395D01*
X36367Y85512D01*
X36250Y85561D01*
X35530D01*
X35413Y85512D01*
X35364Y85395D01*
Y84405D01*
X35413Y84288D01*
X35427Y84145D01*
X35369Y84059D01*
X35326Y83843D01*
X35369Y83627D01*
X35429Y83538D01*
X35330Y83457D01*
X34819Y83968D01*
Y84239D01*
X34870D01*
X34987Y84288D01*
X35036Y84405D01*
Y85395D01*
X34987Y85512D01*
X34915Y85542D01*
X34940Y85669D01*
X35100D01*
X35217Y85692D01*
X35316Y85759D01*
X35383Y85858D01*
X35406Y85975D01*
Y87425D01*
X35383Y87542D01*
X35316Y87641D01*
X35217Y87708D01*
X35100Y87731D01*
X34650D01*
X34533Y87708D01*
X34434Y87641D01*
X34400Y87591D01*
X34000D01*
X33900Y87549D01*
X33800Y87591D01*
X33350D01*
X33250Y87549D01*
X33150Y87591D01*
X32700D01*
X32583Y87542D01*
X32534Y87425D01*
Y85975D01*
X32583Y85858D01*
X32700Y85809D01*
X33150D01*
X33266Y85720D01*
Y85561D01*
X32930D01*
X32813Y85512D01*
X32764Y85395D01*
Y84405D01*
X32813Y84288D01*
X32930Y84239D01*
X32981D01*
Y84035D01*
X33005Y83917D01*
X33072Y83817D01*
X34807Y82082D01*
X34907Y82015D01*
X35025Y81991D01*
X37000D01*
X37118Y82015D01*
X37218Y82082D01*
X39828Y84691D01*
X40541D01*
X40601Y84601D01*
X40784Y84479D01*
X41000Y84436D01*
X41216Y84479D01*
X41399Y84601D01*
X41521Y84784D01*
X41537Y84867D01*
X41659Y84904D01*
X41907Y84656D01*
X41901Y84599D01*
X41779Y84416D01*
X41736Y84200D01*
X41779Y83984D01*
X41901Y83801D01*
X42084Y83679D01*
X42300Y83636D01*
X42516Y83679D01*
X42699Y83801D01*
X42821Y83984D01*
X42864Y84200D01*
X42843Y84305D01*
X42960Y84368D01*
X43836Y83491D01*
Y83314D01*
X43783Y83292D01*
X43771Y83264D01*
X43233D01*
X43221Y83292D01*
X43104Y83341D01*
X42861D01*
X42816Y83371D01*
X42600Y83414D01*
X42384Y83371D01*
X42339Y83341D01*
X42104D01*
X41987Y83292D01*
X41939Y83175D01*
Y83159D01*
X39245D01*
X39127Y83135D01*
X39027Y83068D01*
X38697Y82739D01*
X38630Y82639D01*
X38607Y82521D01*
Y78544D01*
X38372Y78309D01*
X37816D01*
Y78495D01*
X37767Y78612D01*
X37650Y78661D01*
X37173D01*
X37125Y78778D01*
X37335Y78988D01*
X38050D01*
X38167Y79036D01*
X38216Y79153D01*
Y80553D01*
X38167Y80670D01*
X38050Y80719D01*
X37050D01*
X36933Y80670D01*
X36884Y80553D01*
Y79411D01*
X36575Y79102D01*
X36477Y79144D01*
X36456Y79162D01*
Y80553D01*
X36433Y80670D01*
X36366Y80770D01*
X36267Y80836D01*
X36150Y80859D01*
X35150D01*
X35033Y80836D01*
X34934Y80770D01*
X34867Y80670D01*
X34844Y80553D01*
Y79153D01*
X34867Y79036D01*
X34934Y78937D01*
X35033Y78871D01*
X35150Y78847D01*
X36090D01*
X36153Y78725D01*
X36102Y78661D01*
X35550D01*
X35433Y78612D01*
X35384Y78495D01*
Y77505D01*
X35433Y77388D01*
X35550Y77339D01*
X36270D01*
X36387Y77388D01*
X36436Y77505D01*
Y78089D01*
X36647Y78300D01*
X36764Y78252D01*
Y77505D01*
X36813Y77388D01*
X36930Y77339D01*
X37650D01*
X37767Y77388D01*
X37816Y77505D01*
Y77691D01*
X38500D01*
X38618Y77715D01*
X38718Y77782D01*
X39134Y78197D01*
X39201Y78297D01*
X39224Y78416D01*
Y82393D01*
X39373Y82541D01*
X41939D01*
Y82525D01*
X41987Y82408D01*
X42104Y82359D01*
X42293D01*
X42351Y82301D01*
X42534Y82179D01*
X42750Y82136D01*
X43771D01*
X43783Y82108D01*
X43900Y82059D01*
X44900D01*
X45017Y82108D01*
X45029Y82136D01*
X45196D01*
Y81884D01*
X45069Y81823D01*
X45017Y81858D01*
X44900Y81881D01*
X43900D01*
X43783Y81858D01*
X43684Y81791D01*
X43617Y81692D01*
X43594Y81575D01*
Y80625D01*
X43617Y80508D01*
X43684Y80409D01*
X43783Y80342D01*
X43900Y80319D01*
X44900D01*
X45017Y80342D01*
X45069Y80377D01*
X45196Y80316D01*
Y71579D01*
X45167Y71567D01*
X45119Y71450D01*
Y70450D01*
X45167Y70333D01*
X45285Y70284D01*
X45450D01*
Y69716D01*
X45335D01*
X45218Y69667D01*
X45169Y69550D01*
Y69150D01*
X45218Y69033D01*
X45335Y68984D01*
X46285D01*
X46402Y69033D01*
X46451Y69150D01*
Y69550D01*
X46402Y69667D01*
X46285Y69716D01*
X46170D01*
Y70284D01*
X46235D01*
X46352Y70333D01*
X46400Y70450D01*
Y71450D01*
X46352Y71567D01*
X46323Y71579D01*
Y82136D01*
X48290D01*
Y80897D01*
X48270Y80881D01*
X47320D01*
X47203Y80858D01*
X47104Y80791D01*
X47037Y80692D01*
X47014Y80575D01*
Y79575D01*
X47037Y79458D01*
X47104Y79359D01*
X47203Y79292D01*
X47320Y79269D01*
X48270D01*
X48387Y79292D01*
X48486Y79359D01*
X48553Y79458D01*
X48576Y79575D01*
Y80140D01*
X48703Y80203D01*
X48754Y80163D01*
Y79575D01*
X48803Y79458D01*
X48920Y79409D01*
X49035D01*
Y79055D01*
X48940Y78972D01*
X48895Y78977D01*
X48666Y78947D01*
X48452Y78859D01*
X48269Y78718D01*
X48128Y78535D01*
X48040Y78321D01*
X48009Y78092D01*
X48040Y77863D01*
X48128Y77649D01*
X48269Y77466D01*
X48452Y77325D01*
X48666Y77236D01*
X48895Y77206D01*
X49124Y77236D01*
X49338Y77325D01*
X49521Y77466D01*
X49600Y77569D01*
X49611Y77571D01*
X49794Y77693D01*
X49794D01*
X49916Y77876D01*
X49959Y78092D01*
X49916Y78308D01*
X49794Y78491D01*
X49755Y78516D01*
Y79409D01*
X49870D01*
X49987Y79458D01*
X50036Y79575D01*
Y80493D01*
X50163Y80546D01*
X50561Y80147D01*
Y77553D01*
X49258Y76250D01*
X49124Y76305D01*
X48895Y76335D01*
X48666Y76305D01*
X48452Y76217D01*
X48269Y76076D01*
X48128Y75893D01*
X48040Y75679D01*
X48009Y75450D01*
X48040Y75221D01*
X48128Y75007D01*
X48269Y74824D01*
X48452Y74683D01*
X48666Y74594D01*
X48895Y74564D01*
X49124Y74594D01*
X49338Y74683D01*
X49521Y74824D01*
X49662Y75007D01*
X49717Y75141D01*
X53947D01*
X55382Y73707D01*
X55482Y73640D01*
X55600Y73616D01*
X68650D01*
X68768Y73640D01*
X68868Y73707D01*
X69998Y74837D01*
X70065Y74937D01*
X70089Y75055D01*
Y75426D01*
X70261Y75498D01*
X70460Y75650D01*
X70612Y75849D01*
X70708Y76081D01*
X70741Y76330D01*
X70708Y76579D01*
X70612Y76811D01*
X70460Y77010D01*
X70261Y77162D01*
X70029Y77258D01*
X69780Y77291D01*
X69639Y77273D01*
X69580Y77393D01*
X70103Y77916D01*
X81225D01*
X81253Y77879D01*
X81283Y77795D01*
X80357Y76868D01*
X80290Y76768D01*
X80266Y76650D01*
Y71628D01*
X66106Y57468D01*
X66000Y57489D01*
X65784Y57446D01*
X65601Y57324D01*
X65479Y57141D01*
X65436Y56925D01*
X65479Y56709D01*
X65601Y56526D01*
X65784Y56404D01*
X66000Y56361D01*
X66216Y56404D01*
X66399Y56526D01*
X66521Y56709D01*
X66564Y56925D01*
X66543Y57031D01*
X80793Y71282D01*
X80860Y71382D01*
X80884Y71500D01*
Y76522D01*
X84317Y79955D01*
X84455Y79913D01*
X84475Y79809D01*
X84598Y79626D01*
X84687Y79566D01*
Y75254D01*
X84711Y75135D01*
X84778Y75035D01*
X85882Y73932D01*
X85982Y73865D01*
X86100Y73841D01*
X90097D01*
X90294Y73644D01*
X90243Y73520D01*
X90218Y73519D01*
X90204Y73525D01*
X90105Y73565D01*
X89505D01*
X89388Y73517D01*
X89340Y73400D01*
Y73159D01*
X84080D01*
X83962Y73135D01*
X83861Y73068D01*
X65120Y54327D01*
X64949Y54398D01*
X64700Y54431D01*
X64451Y54398D01*
X64219Y54302D01*
X64020Y54150D01*
X63868Y53951D01*
X63772Y53719D01*
X63739Y53470D01*
X63772Y53221D01*
X63868Y52989D01*
X64020Y52790D01*
X64219Y52638D01*
X64451Y52542D01*
X64700Y52509D01*
X64949Y52542D01*
X65181Y52638D01*
X65380Y52790D01*
X65532Y52989D01*
X65628Y53221D01*
X65661Y53470D01*
X65628Y53719D01*
X65557Y53890D01*
X84208Y72541D01*
X89340D01*
Y72300D01*
X89388Y72183D01*
X89505Y72134D01*
X90105D01*
X90204Y72175D01*
X90222Y72183D01*
X90338D01*
X90357Y72175D01*
X90455Y72134D01*
X91055D01*
X91134Y72167D01*
X91189Y72084D01*
X91288Y72017D01*
X91405Y71994D01*
X92005D01*
X92122Y72017D01*
X92222Y72084D01*
X92239Y72110D01*
X92366Y72071D01*
Y71403D01*
X92072Y71109D01*
X91250D01*
X91132Y71085D01*
X91032Y71018D01*
X90379Y70366D01*
X89450D01*
X89333Y70317D01*
X89284Y70200D01*
Y69812D01*
X82753D01*
X82635Y69788D01*
X82535Y69721D01*
X69562Y56748D01*
X69495Y56648D01*
X69471Y56530D01*
Y54374D01*
X69299Y54302D01*
X69100Y54150D01*
X68948Y53951D01*
X68852Y53719D01*
X68819Y53470D01*
X68852Y53221D01*
X68948Y52989D01*
X69100Y52790D01*
X69299Y52638D01*
X69531Y52542D01*
X69574Y52536D01*
X69565Y52409D01*
X68738D01*
X68097Y53050D01*
X68168Y53221D01*
X68201Y53470D01*
X68168Y53719D01*
X68072Y53951D01*
X67920Y54150D01*
X67721Y54302D01*
X67489Y54398D01*
X67240Y54431D01*
X66991Y54398D01*
X66759Y54302D01*
X66560Y54150D01*
X66408Y53951D01*
X66312Y53719D01*
X66279Y53470D01*
X66312Y53221D01*
X66408Y52989D01*
X66560Y52790D01*
X66759Y52638D01*
X66991Y52542D01*
X67240Y52509D01*
X67489Y52542D01*
X67660Y52613D01*
X68392Y51882D01*
X68492Y51815D01*
X68610Y51791D01*
X70600D01*
X70718Y51815D01*
X70818Y51882D01*
X71268Y52332D01*
X71335Y52432D01*
X71359Y52550D01*
Y52968D01*
X71486Y52993D01*
X71488Y52989D01*
X71640Y52790D01*
X71839Y52638D01*
X72071Y52542D01*
X72320Y52509D01*
X72569Y52542D01*
X72801Y52638D01*
X73000Y52790D01*
X73152Y52989D01*
X73248Y53221D01*
X73281Y53470D01*
X73248Y53719D01*
X73152Y53951D01*
X73000Y54150D01*
X72801Y54302D01*
X72569Y54398D01*
X72320Y54431D01*
X72071Y54398D01*
X71839Y54302D01*
X71640Y54150D01*
X71488Y53951D01*
X71486Y53947D01*
X71359Y53972D01*
Y55482D01*
X82168Y66291D01*
X92700D01*
X92818Y66315D01*
X92918Y66382D01*
X93868Y67332D01*
X93935Y67432D01*
X93959Y67550D01*
Y78400D01*
X93935Y78518D01*
X93868Y78618D01*
X92534Y79953D01*
Y80138D01*
X92642Y80183D01*
X92691Y80300D01*
Y82150D01*
X92642Y82267D01*
X92525Y82316D01*
X91925D01*
X91808Y82267D01*
X91759Y82150D01*
Y80300D01*
X91808Y80183D01*
X91916Y80138D01*
Y79825D01*
X91940Y79707D01*
X92007Y79607D01*
X93341Y78272D01*
Y77861D01*
X93310Y77837D01*
X93214Y77804D01*
X93142Y77853D01*
X93025Y77876D01*
X92305D01*
X92188Y77853D01*
X92089Y77786D01*
X92022Y77687D01*
X91999Y77570D01*
Y77043D01*
X91872Y76982D01*
X91811Y77029D01*
Y77570D01*
X91762Y77687D01*
X91645Y77736D01*
X91594D01*
Y78765D01*
X91570Y78883D01*
X91503Y78983D01*
X91264Y79223D01*
Y80138D01*
X91372Y80183D01*
X91421Y80300D01*
Y82150D01*
X91372Y82267D01*
X91255Y82316D01*
X90655D01*
X90538Y82267D01*
X90489Y82150D01*
Y80300D01*
X90538Y80183D01*
X90646Y80138D01*
Y79095D01*
X90670Y78977D01*
X90737Y78877D01*
X90976Y78637D01*
Y77736D01*
X90925D01*
X90808Y77687D01*
X90759Y77570D01*
Y76580D01*
X90808Y76463D01*
X90925Y76414D01*
X91396D01*
Y76162D01*
X91288Y76117D01*
X91240Y76000D01*
Y74900D01*
X91288Y74783D01*
X91396Y74738D01*
Y74445D01*
X91420Y74326D01*
X91487Y74226D01*
X91880Y73833D01*
X91828Y73706D01*
X91405D01*
X91288Y73682D01*
X91189Y73616D01*
X91144Y73617D01*
X91058Y73649D01*
X91041Y73738D01*
X90974Y73838D01*
X90443Y74368D01*
X90343Y74435D01*
X90225Y74459D01*
X87423D01*
X87355Y74586D01*
X87421Y74684D01*
X87464Y74900D01*
X87421Y75116D01*
X87299Y75299D01*
X86504Y76094D01*
Y77796D01*
X87317D01*
X87421Y77669D01*
X87419Y77660D01*
Y76660D01*
X87442Y76543D01*
X87509Y76444D01*
X87608Y76377D01*
X87725Y76354D01*
X88675D01*
X88792Y76377D01*
X88891Y76444D01*
X88958Y76543D01*
X88981Y76660D01*
Y77596D01*
X89077Y77695D01*
X89159Y77660D01*
Y76660D01*
X89208Y76543D01*
X89325Y76494D01*
X89440D01*
Y76138D01*
X89388Y76117D01*
X89340Y76000D01*
Y74900D01*
X89388Y74783D01*
X89505Y74734D01*
X90105D01*
X90222Y74783D01*
X90271Y74900D01*
Y76000D01*
X90222Y76117D01*
X90160Y76143D01*
Y76494D01*
X90275D01*
X90392Y76543D01*
X90441Y76660D01*
Y77660D01*
X90392Y77777D01*
X90275Y77825D01*
X90160D01*
Y78000D01*
X90133Y78138D01*
X90054Y78255D01*
X89995Y78314D01*
X90004Y78360D01*
X89961Y78576D01*
X89839Y78759D01*
X89656Y78881D01*
X89440Y78924D01*
X85940D01*
X85724Y78881D01*
X85541Y78759D01*
X85432Y78596D01*
X85346Y78602D01*
X85305Y78617D01*
Y79566D01*
X85395Y79626D01*
X85517Y79809D01*
X85560Y80025D01*
X85517Y80241D01*
X85395Y80424D01*
X85212Y80546D01*
X85108Y80567D01*
X85066Y80704D01*
X86412Y82050D01*
X86539Y81998D01*
Y80300D01*
X86562Y80183D01*
X86629Y80084D01*
X86728Y80017D01*
X86845Y79994D01*
X87445D01*
X87562Y80017D01*
X87661Y80084D01*
X87709Y80156D01*
X87755Y80166D01*
X87805D01*
X87851Y80156D01*
X87899Y80084D01*
X87998Y80017D01*
X88115Y79994D01*
X88715D01*
X88832Y80017D01*
X88931Y80084D01*
X88979Y80156D01*
X89025Y80166D01*
X89075D01*
X89121Y80156D01*
X89169Y80084D01*
X89268Y80017D01*
X89385Y79994D01*
X89985D01*
X90102Y80017D01*
X90201Y80084D01*
X90268Y80183D01*
X90291Y80300D01*
Y82150D01*
X90268Y82267D01*
X90201Y82366D01*
X90102Y82433D01*
X89985Y82456D01*
X89385D01*
X89268Y82433D01*
X89169Y82366D01*
X89121Y82294D01*
X89075Y82284D01*
X89025D01*
X88979Y82294D01*
X88931Y82366D01*
X88832Y82433D01*
X88715Y82456D01*
X88421D01*
X88380Y82573D01*
X88381Y82583D01*
X88559Y82701D01*
X88619Y82791D01*
X104572D01*
X106591Y80772D01*
Y76700D01*
X106615Y76582D01*
X106682Y76482D01*
X109116Y74047D01*
X109024Y73825D01*
X108988Y73550D01*
X109024Y73275D01*
X109130Y73019D01*
X109299Y72799D01*
X109519Y72630D01*
X109775Y72524D01*
X110050Y72488D01*
X110325Y72524D01*
X110581Y72630D01*
X110801Y72799D01*
X110970Y73019D01*
X111076Y73275D01*
X111112Y73550D01*
X111076Y73825D01*
X110970Y74081D01*
X110801Y74301D01*
X110581Y74470D01*
X110325Y74576D01*
X110050Y74612D01*
X109775Y74576D01*
X109553Y74484D01*
X107209Y76828D01*
Y80900D01*
X107185Y81018D01*
X107118Y81118D01*
X104918Y83318D01*
X104818Y83385D01*
X104700Y83409D01*
X88619D01*
X88559Y83499D01*
X88376Y83621D01*
X88198Y83656D01*
X88142Y83780D01*
X90253Y85891D01*
X101025D01*
X101143Y85915D01*
X101243Y85982D01*
X103873Y88612D01*
X103940Y88712D01*
X103964Y88830D01*
Y89488D01*
X104072Y89533D01*
X104121Y89650D01*
Y91500D01*
X104072Y91617D01*
X103955Y91666D01*
X103355D01*
X103238Y91617D01*
X103189Y91500D01*
Y89650D01*
X103238Y89533D01*
X103346Y89488D01*
Y88958D01*
X100897Y86509D01*
X90125D01*
X90080Y86500D01*
X90074Y86503D01*
X89982Y86610D01*
X89994Y86670D01*
Y89488D01*
X90102Y89533D01*
X90151Y89650D01*
Y91500D01*
X90102Y91617D01*
X89994Y91662D01*
Y92170D01*
X89970Y92289D01*
X89903Y92389D01*
X89074Y93218D01*
X88974Y93285D01*
X88855Y93309D01*
X85575D01*
X85457Y93285D01*
X85356Y93218D01*
X84541Y92403D01*
X84474Y92303D01*
X84451Y92185D01*
Y85312D01*
X82626Y83488D01*
X82509Y83551D01*
X82539Y83700D01*
X82496Y83916D01*
X82374Y84099D01*
X82191Y84221D01*
X81975Y84264D01*
X81759Y84221D01*
X81586Y84105D01*
X81557Y84104D01*
X81447Y84133D01*
X81412Y84217D01*
X81321Y84255D01*
X81270Y84383D01*
X81453Y84567D01*
X81520Y84667D01*
X81544Y84785D01*
Y84989D01*
X81595D01*
X81712Y85038D01*
X81761Y85155D01*
Y86145D01*
X81712Y86262D01*
X81595Y86311D01*
X80875D01*
X80758Y86262D01*
X80757Y86259D01*
X80412D01*
X80367Y86367D01*
X80250Y86416D01*
X79150D01*
X79033Y86367D01*
X78984Y86250D01*
Y85650D01*
X79033Y85533D01*
X79150Y85484D01*
X79917D01*
X79925Y85478D01*
X79915Y85371D01*
X79905Y85345D01*
X79784Y85321D01*
X79601Y85199D01*
X79541Y85109D01*
X78378D01*
X77816Y85671D01*
Y86250D01*
X77783Y86328D01*
X77866Y86384D01*
X77933Y86483D01*
X77956Y86600D01*
Y87200D01*
X77949Y87234D01*
X78066Y87297D01*
X78682Y86682D01*
X78782Y86615D01*
X78900Y86591D01*
X80944D01*
X80975Y86578D01*
X81975D01*
X82006Y86591D01*
X82294D01*
X82354Y86501D01*
X82450Y86438D01*
X82411Y86311D01*
X82255D01*
X82138Y86262D01*
X82089Y86145D01*
Y85155D01*
X82138Y85038D01*
X82255Y84989D01*
X82975D01*
X83092Y85038D01*
X83141Y85155D01*
Y85739D01*
X83768Y86367D01*
X83835Y86467D01*
X83859Y86585D01*
Y87319D01*
X83835Y87437D01*
X83768Y87537D01*
X83050Y88255D01*
Y90134D01*
X83027Y90252D01*
X82960Y90352D01*
X82306Y91006D01*
X82206Y91073D01*
X82088Y91096D01*
X79980D01*
X79086Y91991D01*
X78949Y92095D01*
X78790Y92161D01*
X78620Y92184D01*
X78620Y92184D01*
X78034D01*
Y96566D01*
X90247D01*
X92953Y93861D01*
X92980Y93796D01*
X93084Y93659D01*
X93088Y93657D01*
X93083Y93517D01*
X93034Y93400D01*
Y92400D01*
X93083Y92283D01*
X93135Y92261D01*
Y91641D01*
X93078Y91617D01*
X93029Y91500D01*
Y89650D01*
X93078Y89533D01*
X93195Y89484D01*
X93795D01*
X93912Y89533D01*
X93961Y89650D01*
Y91500D01*
X93912Y91617D01*
X93855Y91641D01*
Y92234D01*
X94150D01*
X94267Y92283D01*
X94316Y92400D01*
Y93400D01*
X94267Y93517D01*
X94150Y93566D01*
X94064D01*
X94041Y93693D01*
X94120Y93796D01*
X94186Y93955D01*
X94209Y94125D01*
Y94195D01*
X94186Y94365D01*
X94120Y94524D01*
X94016Y94661D01*
X90986Y97691D01*
X90849Y97795D01*
X90690Y97861D01*
X90520Y97884D01*
X90520Y97884D01*
X78034D01*
Y104202D01*
X78197Y104328D01*
X78382Y104569D01*
X78477Y104797D01*
X116794D01*
X118055Y103536D01*
Y89024D01*
X116175Y87144D01*
X116143Y87157D01*
X115940Y87184D01*
X115737Y87157D01*
X115548Y87079D01*
X115386Y86954D01*
X115261Y86792D01*
X115183Y86603D01*
X115156Y86400D01*
X115183Y86197D01*
X115261Y86008D01*
X115386Y85846D01*
X115548Y85721D01*
X115737Y85643D01*
X115940Y85616D01*
X116143Y85643D01*
X116332Y85721D01*
X116494Y85846D01*
X116619Y86008D01*
X116697Y86197D01*
X116724Y86400D01*
X116697Y86603D01*
X116684Y86635D01*
X118670Y88620D01*
X118748Y88737D01*
X118775Y88875D01*
Y103685D01*
X118748Y103823D01*
X118670Y103939D01*
X117198Y105411D01*
X117081Y105489D01*
X116943Y105517D01*
X78471D01*
X78382Y105731D01*
X78197Y105972D01*
X77956Y106157D01*
X77676Y106273D01*
X77375Y106313D01*
D02*
G37*
G36*
X103955Y38630D02*
X103355D01*
X103238Y38582D01*
X103189Y38465D01*
Y36465D01*
X103238Y36348D01*
X103355Y36299D01*
X103365D01*
X103370Y36277D01*
X103437Y36177D01*
X108682Y30932D01*
X108782Y30865D01*
X108900Y30841D01*
X112227D01*
X114479Y28589D01*
X114464Y28570D01*
X114335Y28259D01*
X114291Y27925D01*
X114335Y27591D01*
X114464Y27280D01*
X114669Y27014D01*
X114935Y26809D01*
X115246Y26680D01*
X115580Y26636D01*
X115914Y26680D01*
X116225Y26809D01*
X116491Y27014D01*
X116696Y27280D01*
X116825Y27591D01*
X116869Y27925D01*
X116825Y28259D01*
X116696Y28570D01*
X116491Y28836D01*
X116225Y29041D01*
X115914Y29170D01*
X115580Y29214D01*
X115246Y29170D01*
X114935Y29041D01*
X114916Y29026D01*
X112573Y31368D01*
X112473Y31435D01*
X112355Y31459D01*
X109028D01*
X104092Y36395D01*
X104121Y36465D01*
Y38465D01*
X104072Y38582D01*
X103955Y38630D01*
D02*
G37*
G36*
X95065D02*
X94465D01*
X94348Y38582D01*
X94299Y38465D01*
Y36465D01*
X94348Y36348D01*
X94358Y36295D01*
X91022Y32959D01*
X84745D01*
X84627Y32935D01*
X84527Y32868D01*
X80684Y29026D01*
X80665Y29041D01*
X80354Y29170D01*
X80020Y29214D01*
X79686Y29170D01*
X79375Y29041D01*
X79109Y28836D01*
X78904Y28570D01*
X78775Y28259D01*
X78731Y27925D01*
X78775Y27591D01*
X78904Y27280D01*
X79109Y27014D01*
X79375Y26809D01*
X79686Y26680D01*
X80020Y26636D01*
X80354Y26680D01*
X80665Y26809D01*
X80931Y27014D01*
X81136Y27280D01*
X81265Y27591D01*
X81309Y27925D01*
X81265Y28259D01*
X81136Y28570D01*
X81121Y28589D01*
X84873Y32341D01*
X91150D01*
X91268Y32365D01*
X91368Y32432D01*
X94983Y36047D01*
X95050Y36147D01*
X95074Y36265D01*
Y36303D01*
X95182Y36348D01*
X95231Y36465D01*
Y38465D01*
X95182Y38582D01*
X95065Y38630D01*
D02*
G37*
%LPD*%
G36*
X45228Y89683D02*
X45345Y89634D01*
X46114D01*
X46153Y89583D01*
X46089Y89456D01*
X45345D01*
X45228Y89433D01*
X45129Y89366D01*
X45063Y89267D01*
X45039Y89150D01*
Y88200D01*
X45063Y88083D01*
X45129Y87984D01*
X45228Y87917D01*
X45345Y87894D01*
X46345D01*
X46462Y87917D01*
X46562Y87984D01*
X46628Y88083D01*
X46651Y88200D01*
Y88981D01*
X46778Y89033D01*
X47179Y88632D01*
Y88050D01*
X47228Y87933D01*
X47285Y87909D01*
Y86887D01*
X47312Y86749D01*
X47390Y86632D01*
X47679Y86344D01*
Y85832D01*
X47728Y85715D01*
X47845Y85666D01*
X48565D01*
X48682Y85715D01*
X48731Y85832D01*
Y86822D01*
X48682Y86939D01*
X48565Y86988D01*
X48053D01*
X48005Y87036D01*
Y87733D01*
X48132Y87798D01*
X48178Y87768D01*
X48295Y87744D01*
X48895D01*
X49012Y87768D01*
X49104Y87829D01*
X49143Y87821D01*
X49231Y87785D01*
Y86988D01*
X49225D01*
X49108Y86939D01*
X49059Y86822D01*
Y85832D01*
X49108Y85715D01*
X49123Y85571D01*
X49019Y85416D01*
X48976Y85200D01*
X49019Y84984D01*
X49141Y84801D01*
X49179Y84776D01*
X49141Y84649D01*
X46483D01*
X45913Y85218D01*
X45813Y85285D01*
X45695Y85309D01*
X44959D01*
X44899Y85399D01*
X44716Y85521D01*
X44500Y85564D01*
X44284Y85521D01*
X44101Y85399D01*
X43979Y85216D01*
X43964Y85138D01*
X43826Y85096D01*
X41624Y87299D01*
X41624Y87299D01*
X41514Y87409D01*
Y87816D01*
X43409Y89711D01*
X45216D01*
X45228Y89683D01*
D02*
G37*
G36*
X88106Y91857D02*
Y91662D01*
X87998Y91617D01*
X87949Y91500D01*
Y89650D01*
X87998Y89533D01*
X88106Y89488D01*
Y86433D01*
X81973Y80301D01*
X81835Y80342D01*
X81821Y80416D01*
X81699Y80599D01*
X81516Y80721D01*
X81300Y80764D01*
X52879D01*
X50544Y83099D01*
X50361Y83221D01*
X50145Y83264D01*
X45800D01*
X45780Y83260D01*
X45760Y83264D01*
X45029D01*
X45017Y83292D01*
X44964Y83314D01*
Y83607D01*
X45083Y83678D01*
X45091Y83678D01*
X45300Y83636D01*
X45489Y83674D01*
X45657Y83507D01*
X45757Y83440D01*
X45875Y83416D01*
X50647D01*
X52782Y81282D01*
X52882Y81215D01*
X53000Y81191D01*
X81988D01*
X82106Y81215D01*
X82206Y81282D01*
X85668Y84744D01*
X85735Y84844D01*
X85759Y84962D01*
Y91672D01*
X86043Y91956D01*
X88007D01*
X88106Y91857D01*
D02*
G37*
G36*
X76716Y97425D02*
X76730Y97325D01*
X76716Y97225D01*
Y92184D01*
X74775D01*
X74775Y92184D01*
X74604Y92161D01*
X74445Y92095D01*
X74309Y91991D01*
X73733Y91414D01*
X73634Y91495D01*
X73693Y91583D01*
X73716Y91700D01*
Y93100D01*
X73693Y93217D01*
X73626Y93316D01*
X73527Y93383D01*
X73410Y93406D01*
X72110D01*
X71993Y93383D01*
X71894Y93316D01*
X71827Y93217D01*
X71804Y93100D01*
Y91700D01*
X71827Y91583D01*
X71894Y91484D01*
X71993Y91417D01*
X72110Y91394D01*
X72763D01*
X72788Y91267D01*
X72676Y91221D01*
X72539Y91116D01*
X71934Y90511D01*
X71830Y90374D01*
X71764Y90215D01*
X71741Y90045D01*
X71741Y90045D01*
Y89400D01*
Y87809D01*
X71643Y87729D01*
X71633Y87731D01*
X70633D01*
X70516Y87707D01*
X70417Y87641D01*
X70351Y87542D01*
X70327Y87425D01*
Y86475D01*
X70351Y86358D01*
X70417Y86259D01*
X70516Y86192D01*
X70633Y86169D01*
X71535D01*
X71647Y86058D01*
X71633Y85990D01*
X70633D01*
X70516Y85942D01*
X70468Y85825D01*
Y85710D01*
X69816D01*
Y85900D01*
X69767Y86017D01*
X69650Y86066D01*
X69050D01*
X68933Y86017D01*
X68884Y85900D01*
Y84800D01*
X68933Y84683D01*
X69050Y84634D01*
X69650D01*
X69767Y84683D01*
X69816Y84800D01*
Y84990D01*
X70468D01*
Y84875D01*
X70516Y84758D01*
X70633Y84709D01*
X71633D01*
X71750Y84758D01*
X71765Y84792D01*
X71916Y84836D01*
X71959Y84804D01*
X72118Y84738D01*
X72165Y84731D01*
X72211Y84597D01*
X71622Y84009D01*
X69366D01*
Y84195D01*
X69317Y84312D01*
X69200Y84361D01*
X68480D01*
X68363Y84312D01*
X68314Y84195D01*
Y83205D01*
X68363Y83088D01*
X68480Y83039D01*
X69200D01*
X69317Y83088D01*
X69366Y83205D01*
Y83391D01*
X71750D01*
X71868Y83415D01*
X71968Y83482D01*
X72917Y84430D01*
X73034Y84381D01*
Y83715D01*
X73057Y83598D01*
X73124Y83499D01*
X73223Y83432D01*
X73340Y83409D01*
X74340D01*
X74457Y83432D01*
X74556Y83499D01*
X74623Y83598D01*
X74646Y83715D01*
Y83944D01*
X74773Y83969D01*
X74788Y83933D01*
X74905Y83884D01*
X75895D01*
X76012Y83933D01*
X76061Y84050D01*
Y84101D01*
X76232D01*
X76379Y83954D01*
Y83300D01*
X76428Y83183D01*
X76545Y83134D01*
X77595D01*
X77712Y83183D01*
X77761Y83300D01*
Y84100D01*
X77712Y84217D01*
X77595Y84266D01*
X76941D01*
X76578Y84628D01*
X76478Y84695D01*
X76360Y84719D01*
X76061D01*
Y84770D01*
X76012Y84887D01*
X75895Y84936D01*
X74905D01*
X74788Y84887D01*
X74750Y84795D01*
X74641Y84784D01*
X74619Y84787D01*
X74556Y84881D01*
X74457Y84948D01*
X74340Y84971D01*
X73703D01*
X73640Y85098D01*
X73680Y85149D01*
X74340D01*
X74457Y85198D01*
X74506Y85315D01*
Y85481D01*
X74739D01*
Y85430D01*
X74788Y85313D01*
X74905Y85264D01*
X75895D01*
X76012Y85313D01*
X76061Y85430D01*
Y85481D01*
X76190D01*
X76308Y85505D01*
X76433Y85533D01*
X76550Y85484D01*
X77129D01*
X78032Y84582D01*
X78132Y84515D01*
X78250Y84491D01*
X79541D01*
X79601Y84401D01*
X79784Y84279D01*
X80000Y84236D01*
X80090Y84124D01*
X80079Y84100D01*
Y83300D01*
X80128Y83183D01*
X80245Y83134D01*
X81295D01*
X81412Y83183D01*
X81447Y83267D01*
X81557Y83296D01*
X81586Y83295D01*
X81759Y83179D01*
X81975Y83136D01*
X82124Y83166D01*
X82187Y83049D01*
X81597Y82459D01*
X58172D01*
X58122Y82586D01*
X58221Y82734D01*
X58264Y82950D01*
X58221Y83166D01*
X58099Y83349D01*
X58009Y83409D01*
Y84663D01*
X58117Y84708D01*
X58166Y84825D01*
Y85925D01*
X58117Y86042D01*
X58000Y86091D01*
X57421D01*
X57329Y86182D01*
X57229Y86249D01*
X57111Y86273D01*
X56549D01*
Y86350D01*
X56500Y86467D01*
X56383Y86516D01*
X55383D01*
X55266Y86467D01*
X55217Y86350D01*
Y86273D01*
X54944D01*
Y86324D01*
X54895Y86441D01*
X54778Y86490D01*
X53788D01*
X53671Y86441D01*
X53622Y86324D01*
Y85604D01*
X53671Y85487D01*
X53788Y85438D01*
X54778D01*
X54895Y85487D01*
X54944Y85604D01*
Y85655D01*
X55217D01*
Y85400D01*
X55266Y85283D01*
X55383Y85234D01*
X56383D01*
X56500Y85283D01*
X56549Y85400D01*
Y85655D01*
X56983D01*
X57234Y85404D01*
Y84825D01*
X57283Y84708D01*
X57391Y84663D01*
Y83409D01*
X57301Y83349D01*
X57179Y83166D01*
X57136Y82950D01*
X57179Y82734D01*
X57278Y82586D01*
X57228Y82459D01*
X53378D01*
X51278Y84558D01*
X51178Y84625D01*
X51060Y84649D01*
X49939D01*
X49901Y84776D01*
X49939Y84801D01*
X50061Y84984D01*
X50104Y85200D01*
X50061Y85416D01*
X49972Y85549D01*
X50007Y85685D01*
X50015Y85695D01*
X50062Y85715D01*
X50111Y85832D01*
Y86822D01*
X50062Y86939D01*
X49945Y86988D01*
X49849D01*
Y87886D01*
X49962Y87933D01*
X50011Y88050D01*
Y89150D01*
X49962Y89267D01*
X49845Y89316D01*
X49245D01*
X49167Y89283D01*
X49111Y89366D01*
X49012Y89433D01*
X48895Y89456D01*
X48295D01*
X48178Y89433D01*
X48079Y89366D01*
X48023Y89283D01*
X47945Y89316D01*
X47514D01*
X46521Y90309D01*
Y90441D01*
X46919Y90840D01*
X47179D01*
Y90650D01*
X47228Y90533D01*
X47345Y90485D01*
X47945D01*
X48062Y90533D01*
X48178Y90533D01*
X48295Y90485D01*
X48895D01*
X48994Y90525D01*
X49012Y90533D01*
X49128D01*
X49146Y90525D01*
X49245Y90485D01*
X49845D01*
X49962Y90533D01*
X50011Y90650D01*
Y91750D01*
X49962Y91867D01*
X49854Y91912D01*
Y92234D01*
X49945D01*
X50062Y92283D01*
X50111Y92400D01*
Y93390D01*
X50062Y93507D01*
X49945Y93556D01*
X49854D01*
Y100602D01*
X49874Y100605D01*
X50185Y100734D01*
X50451Y100939D01*
X50656Y101205D01*
X50785Y101516D01*
X50829Y101850D01*
X50785Y102184D01*
X50656Y102495D01*
X50451Y102761D01*
X50185Y102966D01*
X49874Y103095D01*
X49540Y103139D01*
X49206Y103095D01*
X48895Y102966D01*
X48629Y102761D01*
X48424Y102495D01*
X48295Y102184D01*
X48251Y101850D01*
X48295Y101516D01*
X48424Y101205D01*
X48629Y100939D01*
X48895Y100734D01*
X49206Y100605D01*
X49236Y100601D01*
Y93556D01*
X49225D01*
X49108Y93507D01*
X49059Y93390D01*
Y92431D01*
X48932Y92418D01*
X48927Y92443D01*
X48849Y92560D01*
X48731Y92678D01*
Y93390D01*
X48682Y93507D01*
X48565Y93556D01*
X47845D01*
X47728Y93507D01*
X47679Y93390D01*
Y92893D01*
X47390Y92604D01*
X47312Y92488D01*
X47285Y92350D01*
Y91891D01*
X47228Y91867D01*
X47179Y91750D01*
Y91560D01*
X46770D01*
X46633Y91533D01*
X46516Y91455D01*
X45977Y90916D01*
X45345D01*
X45228Y90867D01*
X45216Y90839D01*
X43175D01*
X42959Y90796D01*
X42776Y90674D01*
X40950Y88847D01*
X39699Y90099D01*
X39516Y90221D01*
X39300Y90264D01*
X37309D01*
Y93700D01*
X37285Y93818D01*
X37218Y93918D01*
X36961Y94176D01*
X36861Y94243D01*
X36743Y94266D01*
X36349D01*
X36289Y94356D01*
X36106Y94478D01*
X35890Y94521D01*
X35674Y94478D01*
X35491Y94356D01*
X35369Y94173D01*
X35326Y93957D01*
X35369Y93741D01*
X35427Y93655D01*
X35413Y93512D01*
X35364Y93395D01*
Y92551D01*
X35141Y92328D01*
X35034Y92400D01*
X35036Y92405D01*
Y93395D01*
X34987Y93512D01*
X34870Y93561D01*
X34819D01*
Y99890D01*
X34795Y100008D01*
X34728Y100108D01*
X34609Y100228D01*
Y100602D01*
X34634Y100605D01*
X34945Y100734D01*
X35211Y100939D01*
X35416Y101205D01*
X35545Y101516D01*
X35589Y101850D01*
X35545Y102184D01*
X35416Y102495D01*
X35211Y102761D01*
X34945Y102966D01*
X34709Y103064D01*
X34734Y103191D01*
X37602D01*
X38089Y102704D01*
Y100725D01*
X38138Y100608D01*
X38255Y100559D01*
X40505D01*
X40622Y100608D01*
X40671Y100725D01*
Y102975D01*
X40622Y103092D01*
X40505Y103141D01*
X38526D01*
X37948Y103718D01*
X37848Y103785D01*
X37730Y103809D01*
X33250D01*
X33132Y103785D01*
X33032Y103718D01*
X32182Y102868D01*
X32115Y102768D01*
X32091Y102650D01*
Y100250D01*
X32115Y100132D01*
X32182Y100032D01*
X32981Y99232D01*
Y93561D01*
X32930D01*
X32813Y93512D01*
X32764Y93395D01*
Y92405D01*
X32813Y92288D01*
X32930Y92239D01*
X32983D01*
X33005Y92132D01*
X33014Y92118D01*
X32946Y91991D01*
X32700D01*
X32583Y91942D01*
X32534Y91825D01*
Y91409D01*
X31862D01*
X31817Y91517D01*
X31700Y91566D01*
X30700D01*
X30583Y91517D01*
X30534Y91400D01*
Y90450D01*
X30583Y90333D01*
X30700Y90284D01*
X31288D01*
X31328Y90233D01*
X31265Y90106D01*
X30700D01*
X30583Y90083D01*
X30510Y90034D01*
X30417Y90065D01*
X30383Y90090D01*
Y101318D01*
X30418Y101404D01*
X33002Y103987D01*
X58537D01*
Y102382D01*
X58455Y102184D01*
X58411Y101850D01*
X58455Y101516D01*
X58584Y101205D01*
X58789Y100939D01*
X59055Y100734D01*
X59366Y100605D01*
X59700Y100561D01*
X60034Y100605D01*
X60345Y100734D01*
X60611Y100939D01*
X60816Y101205D01*
X60945Y101516D01*
X60989Y101850D01*
X60945Y102184D01*
X60863Y102382D01*
Y103987D01*
X66581D01*
Y95763D01*
X65737Y94919D01*
X65633Y94782D01*
X65567Y94623D01*
X65544Y94453D01*
X65544Y94453D01*
Y93328D01*
X65439Y93257D01*
X65430Y93261D01*
X65089D01*
Y100602D01*
X65114Y100605D01*
X65425Y100734D01*
X65691Y100939D01*
X65896Y101205D01*
X66025Y101516D01*
X66069Y101850D01*
X66025Y102184D01*
X65896Y102495D01*
X65691Y102761D01*
X65425Y102966D01*
X65114Y103095D01*
X64780Y103139D01*
X64446Y103095D01*
X64135Y102966D01*
X63869Y102761D01*
X63664Y102495D01*
X63535Y102184D01*
X63491Y101850D01*
X63535Y101516D01*
X63664Y101205D01*
X63869Y100939D01*
X64135Y100734D01*
X64446Y100605D01*
X64471Y100602D01*
Y93261D01*
X64130D01*
X64013Y93212D01*
X63964Y93095D01*
Y92704D01*
X61780D01*
X61662Y92680D01*
X61562Y92613D01*
X59575Y90626D01*
X59508Y90526D01*
X59484Y90408D01*
Y90315D01*
X59433D01*
X59316Y90266D01*
X59267Y90149D01*
Y89159D01*
X59316Y89042D01*
X59323Y88902D01*
X59315Y88889D01*
X59293Y88780D01*
X59266Y88765D01*
X59166Y88741D01*
X59067Y88808D01*
X58950Y88831D01*
X58350D01*
X58233Y88808D01*
X58134Y88741D01*
X58009Y88783D01*
Y89039D01*
X58017Y89042D01*
X58066Y89159D01*
Y90149D01*
X58017Y90266D01*
X57900Y90315D01*
X57180D01*
X57063Y90266D01*
X57014Y90149D01*
Y89159D01*
X57063Y89042D01*
X57180Y88993D01*
X57391D01*
Y88687D01*
X57283Y88642D01*
X57234Y88525D01*
Y87946D01*
X56941Y87653D01*
X56549D01*
Y87950D01*
X56500Y88067D01*
X56383Y88116D01*
X55383D01*
X55266Y88067D01*
X55217Y87950D01*
Y87653D01*
X54944D01*
Y87704D01*
X54895Y87821D01*
X54778Y87870D01*
X53788D01*
X53671Y87821D01*
X53622Y87704D01*
Y86984D01*
X53671Y86867D01*
X53788Y86818D01*
X54778D01*
X54895Y86867D01*
X54944Y86984D01*
Y87035D01*
X55217D01*
Y87000D01*
X55266Y86883D01*
X55383Y86834D01*
X56383D01*
X56500Y86883D01*
X56549Y87000D01*
Y87035D01*
X57069D01*
X57187Y87059D01*
X57287Y87126D01*
X57421Y87259D01*
X58000D01*
X58078Y87292D01*
X58134Y87209D01*
X58233Y87142D01*
X58350Y87119D01*
X58950D01*
X59067Y87142D01*
X59166Y87209D01*
X59222Y87292D01*
X59300Y87259D01*
X59900D01*
X60017Y87308D01*
X60066Y87425D01*
Y88525D01*
X60017Y88642D01*
X60028Y88775D01*
X60068Y88836D01*
X60092Y88954D01*
Y88993D01*
X60153D01*
X60270Y89042D01*
X60319Y89159D01*
Y90149D01*
X60270Y90266D01*
X60268Y90267D01*
X60239Y90417D01*
X61908Y92086D01*
X63964D01*
Y91695D01*
X63997Y91617D01*
X63986Y91533D01*
X63951Y91474D01*
X63821Y91421D01*
X63684Y91316D01*
X63684Y91316D01*
X62096Y89728D01*
X61992Y89591D01*
X61966Y89529D01*
X61839Y89554D01*
Y90149D01*
X61816Y90266D01*
X61749Y90365D01*
X61650Y90432D01*
X61533Y90455D01*
X60813D01*
X60696Y90432D01*
X60597Y90365D01*
X60530Y90266D01*
X60507Y90149D01*
Y89159D01*
X60530Y89042D01*
X60597Y88943D01*
X60696Y88876D01*
X60813Y88853D01*
X61533D01*
X61650Y88876D01*
X61749Y88943D01*
X61776Y88983D01*
X61903Y88945D01*
Y87773D01*
X61883Y87756D01*
X60883D01*
X60766Y87733D01*
X60667Y87666D01*
X60600Y87567D01*
X60577Y87450D01*
Y86500D01*
X60600Y86383D01*
X60667Y86284D01*
X60766Y86217D01*
X60883Y86194D01*
X61883D01*
X61903Y86177D01*
Y86029D01*
X61883Y86016D01*
X60883D01*
X60766Y85967D01*
X60717Y85850D01*
Y85735D01*
X60066D01*
Y85925D01*
X60017Y86042D01*
X59900Y86091D01*
X59300D01*
X59183Y86042D01*
X59134Y85925D01*
Y84825D01*
X59183Y84708D01*
X59300Y84659D01*
X59900D01*
X60017Y84708D01*
X60066Y84825D01*
Y85015D01*
X60717D01*
Y84900D01*
X60766Y84783D01*
X60883Y84734D01*
X61883D01*
X62000Y84783D01*
X62014Y84817D01*
X62166Y84856D01*
X62233Y84805D01*
X62392Y84739D01*
X62562Y84716D01*
X62732Y84739D01*
X62891Y84805D01*
X63028Y84909D01*
X63132Y85046D01*
X63198Y85205D01*
X63221Y85375D01*
Y88989D01*
X64423Y90192D01*
X65189D01*
X65244Y90124D01*
Y89134D01*
X65268Y89017D01*
X65334Y88918D01*
X65433Y88851D01*
X65550Y88828D01*
X66270D01*
X66387Y88851D01*
X66487Y88918D01*
X66553Y89017D01*
X66576Y89134D01*
Y90124D01*
X66553Y90241D01*
X66487Y90340D01*
X66387Y90407D01*
X66371Y90410D01*
X66329Y90548D01*
X66669Y90887D01*
X66773Y91024D01*
X66839Y91182D01*
X66855Y91304D01*
X66860Y91312D01*
X66948Y91383D01*
X66989Y91397D01*
X67030Y91389D01*
X68330D01*
X68447Y91412D01*
X68546Y91479D01*
X68613Y91578D01*
X68636Y91695D01*
Y93095D01*
X68613Y93212D01*
X68546Y93311D01*
X68447Y93378D01*
X68330Y93401D01*
X67030D01*
X66989Y93393D01*
X66862Y93484D01*
Y94180D01*
X67706Y95024D01*
X67706Y95024D01*
X67810Y95161D01*
X67876Y95320D01*
X67899Y95490D01*
Y103987D01*
X76716D01*
Y97425D01*
D02*
G37*
G36*
X36691Y93572D02*
Y90264D01*
X35900D01*
X35684Y90221D01*
X35501Y90099D01*
X35475Y90060D01*
X32574D01*
X31970Y90664D01*
X32023Y90791D01*
X32534D01*
Y90375D01*
X32583Y90258D01*
X32700Y90209D01*
X33150D01*
X33250Y90251D01*
X33350Y90209D01*
X33800D01*
X33900Y90251D01*
X34000Y90209D01*
X34450D01*
X34550Y90251D01*
X34650Y90209D01*
X35100D01*
X35217Y90258D01*
X35266Y90375D01*
Y91579D01*
X35926Y92239D01*
X36250D01*
X36367Y92288D01*
X36416Y92405D01*
Y93395D01*
X36367Y93512D01*
X36362Y93553D01*
X36445Y93648D01*
X36615D01*
X36691Y93572D01*
D02*
G37*
G36*
X78941Y90272D02*
Y89600D01*
X78959Y89463D01*
Y89100D01*
X79008Y88983D01*
X79125Y88934D01*
X79340D01*
Y88316D01*
X79150D01*
X79033Y88267D01*
X78984Y88150D01*
Y87550D01*
X79033Y87433D01*
X79150Y87384D01*
X80250D01*
X80367Y87433D01*
X80416Y87550D01*
Y88150D01*
X80367Y88267D01*
X80250Y88316D01*
X80060D01*
Y88934D01*
X80075D01*
X80192Y88983D01*
X80241Y89100D01*
Y89463D01*
X80259Y89600D01*
Y90478D01*
X81960D01*
X82432Y90006D01*
Y88127D01*
X82456Y88009D01*
X82523Y87909D01*
X82860Y87572D01*
X82797Y87455D01*
X82753Y87464D01*
X82537Y87421D01*
X82354Y87299D01*
X82294Y87209D01*
X82141D01*
Y87694D01*
X82092Y87811D01*
X81975Y87860D01*
X80975D01*
X80858Y87811D01*
X80809Y87694D01*
Y87209D01*
X79028D01*
X78168Y88068D01*
X78068Y88135D01*
X77950Y88159D01*
X77812D01*
X77767Y88267D01*
X77650Y88316D01*
X76550D01*
X76433Y88267D01*
X76308Y88295D01*
X76190Y88319D01*
X76061D01*
Y88370D01*
X76012Y88487D01*
X75895Y88536D01*
X74905D01*
X74788Y88487D01*
X74739Y88370D01*
Y88319D01*
X74561D01*
Y88370D01*
X74512Y88487D01*
X74395Y88536D01*
X73405D01*
X73288Y88487D01*
X73239Y88370D01*
Y87650D01*
X73288Y87533D01*
X73405Y87484D01*
X74395D01*
X74512Y87533D01*
X74561Y87650D01*
Y87701D01*
X74739D01*
Y87650D01*
X74788Y87533D01*
X74905Y87484D01*
X75895D01*
X76012Y87533D01*
X76023Y87560D01*
X76050Y87578D01*
X76178Y87601D01*
X76232Y87565D01*
X76305Y87550D01*
X76338Y87419D01*
X76334Y87416D01*
X76267Y87317D01*
X76244Y87200D01*
Y86600D01*
X76267Y86483D01*
X76334Y86384D01*
X76338Y86381D01*
X76305Y86250D01*
X76232Y86235D01*
X76178Y86199D01*
X76050Y86222D01*
X76023Y86240D01*
X76012Y86267D01*
X75895Y86316D01*
X74905D01*
X74788Y86267D01*
X74739Y86150D01*
Y86099D01*
X74506D01*
Y86265D01*
X74457Y86382D01*
X74340Y86431D01*
X73340D01*
X73223Y86382D01*
X73186Y86292D01*
X73059Y86317D01*
Y89030D01*
X73239D01*
Y89030D01*
X73288Y88913D01*
X73405Y88864D01*
X74395D01*
X74494Y88906D01*
X74537Y88908D01*
X74639Y88888D01*
X74689Y88814D01*
X74788Y88747D01*
X74905Y88724D01*
X75895D01*
X76012Y88747D01*
X76111Y88814D01*
X76178Y88913D01*
X76201Y89030D01*
Y89750D01*
X76178Y89867D01*
X76111Y89966D01*
X76012Y90033D01*
X75895Y90056D01*
X74905D01*
X74788Y90033D01*
X74689Y89966D01*
X74639Y89892D01*
X74537Y89872D01*
X74494Y89874D01*
X74395Y89916D01*
X74165D01*
X74140Y90043D01*
X74229Y90080D01*
X74366Y90184D01*
X75048Y90866D01*
X77325D01*
X77325Y90866D01*
X77325Y90866D01*
X78347D01*
X78941Y90272D01*
D02*
G37*
G36*
X81182Y79509D02*
X80882Y79209D01*
X69810D01*
X69692Y79185D01*
X69592Y79118D01*
X67660Y77187D01*
X67489Y77258D01*
X67240Y77291D01*
X66991Y77258D01*
X66759Y77162D01*
X66560Y77010D01*
X66408Y76811D01*
X66312Y76579D01*
X66279Y76330D01*
X66312Y76081D01*
X66408Y75849D01*
X66560Y75650D01*
X66759Y75498D01*
X66991Y75402D01*
X67240Y75369D01*
X67489Y75402D01*
X67680Y75481D01*
X67752Y75373D01*
X67621Y75242D01*
X66225D01*
X65557Y75910D01*
X65628Y76081D01*
X65661Y76330D01*
X65628Y76579D01*
X65532Y76811D01*
X65380Y77010D01*
X65181Y77162D01*
X64949Y77258D01*
X64700Y77291D01*
X64451Y77258D01*
X64219Y77162D01*
X64020Y77010D01*
X63868Y76811D01*
X63772Y76579D01*
X63739Y76330D01*
X63772Y76081D01*
X63868Y75849D01*
X64020Y75650D01*
X64219Y75498D01*
X64451Y75402D01*
X64700Y75369D01*
X64949Y75402D01*
X65120Y75473D01*
X65879Y74715D01*
X65979Y74648D01*
X66097Y74624D01*
X67749D01*
X67867Y74648D01*
X67967Y74715D01*
X68728Y75476D01*
X68795Y75576D01*
X68819Y75694D01*
Y75828D01*
X68946Y75853D01*
X68948Y75849D01*
X69100Y75650D01*
X69299Y75498D01*
X69471Y75426D01*
Y75183D01*
X68522Y74234D01*
X57837D01*
X57825Y74361D01*
X57916Y74379D01*
X58099Y74501D01*
X58221Y74684D01*
X58264Y74900D01*
X58221Y75116D01*
X58099Y75299D01*
X58009Y75359D01*
Y78691D01*
X58099Y78751D01*
X58221Y78934D01*
X58264Y79150D01*
X58221Y79366D01*
X58125Y79509D01*
X58179Y79636D01*
X81129D01*
X81182Y79509D01*
D02*
G37*
G36*
X52246Y79801D02*
X52429Y79679D01*
X52645Y79636D01*
X57221D01*
X57275Y79509D01*
X57179Y79366D01*
X57136Y79150D01*
X57179Y78934D01*
X57301Y78751D01*
X57391Y78691D01*
Y75359D01*
X57301Y75299D01*
X57179Y75116D01*
X57136Y74900D01*
X57179Y74684D01*
X57301Y74501D01*
X57484Y74379D01*
X57575Y74361D01*
X57563Y74234D01*
X55728D01*
X54294Y75668D01*
X54193Y75735D01*
X54075Y75759D01*
X49820D01*
X49768Y75886D01*
X51088Y77206D01*
X51155Y77307D01*
X51179Y77425D01*
Y80275D01*
X51155Y80393D01*
X51088Y80493D01*
X50088Y81494D01*
X50109Y81600D01*
X50093Y81679D01*
X50195Y81819D01*
X50226Y81822D01*
X52246Y79801D01*
D02*
G37*
G36*
X47501Y60501D02*
X47684Y60379D01*
X47900Y60336D01*
X48116Y60379D01*
X48250Y60469D01*
X48377Y60407D01*
Y56887D01*
X47020Y55530D01*
X44712Y57838D01*
Y57984D01*
X44725D01*
X44842Y58033D01*
X44891Y58150D01*
Y58574D01*
X44942Y58613D01*
X45069Y58549D01*
Y58150D01*
X45093Y58033D01*
X45159Y57934D01*
X45258Y57867D01*
X45375Y57844D01*
X46325D01*
X46442Y57867D01*
X46541Y57934D01*
X46608Y58033D01*
X46631Y58150D01*
Y59150D01*
X46608Y59267D01*
X46541Y59366D01*
X46442Y59433D01*
X46325Y59456D01*
X45375D01*
X45299Y59441D01*
X45172Y59516D01*
Y59650D01*
X45299Y59749D01*
X45325Y59744D01*
X46275D01*
X46392Y59767D01*
X46491Y59834D01*
X46558Y59933D01*
X46581Y60050D01*
Y60450D01*
X46578Y60464D01*
X46682Y60591D01*
X47441D01*
X47501Y60501D01*
D02*
G37*
G36*
X87523Y69082D02*
X87479Y69016D01*
X87436Y68800D01*
X87479Y68584D01*
X87601Y68401D01*
X87784Y68279D01*
X88000Y68236D01*
X88106Y68257D01*
X88987Y67376D01*
X89087Y67309D01*
X89205Y67286D01*
X89684D01*
Y67100D01*
X89711Y67036D01*
X89641Y66909D01*
X82040D01*
X81922Y66885D01*
X81822Y66818D01*
X70832Y55828D01*
X70765Y55728D01*
X70741Y55610D01*
Y53972D01*
X70614Y53947D01*
X70612Y53951D01*
X70460Y54150D01*
X70261Y54302D01*
X70089Y54374D01*
Y56402D01*
X82881Y69194D01*
X87463D01*
X87523Y69082D01*
D02*
G37*
%LPC*%
G36*
X87445Y91666D02*
X86845D01*
X86728Y91617D01*
X86679Y91500D01*
Y89650D01*
X86728Y89533D01*
X86845Y89484D01*
X87445D01*
X87562Y89533D01*
X87611Y89650D01*
Y91500D01*
X87562Y91617D01*
X87445Y91666D01*
D02*
G37*
G36*
X74940Y103287D02*
X74568Y103238D01*
X74221Y103095D01*
X73924Y102866D01*
X73695Y102569D01*
X73552Y102222D01*
X73503Y101850D01*
X73552Y101478D01*
X73695Y101131D01*
X73924Y100834D01*
X74221Y100605D01*
X74568Y100462D01*
X74940Y100413D01*
X75312Y100462D01*
X75659Y100605D01*
X75956Y100834D01*
X76185Y101131D01*
X76328Y101478D01*
X76377Y101850D01*
X76328Y102222D01*
X76185Y102569D01*
X75956Y102866D01*
X75659Y103095D01*
X75312Y103238D01*
X74940Y103287D01*
D02*
G37*
G36*
X55745Y103281D02*
X53495D01*
X53378Y103258D01*
X53279Y103191D01*
X53212Y103092D01*
X53189Y102975D01*
Y100725D01*
X53212Y100608D01*
X53279Y100509D01*
X53378Y100442D01*
X53495Y100419D01*
X55745D01*
X55862Y100442D01*
X55961Y100509D01*
X56028Y100608D01*
X56051Y100725D01*
Y102975D01*
X56028Y103092D01*
X55961Y103191D01*
X55862Y103258D01*
X55745Y103281D01*
D02*
G37*
G36*
X44460Y103287D02*
X44088Y103238D01*
X43741Y103095D01*
X43444Y102866D01*
X43215Y102569D01*
X43072Y102222D01*
X43023Y101850D01*
X43072Y101478D01*
X43215Y101131D01*
X43444Y100834D01*
X43741Y100605D01*
X44088Y100462D01*
X44460Y100413D01*
X44832Y100462D01*
X45179Y100605D01*
X45476Y100834D01*
X45705Y101131D01*
X45848Y101478D01*
X45897Y101850D01*
X45848Y102222D01*
X45705Y102569D01*
X45476Y102866D01*
X45179Y103095D01*
X44832Y103238D01*
X44460Y103287D01*
D02*
G37*
G36*
X31900Y94564D02*
X31684Y94521D01*
X31501Y94399D01*
X31379Y94216D01*
X31336Y94000D01*
X31379Y93784D01*
X31461Y93661D01*
X31433Y93512D01*
X31433D01*
X31433Y93512D01*
X31384Y93395D01*
Y92405D01*
X31433Y92288D01*
X31550Y92239D01*
X32270D01*
X32387Y92288D01*
X32436Y92405D01*
Y93395D01*
X32387Y93512D01*
X32382Y93514D01*
X32380Y93516D01*
X32343Y93668D01*
X32421Y93784D01*
X32464Y94000D01*
X32421Y94216D01*
X32299Y94399D01*
X32116Y94521D01*
X31900Y94564D01*
D02*
G37*
G36*
X66133Y86490D02*
X65133D01*
X65016Y86442D01*
X64968Y86325D01*
Y86248D01*
X64694D01*
Y86299D01*
X64645Y86416D01*
X64528Y86465D01*
X63538D01*
X63421Y86416D01*
X63373Y86299D01*
Y85579D01*
X63421Y85462D01*
X63538Y85413D01*
X64528D01*
X64645Y85462D01*
X64694Y85579D01*
Y85630D01*
X64968D01*
Y85375D01*
X65016Y85258D01*
X65133Y85209D01*
X66133D01*
X66250Y85258D01*
X66299Y85375D01*
Y85630D01*
X66733D01*
X66984Y85379D01*
Y84800D01*
X67033Y84683D01*
X67150Y84634D01*
X67151D01*
Y84361D01*
X67100D01*
X66983Y84312D01*
X66934Y84195D01*
Y83205D01*
X66983Y83088D01*
X67100Y83039D01*
X67820D01*
X67937Y83088D01*
X67986Y83205D01*
Y84195D01*
X67937Y84312D01*
X67820Y84361D01*
X67769D01*
Y84642D01*
X67867Y84683D01*
X67916Y84800D01*
Y85900D01*
X67867Y86017D01*
X67750Y86066D01*
X67171D01*
X67080Y86157D01*
X66979Y86224D01*
X66861Y86248D01*
X66299D01*
Y86325D01*
X66250Y86442D01*
X66133Y86490D01*
D02*
G37*
G36*
X71283Y90451D02*
X70563D01*
X70446Y90428D01*
X70347Y90361D01*
X70281Y90262D01*
X70257Y90145D01*
Y89155D01*
X70281Y89038D01*
X70347Y88939D01*
X70446Y88872D01*
X70563Y88849D01*
X71283D01*
X71400Y88872D01*
X71499Y88939D01*
X71566Y89038D01*
X71589Y89155D01*
Y90145D01*
X71566Y90262D01*
X71499Y90361D01*
X71400Y90428D01*
X71283Y90451D01*
D02*
G37*
G36*
X56520Y90455D02*
X55800D01*
X55683Y90432D01*
X55584Y90365D01*
X55517Y90266D01*
X55494Y90149D01*
Y89159D01*
X55517Y89042D01*
X55584Y88943D01*
X55683Y88876D01*
X55800Y88853D01*
X56520D01*
X56637Y88876D01*
X56736Y88943D01*
X56803Y89042D01*
X56826Y89159D01*
Y90149D01*
X56803Y90266D01*
X56736Y90365D01*
X56637Y90432D01*
X56520Y90455D01*
D02*
G37*
G36*
X70985Y103141D02*
X68735D01*
X68618Y103092D01*
X68569Y102975D01*
Y100725D01*
X68618Y100608D01*
X68735Y100559D01*
X69551D01*
Y93266D01*
X69210D01*
X69093Y93217D01*
X69044Y93100D01*
Y91700D01*
X69093Y91583D01*
X69210Y91534D01*
X69234D01*
Y90311D01*
X69183D01*
X69066Y90262D01*
X69018Y90145D01*
Y89155D01*
X69066Y89038D01*
X69084Y88893D01*
X69065Y88864D01*
X69043Y88755D01*
X69017Y88740D01*
X68916Y88716D01*
X68817Y88783D01*
X68700Y88806D01*
X68100D01*
X67983Y88783D01*
X67886Y88718D01*
X67870Y88721D01*
X67759Y88758D01*
Y89013D01*
X67767Y89017D01*
X67816Y89134D01*
Y90124D01*
X67767Y90241D01*
X67650Y90290D01*
X66930D01*
X66813Y90241D01*
X66765Y90124D01*
Y89134D01*
X66813Y89017D01*
X66930Y88968D01*
X67141D01*
Y88662D01*
X67033Y88617D01*
X66984Y88500D01*
Y87921D01*
X66691Y87628D01*
X66299D01*
Y87925D01*
X66250Y88042D01*
X66133Y88090D01*
X65133D01*
X65016Y88042D01*
X64968Y87925D01*
Y87628D01*
X64694D01*
Y87679D01*
X64645Y87796D01*
X64528Y87845D01*
X63538D01*
X63421Y87796D01*
X63373Y87679D01*
Y86959D01*
X63421Y86842D01*
X63538Y86793D01*
X64528D01*
X64645Y86842D01*
X64694Y86959D01*
Y87010D01*
X64968D01*
Y86975D01*
X65016Y86858D01*
X65133Y86809D01*
X66133D01*
X66250Y86858D01*
X66299Y86975D01*
Y87010D01*
X66819D01*
X66937Y87034D01*
X67038Y87101D01*
X67172Y87234D01*
X67750D01*
X67828Y87267D01*
X67884Y87184D01*
X67983Y87117D01*
X68100Y87094D01*
X68700D01*
X68817Y87117D01*
X68916Y87184D01*
X68972Y87267D01*
X69050Y87234D01*
X69650D01*
X69767Y87283D01*
X69816Y87400D01*
Y88500D01*
X69767Y88617D01*
X69778Y88750D01*
X69819Y88811D01*
X69842Y88929D01*
Y88989D01*
X69903D01*
X70020Y89038D01*
X70069Y89155D01*
Y90145D01*
X70020Y90262D01*
X69903Y90311D01*
X69852D01*
Y91534D01*
X70510D01*
X70627Y91583D01*
X70676Y91700D01*
Y93100D01*
X70627Y93217D01*
X70510Y93266D01*
X70169D01*
Y100559D01*
X70985D01*
X71102Y100608D01*
X71151Y100725D01*
Y102975D01*
X71102Y103092D01*
X70985Y103141D01*
D02*
G37*
G36*
X81975Y89600D02*
X80975D01*
X80858Y89577D01*
X80759Y89510D01*
X80692Y89411D01*
X80669Y89294D01*
Y88344D01*
X80692Y88227D01*
X80759Y88128D01*
X80858Y88061D01*
X80975Y88038D01*
X81975D01*
X82092Y88061D01*
X82191Y88128D01*
X82258Y88227D01*
X82281Y88344D01*
Y89294D01*
X82258Y89411D01*
X82191Y89510D01*
X82092Y89577D01*
X81975Y89600D01*
D02*
G37*
G36*
X78475Y90406D02*
X77525D01*
X77408Y90383D01*
X77309Y90316D01*
X77242Y90217D01*
X77219Y90100D01*
Y89100D01*
X77242Y88983D01*
X77309Y88884D01*
X77408Y88817D01*
X77525Y88794D01*
X78475D01*
X78592Y88817D01*
X78691Y88884D01*
X78758Y88983D01*
X78781Y89100D01*
Y90100D01*
X78758Y90217D01*
X78691Y90316D01*
X78592Y90383D01*
X78475Y90406D01*
D02*
G37*
G36*
X59620Y77291D02*
X59371Y77258D01*
X59139Y77162D01*
X58940Y77010D01*
X58788Y76811D01*
X58692Y76579D01*
X58659Y76330D01*
X58692Y76081D01*
X58788Y75849D01*
X58940Y75650D01*
X59139Y75498D01*
X59371Y75402D01*
X59620Y75369D01*
X59869Y75402D01*
X60101Y75498D01*
X60300Y75650D01*
X60452Y75849D01*
X60548Y76081D01*
X60581Y76330D01*
X60548Y76579D01*
X60452Y76811D01*
X60300Y77010D01*
X60101Y77162D01*
X59869Y77258D01*
X59620Y77291D01*
D02*
G37*
G36*
X62160D02*
X61911Y77258D01*
X61679Y77162D01*
X61480Y77010D01*
X61328Y76811D01*
X61232Y76579D01*
X61199Y76330D01*
X61232Y76081D01*
X61328Y75849D01*
X61480Y75650D01*
X61679Y75498D01*
X61911Y75402D01*
X62160Y75369D01*
X62409Y75402D01*
X62641Y75498D01*
X62840Y75650D01*
X62992Y75849D01*
X63088Y76081D01*
X63121Y76330D01*
X63088Y76579D01*
X62992Y76811D01*
X62840Y77010D01*
X62641Y77162D01*
X62409Y77258D01*
X62160Y77291D01*
D02*
G37*
%LPD*%
D10*
X48205Y86327D02*
D03*
X49585D02*
D03*
Y92895D02*
D03*
X48205D02*
D03*
X72190Y49032D02*
D03*
X70810D02*
D03*
X51135Y46025D02*
D03*
X49755D02*
D03*
Y47532D02*
D03*
X51135D02*
D03*
X31643Y77900D02*
D03*
X33023D02*
D03*
X92665Y77075D02*
D03*
X91285D02*
D03*
X91590Y67595D02*
D03*
X90210D02*
D03*
X69543Y89650D02*
D03*
X70923D02*
D03*
X68840Y83700D02*
D03*
X67460D02*
D03*
X65910Y89629D02*
D03*
X67290D02*
D03*
X59793Y89654D02*
D03*
X61173D02*
D03*
X56160D02*
D03*
X57540D02*
D03*
X33290Y92900D02*
D03*
X31910D02*
D03*
X34510D02*
D03*
X35890D02*
D03*
X33290Y84900D02*
D03*
X31910D02*
D03*
X34510D02*
D03*
X35890D02*
D03*
X37290Y78000D02*
D03*
X35910D02*
D03*
X82615Y85650D02*
D03*
X81235D02*
D03*
D11*
X45850Y58650D02*
D03*
X44250D02*
D03*
X45860Y63150D02*
D03*
X44260D02*
D03*
X44160Y70950D02*
D03*
X45760D02*
D03*
X52310Y44465D02*
D03*
X50710D02*
D03*
X88200Y77160D02*
D03*
X89800D02*
D03*
X78000Y89600D02*
D03*
X79600D02*
D03*
X40600Y79000D02*
D03*
X42200D02*
D03*
X92075Y92900D02*
D03*
X93675D02*
D03*
X47795Y80075D02*
D03*
X49395D02*
D03*
D12*
X43600Y60250D02*
D03*
Y61550D02*
D03*
X45800D02*
D03*
Y60900D02*
D03*
Y60250D02*
D03*
X43610Y64750D02*
D03*
Y66050D02*
D03*
X45810D02*
D03*
Y65400D02*
D03*
Y64750D02*
D03*
X45810Y69350D02*
D03*
Y68050D02*
D03*
X43610D02*
D03*
Y68700D02*
D03*
Y69350D02*
D03*
D13*
X41310Y70090D02*
D03*
Y68710D02*
D03*
X52445Y47255D02*
D03*
Y45875D02*
D03*
X54085Y47255D02*
D03*
Y45875D02*
D03*
X75400Y84410D02*
D03*
Y85790D02*
D03*
X73900Y89390D02*
D03*
Y88010D02*
D03*
X75400D02*
D03*
Y89390D02*
D03*
X64033Y87319D02*
D03*
Y85939D02*
D03*
X54283Y87344D02*
D03*
Y85964D02*
D03*
D14*
X77400Y73400D02*
D03*
X74400D02*
D03*
D15*
X93495Y37465D02*
D03*
X94765D02*
D03*
X96035D02*
D03*
X97305D02*
D03*
X98575D02*
D03*
X99845D02*
D03*
X101115D02*
D03*
X102385D02*
D03*
X103655D02*
D03*
X93495Y46865D02*
D03*
X94765D02*
D03*
X96035D02*
D03*
X97305D02*
D03*
X98575D02*
D03*
X99845D02*
D03*
X101115D02*
D03*
X102385D02*
D03*
X103655D02*
D03*
D16*
X69900Y39900D02*
D03*
D17*
X67614Y46335D02*
D03*
X72186D02*
D03*
D18*
X51695Y37900D02*
D03*
X47395D02*
D03*
D19*
X44845Y40062D02*
D03*
Y41662D02*
D03*
X54085Y42825D02*
D03*
Y44425D02*
D03*
X73840Y85790D02*
D03*
Y84190D02*
D03*
X71133Y86950D02*
D03*
Y85350D02*
D03*
X65633Y87450D02*
D03*
Y85850D02*
D03*
X61383Y86975D02*
D03*
Y85375D02*
D03*
X55883Y87475D02*
D03*
Y85875D02*
D03*
X45845Y88675D02*
D03*
Y90275D02*
D03*
X31200Y89325D02*
D03*
Y90925D02*
D03*
X44400Y82700D02*
D03*
Y81100D02*
D03*
X81475Y87219D02*
D03*
Y88819D02*
D03*
D20*
X50995Y42715D02*
D03*
Y41765D02*
D03*
Y40815D02*
D03*
X48295D02*
D03*
Y41765D02*
D03*
Y42715D02*
D03*
D21*
X31383Y79795D02*
D03*
X33283D02*
D03*
X91850Y69500D02*
D03*
X89950D02*
D03*
X35650Y79853D02*
D03*
X37550D02*
D03*
D22*
X42745Y40165D02*
D03*
Y43165D02*
D03*
X45225Y48065D02*
D03*
Y45065D02*
D03*
X42745Y48065D02*
D03*
Y45065D02*
D03*
D23*
X35983Y50015D02*
D03*
Y41015D02*
D03*
D24*
X89805Y75450D02*
D03*
X91705D02*
D03*
Y72850D02*
D03*
X90755D02*
D03*
X89805D02*
D03*
X69350Y85350D02*
D03*
X67450D02*
D03*
Y87950D02*
D03*
X68400D02*
D03*
X69350D02*
D03*
X59600Y85375D02*
D03*
X57700D02*
D03*
Y87975D02*
D03*
X58650D02*
D03*
X59600D02*
D03*
X47645Y88600D02*
D03*
X48595D02*
D03*
X49545D02*
D03*
Y91200D02*
D03*
X47645D02*
D03*
X48595D02*
D03*
D25*
X79700Y87850D02*
D03*
Y85950D02*
D03*
X77100D02*
D03*
Y86900D02*
D03*
Y87850D02*
D03*
D26*
X80770Y83700D02*
D03*
X77070D02*
D03*
D27*
X69860Y92400D02*
D03*
X72760D02*
D03*
X64780Y92395D02*
D03*
X67680D02*
D03*
D28*
X32925Y86700D02*
D03*
X33575D02*
D03*
X34225D02*
D03*
X34875D02*
D03*
X32925Y91100D02*
D03*
X33575D02*
D03*
X34225D02*
D03*
X34875D02*
D03*
D29*
X103655Y90575D02*
D03*
X102385D02*
D03*
X101115D02*
D03*
X99845D02*
D03*
X98575D02*
D03*
X97305D02*
D03*
X96035D02*
D03*
X94765D02*
D03*
X93495D02*
D03*
X92225D02*
D03*
X90955D02*
D03*
X89685D02*
D03*
X88415D02*
D03*
X87145D02*
D03*
X103655Y81225D02*
D03*
X102385D02*
D03*
X101115D02*
D03*
X99845D02*
D03*
X98575D02*
D03*
X97305D02*
D03*
X96035D02*
D03*
X94765D02*
D03*
X93495D02*
D03*
X92225D02*
D03*
X90955D02*
D03*
X89685D02*
D03*
X88415D02*
D03*
X87145D02*
D03*
D30*
X40204Y81900D02*
D03*
X42604Y82850D02*
D03*
Y80950D02*
D03*
D31*
X54283Y85964D02*
X57111D01*
X51412Y47255D02*
X54085D01*
X67460Y83650D02*
Y85340D01*
X64033Y85939D02*
X66861D01*
X31900Y92900D02*
Y94000D01*
Y83800D02*
Y84900D01*
X64033Y87319D02*
X66819D01*
X41310Y68700D02*
X43610D01*
X54283Y87344D02*
X57069D01*
X72186Y46335D02*
Y49746D01*
X73840Y85790D02*
X76190D01*
X37850Y79640D02*
Y79853D01*
X49545Y91200D02*
Y101850D01*
X67916Y51282D02*
X72672D01*
X67218Y51980D02*
X67916Y51282D01*
X58000Y51980D02*
X67218D01*
X72672Y51282D02*
X74860Y53470D01*
X71479Y50453D02*
X72186Y49746D01*
X66747Y50453D02*
X71479D01*
X66000Y56925D02*
X80575Y71500D01*
X106900Y76700D02*
Y80900D01*
X104700Y83100D02*
X106900Y80900D01*
X88160Y83100D02*
X104700D01*
X78250Y84800D02*
X80000D01*
X77100Y85950D02*
X78250Y84800D01*
X80575Y76650D02*
X90125Y86200D01*
X81240Y78225D02*
X89685Y86670D01*
X80575Y71500D02*
Y76650D01*
X81009Y78900D02*
X88415Y86306D01*
X90125Y86200D02*
X101025D01*
X90500Y85100D02*
X112100D01*
X90500Y85100D02*
X90500Y85100D01*
X37730Y103500D02*
X39380Y101850D01*
X33250Y103500D02*
X37730D01*
X32400Y102650D02*
X33250Y103500D01*
X35992Y79911D02*
Y81223D01*
X102385Y35790D02*
X110375Y27800D01*
X66819Y87319D02*
X67450Y87950D01*
X31375Y91100D02*
X32925D01*
X40725Y86400D02*
X41225Y86900D01*
X39000Y86400D02*
X40725D01*
X36443Y83843D02*
X39000Y86400D01*
X41297Y85703D02*
X42300Y84700D01*
X36700Y83000D02*
X39403Y85703D01*
X41297D01*
X42300Y84200D02*
Y84700D01*
X35890Y83843D02*
X36443D01*
X35890D02*
Y84900D01*
X57400Y52580D02*
Y54635D01*
Y52580D02*
X58000Y51980D01*
X46601Y68050D02*
X46951Y68400D01*
X45810Y68050D02*
X46601D01*
X56100Y68400D02*
X56900Y69200D01*
X60000D02*
X68300Y60900D01*
X56900Y69200D02*
X60000D01*
X57700Y57930D02*
Y68300D01*
X57700Y57930D02*
X57700Y57930D01*
X51135Y60900D02*
X57400Y54635D01*
X57700Y57930D02*
X62160Y53470D01*
X45800Y60900D02*
X47900D01*
X57700Y74900D02*
Y79150D01*
X55600Y73925D02*
X68650D01*
X57700Y82950D02*
Y85375D01*
X37000Y89700D02*
Y93700D01*
X36743Y93957D02*
X37000Y93700D01*
X35890Y93957D02*
X36743D01*
X34875Y91100D02*
Y91625D01*
X35890Y92640D01*
X31200Y90925D02*
X31375Y91100D01*
X32925D02*
Y91635D01*
X35890Y92900D02*
Y93957D01*
X35025Y82300D02*
X37000D01*
X33290Y84035D02*
X35025Y82300D01*
X33290Y84035D02*
Y84900D01*
X46355Y84340D02*
X51060D01*
X45695Y85000D02*
X46355Y84340D01*
X44600Y85000D02*
X45695D01*
X37000Y82300D02*
X39700Y85000D01*
X34510Y83840D02*
X35350Y83000D01*
X36700D01*
X39700Y85000D02*
X41000D01*
X45875Y83725D02*
X50775D01*
X45400Y84200D02*
X45875Y83725D01*
X51060Y84340D02*
X53250Y82150D01*
X81725D01*
X53000Y81500D02*
X81988D01*
X50775Y83725D02*
X53000Y81500D01*
X49540Y88595D02*
X49545Y88600D01*
X88415Y90575D02*
Y91985D01*
X88135Y92265D02*
X88415Y91985D01*
X85915Y92265D02*
X88135D01*
X88855Y93000D02*
X89685Y92170D01*
X85575Y93000D02*
X88855D01*
X89685Y90575D02*
Y92170D01*
X81988Y81500D02*
X85450Y84962D01*
Y91800D01*
X85915Y92265D01*
X80770Y83700D02*
X81975D01*
X69543Y89650D02*
Y92083D01*
X69860Y92400D01*
X59793Y90408D02*
X61780Y92395D01*
X64780D01*
X86100Y74150D02*
X90225D01*
X84996Y75254D02*
X86100Y74150D01*
X84996Y75254D02*
Y80025D01*
X39405Y66805D02*
X41310Y68710D01*
X35620Y66805D02*
X39405D01*
X41950Y61550D02*
X43600D01*
X71050Y55610D02*
X82040Y66600D01*
X68890Y72900D02*
X72320Y76330D01*
X69975Y78225D02*
X81240D01*
X68510Y76760D02*
X69975Y78225D01*
X68650Y73925D02*
X69780Y75055D01*
X68510Y75694D02*
Y76760D01*
X67749Y74933D02*
X68510Y75694D01*
X66097Y74933D02*
X67749D01*
X89685Y86670D02*
Y90575D01*
X91285Y77075D02*
Y78765D01*
X90955Y79095D02*
X91285Y78765D01*
X90955Y79095D02*
Y81225D01*
X34510Y83840D02*
Y84900D01*
X45845Y87525D02*
Y88675D01*
X31425Y79853D02*
Y81165D01*
X31325Y79853D02*
X31383Y79795D01*
X91705Y74445D02*
Y75450D01*
X91590Y67595D02*
Y69240D01*
X91850Y69500D01*
X91705Y74445D02*
X92675Y73475D01*
X49540Y101850D02*
X49545D01*
X59793Y89654D02*
Y90408D01*
X71750Y83700D02*
X73840Y85790D01*
X68840Y83700D02*
X71750D01*
X64780Y92395D02*
Y101850D01*
X69860Y92400D02*
Y101850D01*
X100340Y27925D02*
Y30710D01*
X99845Y31205D02*
X100340Y30710D01*
X99845Y31205D02*
Y37465D01*
X112355Y31150D02*
X115580Y27925D01*
X96035Y35685D02*
Y37465D01*
X91500Y31150D02*
X96035Y35685D01*
X88325Y31150D02*
X91500D01*
X98575Y31240D02*
Y37465D01*
X97305Y35050D02*
Y37465D01*
X101115Y32230D02*
Y37465D01*
X102385Y35790D02*
Y37465D01*
X102385Y36040D02*
X102385Y35790D01*
X103655Y36895D02*
Y37465D01*
X103655Y36895D02*
X103655Y36895D01*
X80020Y27925D02*
X84745Y32650D01*
X101115Y32230D02*
X105420Y27925D01*
X85100D02*
X88325Y31150D01*
X90180Y27925D02*
X97305Y35050D01*
X95260Y27925D02*
X98575Y31240D01*
X111130Y97400D02*
X115580Y101850D01*
X105730Y97400D02*
X111130D01*
X102385Y94055D02*
X105730Y97400D01*
X102385Y90575D02*
Y94055D01*
X107300Y98650D02*
X110500Y101850D01*
X104700Y98650D02*
X107300D01*
X101115Y95065D02*
X104700Y98650D01*
X101115Y90575D02*
Y95065D01*
X99845Y96275D02*
X105420Y101850D01*
X99845Y90575D02*
Y96275D01*
X94765Y90575D02*
Y94885D01*
X90180Y101850D02*
X96035Y95995D01*
Y90575D02*
Y95995D01*
X95260Y101850D02*
X97305Y99805D01*
Y90575D02*
Y99805D01*
X98575Y100085D02*
X100340Y101850D01*
X98575Y90575D02*
Y100085D01*
X75400Y84410D02*
X76360D01*
X77070Y83700D01*
X75400Y88010D02*
X76190D01*
X73900D02*
X75400D01*
X76350Y87850D02*
X77100D01*
X76190Y88010D02*
X76350Y87850D01*
Y85950D02*
X77100D01*
X76190Y85790D02*
X76350Y85950D01*
X42290Y66050D02*
X43610D01*
X40505Y64265D02*
X42290Y66050D01*
X35620Y64265D02*
X40505D01*
X32400Y100250D02*
X33290Y99360D01*
X32400Y100250D02*
Y102650D01*
X34510Y92900D02*
Y99890D01*
X34300Y100100D02*
X34510Y99890D01*
X34300Y100100D02*
Y101850D01*
X59600Y87975D02*
Y88771D01*
X59783Y88954D01*
Y89644D01*
X57540Y89654D02*
X57700Y89494D01*
Y87975D02*
Y89494D01*
X57069Y87344D02*
X57700Y87975D01*
X57111Y85964D02*
X57700Y85375D01*
X34225Y91965D02*
X34510Y92250D01*
X34225Y91100D02*
Y91965D01*
X33290Y92250D02*
Y92900D01*
Y92250D02*
X33575Y91965D01*
Y91100D02*
Y91965D01*
X48595Y87400D02*
Y88600D01*
X48260Y39525D02*
X48295Y39560D01*
X50995Y40815D02*
X52075D01*
X54085Y42825D01*
X51135Y46025D02*
X51285Y45875D01*
X52445D01*
X48400Y47532D02*
X49755D01*
X51135D02*
X51412Y47255D01*
X54085Y44425D02*
Y45875D01*
X53185Y43725D02*
X54085Y42825D01*
X53185Y43725D02*
Y45135D01*
X52445Y45875D02*
X53185Y45135D01*
X47985Y44125D02*
X48388D01*
X48910Y46025D02*
X49755D01*
X48388Y45503D02*
X48910Y46025D01*
X48388Y44125D02*
Y45503D01*
X99845Y46865D02*
Y81225D01*
X102385Y46865D02*
Y81225D01*
X101115Y46865D02*
Y81225D01*
X103655Y46865D02*
Y81225D01*
X96035Y46865D02*
Y81225D01*
X98575Y46865D02*
Y81225D01*
X97305Y46865D02*
Y81225D01*
X69350Y87950D02*
Y88746D01*
X69533Y88929D01*
Y89619D01*
X67290Y89629D02*
X67450Y89469D01*
Y87950D02*
Y89469D01*
X73840Y85790D02*
Y85877D01*
X34510Y92250D02*
Y92900D01*
X33290D02*
Y99360D01*
X33575Y85185D02*
Y86700D01*
X33290Y84900D02*
X33575Y85185D01*
X34225Y85185D02*
Y86700D01*
Y85185D02*
X34510Y84900D01*
X67450Y85350D02*
X67460Y85340D01*
X66861Y85939D02*
X67450Y85350D01*
X90225Y74150D02*
X90755Y73620D01*
Y72850D02*
Y73620D01*
X103655Y36395D02*
Y36895D01*
Y36395D02*
X108900Y31150D01*
X112355D01*
X68610Y52100D02*
X70600D01*
X71050Y52550D01*
X91285Y77075D02*
X91705Y76655D01*
Y75450D02*
Y76655D01*
X94821Y46921D02*
Y81169D01*
X94765Y46865D02*
X94821Y46921D01*
X94765Y81225D02*
X94821Y81169D01*
X92225Y79825D02*
Y81225D01*
Y79825D02*
X93650Y78400D01*
Y67550D02*
Y78400D01*
X84080Y72850D02*
X89805D01*
X89850D01*
X71050Y52550D02*
Y55610D01*
X45810Y65400D02*
X45813Y65403D01*
X35910Y78000D02*
X37550Y79640D01*
X37400Y78000D02*
X38500D01*
X42600Y82850D02*
X42604D01*
X33023Y79535D02*
X33283Y79795D01*
X33023Y77900D02*
Y79535D01*
X29700Y77900D02*
X31643D01*
X92700Y66600D02*
X93650Y67550D01*
X82040Y66600D02*
X92700D01*
X92200Y70800D02*
X92675Y71275D01*
X91250Y70800D02*
X92200D01*
X89950Y69500D02*
X91250Y70800D01*
X92675Y71275D02*
Y73475D01*
X89947Y69503D02*
X89950Y69500D01*
X82753Y69503D02*
X89947D01*
X69780Y56530D02*
X82753Y69503D01*
X88000Y68800D02*
X89205Y67595D01*
X90210D01*
X69865Y49032D02*
X70810D01*
X80020Y101850D02*
X83220Y98650D01*
X91000D01*
X94765Y94885D01*
X101025Y86200D02*
X103655Y88830D01*
Y90575D01*
X112100Y85100D02*
X113400Y86400D01*
X88415Y86306D02*
Y90575D01*
X69810Y78900D02*
X81009D01*
X77950Y87850D02*
X78900Y86900D01*
X77100Y87850D02*
X77950D01*
X38500Y78000D02*
X38916Y78416D01*
Y82521D01*
X39245Y82850D01*
X42600D01*
X66300Y50900D02*
X66747Y50453D01*
X94765Y36265D02*
Y37096D01*
X84745Y32650D02*
X91150D01*
X94765Y36265D01*
X45813Y65403D02*
X47853D01*
X55350Y72900D01*
X68890D01*
X110050Y78050D02*
Y79744D01*
X108356Y78050D02*
X110050D01*
X111744D01*
X110050Y76356D02*
Y78050D01*
X106900Y76700D02*
X110050Y73550D01*
X40505Y62995D02*
X41950Y61550D01*
X38160Y62995D02*
X40505D01*
X43600Y60250D02*
X44560D01*
X44710Y60400D01*
X43610Y64750D02*
X44710D01*
X54075Y75450D02*
X55600Y73925D01*
X67240Y53470D02*
X68610Y52100D01*
X69780Y75055D02*
Y76330D01*
X64700D02*
X66097Y74933D01*
X67240Y76330D02*
X69810Y78900D01*
X64700Y53470D02*
X84080Y72850D01*
X69780Y53470D02*
Y56530D01*
X48895Y72808D02*
X50589D01*
X49545Y81600D02*
X50870Y80275D01*
X47201Y72808D02*
X48895D01*
Y71114D02*
Y72808D01*
Y74200D01*
Y75450D02*
X54075D01*
X48895D02*
X50870Y77425D01*
Y80275D01*
X49540Y85200D02*
Y88595D01*
X84759Y92185D02*
X85575Y93000D01*
X81725Y82150D02*
X84759Y85184D01*
Y92185D01*
X78900Y86900D02*
X82753D01*
X81235Y85650D02*
Y85950D01*
X80770Y83700D02*
Y84320D01*
X81235Y84785D01*
Y85650D01*
X79700Y85950D02*
X81235D01*
X41310Y70090D02*
Y71075D01*
X82615Y85650D02*
X83550Y86585D01*
Y87319D01*
X82741Y88127D02*
X83550Y87319D01*
X82741Y88127D02*
Y90134D01*
X79600Y90545D02*
X79842Y90787D01*
X82088D01*
X82741Y90134D01*
X45800Y60250D02*
X46950D01*
X45810Y64750D02*
X46960D01*
X42460Y69350D02*
X43610D01*
D32*
X48098Y92803D02*
X48595Y92305D01*
X49140Y80330D02*
X49395D01*
X46770Y91200D02*
X47645D01*
X47645Y86887D02*
X48205Y86327D01*
X47645Y86887D02*
Y88600D01*
Y92350D02*
X48098Y92803D01*
X48595Y91200D02*
Y92305D01*
X47645Y91200D02*
Y92350D01*
X67614Y48482D02*
X67696Y48565D01*
X73585Y76330D02*
X74860D01*
X36716Y65535D02*
X38160D01*
X39530D01*
X31200Y90925D02*
X32425Y89700D01*
X34875Y86700D02*
X36054D01*
X32425Y89700D02*
X35900D01*
X61200Y89681D02*
Y90800D01*
X61173Y89654D02*
X61200Y89681D01*
X72410Y89390D02*
X73900D01*
X89440Y78360D02*
X89800Y78000D01*
Y77160D02*
Y78000D01*
X87100Y77200D02*
X88160D01*
X88200Y77160D01*
X87145Y79650D02*
Y81225D01*
X88415Y79650D02*
Y81225D01*
X45850Y58650D02*
X47050D01*
X46045Y90275D02*
X47645Y88675D01*
X45845Y90275D02*
X46770Y91200D01*
X92665Y77075D02*
Y78275D01*
X89800Y75460D02*
Y77160D01*
X73840Y83000D02*
Y84190D01*
X75800Y86900D02*
X77100D01*
X76800Y89600D02*
X78000D01*
X79600D02*
X79700Y89500D01*
Y87850D02*
Y89500D01*
X45860Y63150D02*
X47060D01*
X31200Y88225D02*
Y89325D01*
X42960Y70950D02*
X44160D01*
X55183Y89654D02*
X56160D01*
X58650Y87975D02*
Y89214D01*
X61383Y86975D02*
Y88154D01*
Y85375D02*
X62562D01*
X59600D02*
X61383D01*
X34875Y90625D02*
Y91100D01*
X93495Y90575D02*
Y92720D01*
X93675Y92900D01*
X92225Y90575D02*
Y92720D01*
X45845Y90275D02*
X46045D01*
X49545Y44465D02*
X50710D01*
X52310D02*
X52325Y44450D01*
X46635Y41712D02*
X46688Y41765D01*
X52325Y43190D02*
Y44450D01*
X51850Y42715D02*
X52325Y43190D01*
X50995Y42715D02*
X51850D01*
X64933Y89629D02*
X65910D01*
X68400Y87950D02*
Y89189D01*
X71133Y86950D02*
Y88129D01*
X89685Y79650D02*
Y81225D01*
X75400Y89390D02*
Y90350D01*
X70923Y89629D02*
Y89650D01*
Y90750D01*
X72400Y89400D02*
X72410Y89390D01*
X115940Y86400D02*
X118415Y88875D01*
Y103685D01*
X116943Y105157D02*
X118415Y103685D01*
X77375Y105157D02*
X116943D01*
X110860Y86400D02*
Y87681D01*
X45810Y69350D02*
Y70900D01*
X45760Y70950D02*
X45810Y70900D01*
X74860Y76330D02*
Y77605D01*
Y76330D02*
X75969D01*
X74860Y75055D02*
Y76330D01*
X49395Y78092D02*
Y80075D01*
X47795Y78895D02*
Y80075D01*
X48650Y80820D02*
X49140Y80330D01*
X48650Y80820D02*
Y82700D01*
X81475Y88819D02*
Y90084D01*
X93550Y94125D02*
X93675Y94000D01*
Y92900D02*
Y94000D01*
X69350Y85350D02*
X72312D01*
X45800Y61550D02*
X46950D01*
X45810Y66050D02*
X46960D01*
X42460Y68050D02*
X43610D01*
X91705Y71640D02*
Y72850D01*
X92045Y92900D02*
X92225Y92720D01*
X92045Y92900D02*
Y94070D01*
D33*
X42600Y82850D02*
X42750Y82700D01*
X40950Y88050D02*
X43175Y90275D01*
X40600Y79000D02*
Y81500D01*
X42750Y82700D02*
X44400D01*
Y83725D01*
X41225Y86900D02*
X44400Y83725D01*
X40950Y87175D02*
X41225Y86900D01*
X40950Y87175D02*
Y88050D01*
X52645Y80200D02*
X81300D01*
X37000Y89700D02*
X39300D01*
X35900D02*
X37000D01*
X39300D02*
X40950Y88050D01*
X85940Y78360D02*
X89440D01*
X85940Y75860D02*
X86900Y74900D01*
X85940Y75860D02*
Y78360D01*
X43175Y90275D02*
X45845D01*
X40600Y77300D02*
Y79000D01*
X44400Y79990D02*
Y81100D01*
X42200Y79000D02*
X43310D01*
X40400Y81700D02*
X40600Y81500D01*
X74400Y73400D02*
Y74748D01*
X44400Y82700D02*
X45760D01*
X49395Y78092D02*
X49395Y78092D01*
X50145Y82700D02*
X52645Y80200D01*
X45760Y70950D02*
Y82700D01*
X45800D02*
X48650D01*
X50145D01*
D34*
X46688Y41765D02*
X48295D01*
X93495Y44600D02*
Y46865D01*
X92005Y46665D02*
X92205Y46865D01*
X93495D01*
Y48655D02*
X93505Y48665D01*
X93495Y46865D02*
Y48655D01*
X67614Y46335D02*
X69761D01*
X67614Y44489D02*
Y46335D01*
Y48482D01*
X29225Y27925D02*
Y29875D01*
Y27925D02*
X31175D01*
X29225Y25975D02*
Y27925D01*
X27275D02*
X29225D01*
X52670Y101850D02*
X54620D01*
X56570D01*
X54620D02*
Y103685D01*
X44460Y101850D02*
Y103685D01*
Y101850D02*
X46410D01*
X44460Y99900D02*
Y101850D01*
X42510D02*
X44460D01*
X44465Y27925D02*
Y29875D01*
Y27925D02*
X46415D01*
X44465Y25975D02*
Y27925D01*
X42515D02*
X44465D01*
X39385D02*
Y29875D01*
Y27925D02*
X41335D01*
X39385Y25975D02*
Y27925D01*
X37435D02*
X39385D01*
X34305D02*
Y29875D01*
Y27925D02*
X36255D01*
X34305Y25975D02*
Y27925D01*
X32355D02*
X34305D01*
X74940Y27925D02*
X82115Y35100D01*
X92000D01*
X93495Y36595D01*
Y37465D01*
X42604Y80950D02*
X44250D01*
X44400Y81100D01*
X44250Y58650D02*
X44710Y59110D01*
Y60400D01*
X44250Y57647D02*
Y58650D01*
Y57647D02*
X47514Y54383D01*
X47517D01*
X44710Y60400D02*
Y64750D01*
X74940Y99900D02*
Y101850D01*
Y103685D01*
Y101850D02*
X76377D01*
X72990D02*
X74940D01*
X85100Y99900D02*
Y101850D01*
Y103685D01*
Y101850D02*
X87050D01*
X83150D02*
X85100D01*
X65467Y46335D02*
X67614D01*
X54620Y99900D02*
Y101850D01*
D35*
X32900Y61650D02*
Y73160D01*
X41900Y48910D02*
Y53000D01*
X40400Y54500D02*
X41900Y53000D01*
X36475Y54500D02*
X40400D01*
X32900Y58075D02*
X36475Y54500D01*
X32900Y58075D02*
Y61650D01*
D36*
X32975Y61725D01*
X29220Y76840D02*
X32900Y73160D01*
X55900Y70900D02*
X76100D01*
X49540Y64540D02*
X55900Y70900D01*
X49540Y56405D02*
Y64540D01*
X77400Y72200D02*
Y73400D01*
X76100Y70900D02*
X77400Y72200D01*
X46295Y49135D02*
Y53160D01*
X45225Y48065D02*
X46295Y49135D01*
X38730Y75430D02*
X40600Y77300D01*
X35170Y75430D02*
X38730D01*
X32900Y73160D02*
X35170Y75430D01*
X29220Y76840D02*
Y101850D01*
X32975Y61725D02*
X35620D01*
X29220Y101850D02*
X32520Y105150D01*
X59700D01*
Y101850D02*
Y105150D01*
X66900D02*
X77375D01*
X59700D02*
X66900D01*
X46295Y53160D02*
X47517Y54383D01*
X49540Y56405D01*
X77400Y73400D02*
Y76330D01*
D37*
X64150Y90850D02*
X65700D01*
X62562Y89262D02*
X64150Y90850D01*
X62562Y85375D02*
Y89262D01*
X73900Y90650D02*
X74775Y91525D01*
X73005Y90650D02*
X73900D01*
X72400Y89400D02*
Y90045D01*
Y85486D02*
Y89400D01*
Y90045D02*
X73005Y90650D01*
X66203Y91353D02*
Y94453D01*
X65700Y90850D02*
X66203Y91353D01*
X72288Y85374D02*
X72400Y85486D01*
X73075Y73400D02*
X74400D01*
X72760Y92400D02*
Y93905D01*
X67680Y92395D02*
Y93900D01*
X66900Y105150D02*
X67240Y104810D01*
X66203Y94453D02*
X67240Y95490D01*
Y104810D01*
X79600Y89600D02*
Y90545D01*
X42470Y35000D02*
X49545Y27925D01*
X26000Y55375D02*
Y61700D01*
Y55375D02*
X29150Y52225D01*
Y39950D02*
Y52225D01*
Y39950D02*
X34100Y35000D01*
X42470D01*
X26000Y61700D02*
X30150Y65850D01*
X78620Y91525D02*
X79600Y90545D01*
X77325Y91525D02*
X77375Y91575D01*
X74775Y91525D02*
X77325D01*
X78620D01*
X77375Y97425D02*
Y105150D01*
Y91575D02*
Y97225D01*
X90520D01*
X93550Y94195D01*
Y94125D02*
Y94195D01*
D38*
X69900Y32668D02*
D03*
D39*
X45340Y38657D02*
D03*
D40*
X48290Y39325D02*
D03*
D41*
X41495Y48950D02*
D03*
D42*
X37195Y41082D02*
D03*
D43*
X43515Y42113D02*
D03*
D44*
X45260Y44445D02*
D03*
D45*
X46570Y41715D02*
D03*
D46*
X57150Y28025D02*
D03*
D47*
X52525Y33525D02*
D03*
D48*
X68213Y24250D02*
D03*
D49*
X63125Y25600D02*
D03*
D50*
X74925Y27050D02*
D03*
D51*
X116550Y73550D02*
D03*
X110050D02*
D03*
X116550Y78050D02*
D03*
X110050D02*
D03*
D52*
X59620Y76330D02*
D03*
X62160D02*
D03*
X64700D02*
D03*
X67240D02*
D03*
X69780D02*
D03*
X72320D02*
D03*
X74860D02*
D03*
X77400Y53470D02*
D03*
X74860D02*
D03*
X72320D02*
D03*
X69780D02*
D03*
X67240D02*
D03*
X64700D02*
D03*
X62160D02*
D03*
D53*
X77400Y76330D02*
D03*
X59620Y53470D02*
D03*
D54*
X69860Y101850D02*
D03*
X39380D02*
D03*
X54620D02*
D03*
X115580D02*
D03*
X85100D02*
D03*
X100340D02*
D03*
X74940Y27925D02*
D03*
X105420D02*
D03*
X90180D02*
D03*
X29225Y27925D02*
D03*
X59705D02*
D03*
X44465D02*
D03*
D55*
X64780Y101850D02*
D03*
X59700D02*
D03*
X34300D02*
D03*
X29220D02*
D03*
X49540D02*
D03*
X44460D02*
D03*
X110500D02*
D03*
X105420D02*
D03*
X80020D02*
D03*
X74940D02*
D03*
X95260D02*
D03*
X90180D02*
D03*
X80020Y27925D02*
D03*
X85100D02*
D03*
X110500D02*
D03*
X115580D02*
D03*
X95260D02*
D03*
X100340D02*
D03*
X34305Y27925D02*
D03*
X39385D02*
D03*
X64785D02*
D03*
X69865D02*
D03*
X49545D02*
D03*
X54625D02*
D03*
D56*
X38160Y60455D02*
D03*
Y68075D02*
D03*
X35620Y61725D02*
D03*
Y66805D02*
D03*
X38160Y62995D02*
D03*
Y65535D02*
D03*
X35620Y64265D02*
D03*
D57*
Y69345D02*
D03*
D58*
X29270Y59185D02*
D03*
Y70615D02*
D03*
D59*
X110860Y86400D02*
D03*
D60*
X113400D02*
D03*
X115940D02*
D03*
D61*
X48895Y78092D02*
D03*
Y72808D02*
D03*
Y75450D02*
D03*
D62*
X66000Y56925D02*
D03*
X80000Y84800D02*
D03*
X88160Y83100D02*
D03*
X92045Y94070D02*
D03*
X45300Y84200D02*
D03*
X63696Y45865D02*
D03*
Y44965D02*
D03*
Y46765D02*
D03*
Y47665D02*
D03*
Y48565D02*
D03*
Y49465D02*
D03*
X67696Y48565D02*
D03*
Y49465D02*
D03*
X66696Y48565D02*
D03*
Y49465D02*
D03*
X65696D02*
D03*
X64696D02*
D03*
X65696Y48565D02*
D03*
X64696D02*
D03*
X65696Y47665D02*
D03*
X64696D02*
D03*
X65696Y46765D02*
D03*
X64696D02*
D03*
X65696Y44965D02*
D03*
X64696D02*
D03*
Y45865D02*
D03*
X65696D02*
D03*
X41000Y85000D02*
D03*
X31900Y83800D02*
D03*
X35890Y83843D02*
D03*
X46951Y68400D02*
D03*
X56100D02*
D03*
X68300Y60900D02*
D03*
X57700Y68300D02*
D03*
X46951Y66177D02*
D03*
X46960Y64650D02*
D03*
X51135Y60900D02*
D03*
X47900D02*
D03*
X57700Y74900D02*
D03*
Y79150D02*
D03*
Y82950D02*
D03*
X36054Y86700D02*
D03*
X35890Y93957D02*
D03*
X31900Y94000D02*
D03*
X61200Y90800D02*
D03*
X44500Y85000D02*
D03*
X42300Y84200D02*
D03*
X49540Y85200D02*
D03*
X81300Y80200D02*
D03*
X81975Y83700D02*
D03*
X86900Y74900D02*
D03*
X85940Y78360D02*
D03*
X87100Y77200D02*
D03*
X87145Y79650D02*
D03*
X88415D02*
D03*
X44400Y79990D02*
D03*
X43310Y79000D02*
D03*
X47050Y58650D02*
D03*
X73075Y73400D02*
D03*
X84996Y80025D02*
D03*
X45845Y87525D02*
D03*
X31425Y81165D02*
D03*
X92665Y78275D02*
D03*
X91705Y71640D02*
D03*
X73840Y83000D02*
D03*
X75800Y86900D02*
D03*
X76800Y89600D02*
D03*
X46950Y61650D02*
D03*
Y60150D02*
D03*
X47060Y63150D02*
D03*
X31200Y88225D02*
D03*
X72760Y93905D02*
D03*
X67680Y93900D02*
D03*
X42460Y67950D02*
D03*
Y69450D02*
D03*
X42960Y70950D02*
D03*
X55183Y89654D02*
D03*
X58650Y89214D02*
D03*
X61383Y88154D02*
D03*
X93505Y48665D02*
D03*
X92505D02*
D03*
X92005Y47665D02*
D03*
Y45665D02*
D03*
Y46665D02*
D03*
X48595Y87400D02*
D03*
X38545Y41665D02*
D03*
Y40765D02*
D03*
X39545D02*
D03*
Y41665D02*
D03*
X49545Y44465D02*
D03*
X46045Y41265D02*
D03*
X47045D02*
D03*
X64933Y89629D02*
D03*
X68400Y89189D02*
D03*
X71133Y88129D02*
D03*
X89685Y79650D02*
D03*
X75400Y90350D02*
D03*
X70923Y90750D02*
D03*
X88000Y68800D02*
D03*
X35992Y81223D02*
D03*
X69865Y49032D02*
D03*
X90500Y85100D02*
D03*
X82753Y86900D02*
D03*
X66300Y50900D02*
D03*
X36000Y91150D02*
D03*
X67150Y57000D02*
D03*
X85260Y73800D02*
D03*
X85300Y70400D02*
D03*
X85982Y80900D02*
D03*
X93795Y79576D02*
D03*
X104600Y81900D02*
D03*
X90180Y106400D02*
D03*
X105420D02*
D03*
X117643D02*
D03*
X44367Y51980D02*
D03*
X35249Y72900D02*
D03*
Y70974D02*
D03*
X40100D02*
D03*
X39609Y68210D02*
D03*
X47165Y71000D02*
D03*
X42534Y65184D02*
D03*
Y62387D02*
D03*
X70200Y84450D02*
D03*
X76974Y84936D02*
D03*
X78545Y103400D02*
D03*
X66000D02*
D03*
X31600Y101850D02*
D03*
X39900Y87175D02*
D03*
X38830Y88687D02*
D03*
X40950Y89550D02*
D03*
X42104Y87641D02*
D03*
X43836Y85850D02*
D03*
X48500Y85149D02*
D03*
X50647Y85198D02*
D03*
X58900Y83000D02*
D03*
X56520D02*
D03*
X79686D02*
D03*
X56566Y74715D02*
D03*
X56736Y79075D02*
D03*
X58743Y79055D02*
D03*
X58800Y74684D02*
D03*
X68974Y79185D02*
D03*
X65224Y74700D02*
D03*
X71000Y77247D02*
D03*
X69692Y72550D02*
D03*
X80020Y77375D02*
D03*
X68916Y56500D02*
D03*
X71700Y52100D02*
D03*
X72816Y50300D02*
D03*
X91368Y34100D02*
D03*
X97771Y34200D02*
D03*
X101919Y35000D02*
D03*
X99200Y30700D02*
D03*
X100700Y31459D02*
D03*
X91000Y31900D02*
D03*
X91422Y30300D02*
D03*
X109100D02*
D03*
X87578Y87419D02*
D03*
X86156Y91353D02*
D03*
X32884Y75600D02*
D03*
X39635Y80950D02*
D03*
X38205Y77200D02*
D03*
X41600Y81991D02*
D03*
X54829Y73500D02*
D03*
X47020Y56200D02*
D03*
X45700Y54867D02*
D03*
X45900Y57400D02*
D03*
X35249Y60000D02*
D03*
X88100Y67500D02*
D03*
X83152Y68634D02*
D03*
X70727Y56402D02*
D03*
X81725Y67332D02*
D03*
X81412Y71400D02*
D03*
X78100Y70400D02*
D03*
X82741Y70366D02*
D03*
X49545Y81600D02*
D03*
X47795Y78895D02*
D03*
Y81491D02*
D03*
X48658Y76800D02*
D03*
X51900Y79332D02*
D03*
X51135Y76478D02*
D03*
X41310Y71075D02*
D03*
X46295Y43715D02*
D03*
X45355D02*
D03*
X47045Y42165D02*
D03*
X46045D02*
D03*
X44445Y42765D02*
D03*
Y43715D02*
D03*
X30150Y65850D02*
D03*
X29250Y64950D02*
D03*
X28350Y64050D02*
D03*
X27450Y63150D02*
D03*
X26000Y36000D02*
D03*
Y44000D02*
D03*
Y52000D02*
D03*
Y68000D02*
D03*
X24000Y72000D02*
D03*
X26000Y76000D02*
D03*
X24000Y80000D02*
D03*
X26000Y84000D02*
D03*
X24000Y88000D02*
D03*
X26000Y92000D02*
D03*
X24000Y96000D02*
D03*
X26000Y100000D02*
D03*
X28000Y32000D02*
D03*
X30000Y36000D02*
D03*
X28000Y40000D02*
D03*
Y48000D02*
D03*
Y56000D02*
D03*
Y104000D02*
D03*
X32000Y32000D02*
D03*
Y40000D02*
D03*
X34000Y52000D02*
D03*
X32000Y56000D02*
D03*
Y96000D02*
D03*
X36000Y32000D02*
D03*
X38000Y52000D02*
D03*
X36000Y72000D02*
D03*
Y88000D02*
D03*
X38000Y92000D02*
D03*
X36000Y96000D02*
D03*
X38000Y100000D02*
D03*
X42000Y28000D02*
D03*
X40000Y32000D02*
D03*
X42000Y60000D02*
D03*
X40000Y72000D02*
D03*
X42000Y76000D02*
D03*
Y92000D02*
D03*
X40000Y96000D02*
D03*
X42000Y100000D02*
D03*
X46000Y36000D02*
D03*
X44000Y56000D02*
D03*
Y88000D02*
D03*
X46000Y92000D02*
D03*
X44000Y96000D02*
D03*
X46000Y100000D02*
D03*
X48000Y32000D02*
D03*
X50000Y52000D02*
D03*
X48000Y96000D02*
D03*
X54000Y52000D02*
D03*
X52000Y56000D02*
D03*
X54000Y60000D02*
D03*
X52000Y64000D02*
D03*
Y72000D02*
D03*
X54000Y84000D02*
D03*
X52000Y88000D02*
D03*
X54000Y92000D02*
D03*
X52000Y96000D02*
D03*
X54000Y100000D02*
D03*
X56000Y32000D02*
D03*
X58000Y36000D02*
D03*
X56000Y40000D02*
D03*
X58000Y44000D02*
D03*
X56000Y48000D02*
D03*
Y64000D02*
D03*
X58000Y92000D02*
D03*
X56000Y96000D02*
D03*
X58000Y100000D02*
D03*
X60000Y32000D02*
D03*
X62000Y36000D02*
D03*
X60000Y40000D02*
D03*
X62000Y44000D02*
D03*
X60000Y48000D02*
D03*
X62000Y60000D02*
D03*
X60000Y64000D02*
D03*
X62000Y84000D02*
D03*
X60000Y96000D02*
D03*
X62000Y100000D02*
D03*
X64000Y32000D02*
D03*
X66000Y36000D02*
D03*
X64000Y40000D02*
D03*
X66000Y44000D02*
D03*
X64000Y56000D02*
D03*
X66000Y60000D02*
D03*
X64000Y64000D02*
D03*
X66000Y68000D02*
D03*
Y84000D02*
D03*
X64000Y96000D02*
D03*
X66000Y100000D02*
D03*
X70000Y44000D02*
D03*
X68000Y64000D02*
D03*
X70000Y68000D02*
D03*
X74000Y36000D02*
D03*
Y44000D02*
D03*
X72000Y64000D02*
D03*
X74000Y68000D02*
D03*
X72000Y96000D02*
D03*
X74000Y100000D02*
D03*
X78000Y28000D02*
D03*
X76000Y32000D02*
D03*
X78000Y36000D02*
D03*
X76000Y40000D02*
D03*
X78000Y44000D02*
D03*
X76000Y48000D02*
D03*
X78000Y52000D02*
D03*
X76000Y56000D02*
D03*
X78000Y60000D02*
D03*
X76000Y96000D02*
D03*
X80000Y24000D02*
D03*
X82000Y28000D02*
D03*
Y36000D02*
D03*
X80000Y40000D02*
D03*
X82000Y44000D02*
D03*
X80000Y48000D02*
D03*
X82000Y52000D02*
D03*
X80000Y56000D02*
D03*
X82000Y60000D02*
D03*
Y76000D02*
D03*
Y92000D02*
D03*
X80000Y96000D02*
D03*
Y104000D02*
D03*
X84000Y24000D02*
D03*
X86000Y36000D02*
D03*
X84000Y40000D02*
D03*
X86000Y44000D02*
D03*
X84000Y48000D02*
D03*
X86000Y52000D02*
D03*
X84000Y56000D02*
D03*
X86000Y60000D02*
D03*
X84000Y64000D02*
D03*
X86000Y68000D02*
D03*
X84000Y88000D02*
D03*
Y96000D02*
D03*
X86000Y100000D02*
D03*
X84000Y104000D02*
D03*
X88000Y24000D02*
D03*
X90000Y36000D02*
D03*
X88000Y40000D02*
D03*
X90000Y44000D02*
D03*
X88000Y48000D02*
D03*
X90000Y52000D02*
D03*
X88000Y56000D02*
D03*
X90000Y60000D02*
D03*
X88000Y64000D02*
D03*
Y72000D02*
D03*
X90000Y84000D02*
D03*
X88000Y96000D02*
D03*
X90000Y100000D02*
D03*
X88000Y104000D02*
D03*
X92000Y24000D02*
D03*
Y40000D02*
D03*
X94000Y44000D02*
D03*
Y52000D02*
D03*
X92000Y56000D02*
D03*
X94000Y60000D02*
D03*
X92000Y64000D02*
D03*
X94000Y84000D02*
D03*
X92000Y88000D02*
D03*
X94000Y100000D02*
D03*
X92000Y104000D02*
D03*
X96000Y24000D02*
D03*
X98000Y28000D02*
D03*
X96000Y32000D02*
D03*
Y40000D02*
D03*
X98000Y44000D02*
D03*
Y84000D02*
D03*
X96000Y88000D02*
D03*
Y104000D02*
D03*
X100000Y24000D02*
D03*
Y40000D02*
D03*
X102000Y44000D02*
D03*
Y84000D02*
D03*
X100000Y88000D02*
D03*
X102000Y100000D02*
D03*
X100000Y104000D02*
D03*
X104000Y24000D02*
D03*
Y32000D02*
D03*
X106000Y36000D02*
D03*
X104000Y40000D02*
D03*
X106000Y44000D02*
D03*
Y52000D02*
D03*
Y60000D02*
D03*
Y68000D02*
D03*
Y76000D02*
D03*
Y84000D02*
D03*
X104000Y88000D02*
D03*
X106000Y92000D02*
D03*
Y100000D02*
D03*
X104000Y104000D02*
D03*
X108000Y24000D02*
D03*
X110000Y36000D02*
D03*
X108000Y40000D02*
D03*
X110000Y44000D02*
D03*
X108000Y48000D02*
D03*
X110000Y52000D02*
D03*
X108000Y56000D02*
D03*
X110000Y60000D02*
D03*
X108000Y64000D02*
D03*
X110000Y68000D02*
D03*
X108000Y72000D02*
D03*
X110000Y76000D02*
D03*
X108000Y80000D02*
D03*
X110000Y84000D02*
D03*
X108000Y88000D02*
D03*
X110000Y92000D02*
D03*
X108000Y96000D02*
D03*
X110000Y100000D02*
D03*
X108000Y104000D02*
D03*
X112000Y24000D02*
D03*
Y32000D02*
D03*
X114000Y36000D02*
D03*
X112000Y40000D02*
D03*
X114000Y44000D02*
D03*
X112000Y48000D02*
D03*
X114000Y52000D02*
D03*
X112000Y56000D02*
D03*
X114000Y60000D02*
D03*
X112000Y64000D02*
D03*
X114000Y68000D02*
D03*
X112000Y72000D02*
D03*
X114000Y76000D02*
D03*
X112000Y80000D02*
D03*
X114000Y84000D02*
D03*
X112000Y88000D02*
D03*
X114000Y92000D02*
D03*
X112000Y96000D02*
D03*
Y104000D02*
D03*
X116000Y24000D02*
D03*
X118000Y28000D02*
D03*
X116000Y32000D02*
D03*
X118000Y36000D02*
D03*
X116000Y40000D02*
D03*
X118000Y44000D02*
D03*
X116000Y48000D02*
D03*
X118000Y52000D02*
D03*
X116000Y56000D02*
D03*
X118000Y60000D02*
D03*
X116000Y64000D02*
D03*
X118000Y68000D02*
D03*
X116000Y72000D02*
D03*
X118000Y76000D02*
D03*
X116000Y80000D02*
D03*
X118000Y84000D02*
D03*
X116000Y88000D02*
D03*
Y96000D02*
D03*
Y104000D02*
D03*
X120000Y32000D02*
D03*
Y40000D02*
D03*
Y48000D02*
D03*
Y56000D02*
D03*
Y64000D02*
D03*
Y72000D02*
D03*
Y88000D02*
D03*
Y96000D02*
D03*
X81475Y90084D02*
D03*
M02*
